<svg xmlns="http://www.w3.org/2000/svg" xmlns:xlink="http://www.w3.org/1999/xlink" contentStyleType="text/css" data-diagram-type="CLASS" height="828px" preserveAspectRatio="none" style="width:661px;height:828px;background:#FFFFFF;" version="1.1" viewBox="0 0 661 828" width="661px" zoomAndPan="magnify"><defs/><g><!--class ApiContext--><g class="entity" data-entity="ApiContext" data-source-line="4" data-uid="ent0002" id="entity_ApiContext"><rect fill="#F1F1F1" height="145.7813" rx="2.5" ry="2.5" style="stroke:#181818;stroke-width:0.5;" width="344.0215" x="132.01" y="320.78"/><ellipse cx="261.0486" cy="336.78" fill="#ADD1B2" rx="11" ry="11" style="stroke:#181818;stroke-width:1;"/><path d="M264.0173,342.4206 Q263.4392,342.7175 262.7986,342.8581 Q262.1579,343.0144 261.4548,343.0144 Q258.9548,343.0144 257.6267,341.3738 Q256.3142,339.7175 256.3142,336.5925 Q256.3142,333.4675 257.6267,331.8113 Q258.9548,330.155 261.4548,330.155 Q262.1579,330.155 262.7986,330.3113 Q263.4548,330.4675 264.0173,330.7644 L264.0173,333.4831 Q263.3923,332.905 262.7986,332.6394 Q262.2048,332.3581 261.5798,332.3581 Q260.2361,332.3581 259.5486,333.4363 Q258.8611,334.4988 258.8611,336.5925 Q258.8611,338.6863 259.5486,339.7644 Q260.2361,340.8269 261.5798,340.8269 Q262.2048,340.8269 262.7986,340.5613 Q263.3923,340.28 264.0173,339.7019 L264.0173,342.4206 Z " fill="#000000"/><text fill="#000000" font-family="sans-serif" font-size="14" lengthAdjust="spacing" textLength="77.4443" x="281.5486" y="341.6267">ApiContext</text><line style="stroke:#181818;stroke-width:0.5;" x1="133.01" x2="475.0315" y1="352.78" y2="352.78"/><rect fill="none" height="6" style="stroke:#C82930;stroke-width:1;" width="6" x="140.01" y="363.4284"/><text fill="#000000" font-family="sans-serif" font-size="14" lengthAdjust="spacing" textLength="244.3096" x="152.01" y="369.7751">cacheRepository: CacheRepository</text><rect fill="none" height="6" style="stroke:#C82930;stroke-width:1;" width="6" x="140.01" y="379.7253"/><text fill="#000000" font-family="sans-serif" font-size="14" lengthAdjust="spacing" textLength="172.8467" x="152.01" y="386.072">apiStrategy: ApiStrategy</text><rect fill="none" height="6" style="stroke:#C82930;stroke-width:1;" width="6" x="140.01" y="396.0222"/><text fill="#000000" font-family="sans-serif" font-size="14" lengthAdjust="spacing" textLength="203.0205" x="152.01" y="402.3689">apiRepository: ApiRepository</text><line style="stroke:#181818;stroke-width:0.5;" x1="133.01" x2="475.0315" y1="409.6706" y2="409.6706"/><ellipse cx="143.01" cy="423.3191" fill="#84BE84" rx="3" ry="3" style="stroke:#038048;stroke-width:1;"/><text fill="#000000" font-family="sans-serif" font-size="14" lengthAdjust="spacing" textLength="318.0215" x="152.01" y="426.6657">ApiContext(CacheRepository, ApiRepository):</text><ellipse cx="143.01" cy="439.6159" fill="#84BE84" rx="3" ry="3" style="stroke:#038048;stroke-width:1;"/><text fill="#000000" font-family="sans-serif" font-size="14" lengthAdjust="spacing" textLength="171.0215" x="152.01" y="442.9626">getHotels(String): String</text><rect fill="#F24D5C" height="6" style="stroke:#C82930;stroke-width:1;" width="6" x="140.01" y="452.9128"/><text fill="#000000" font-family="sans-serif" font-size="14" lengthAdjust="spacing" textLength="213.4385" x="152.01" y="459.2595">setStrategy(ApiStrategy): void</text></g><!--class ApiController--><g class="entity" data-entity="ApiController" data-source-line="12" data-uid="ent0003" id="entity_ApiController"><rect fill="#F1F1F1" height="96.8906" rx="2.5" ry="2.5" style="stroke:#181818;stroke-width:0.5;" width="304.5781" x="151.73" y="7"/><ellipse cx="254.0059" cy="23" fill="#ADD1B2" rx="11" ry="11" style="stroke:#181818;stroke-width:1;"/><path d="M256.9746,28.6406 Q256.3965,28.9375 255.7559,29.0781 Q255.1153,29.2344 254.4121,29.2344 Q251.9121,29.2344 250.584,27.5938 Q249.2715,25.9375 249.2715,22.8125 Q249.2715,19.6875 250.584,18.0313 Q251.9121,16.375 254.4121,16.375 Q255.1153,16.375 255.7559,16.5313 Q256.4121,16.6875 256.9746,16.9844 L256.9746,19.7031 Q256.3496,19.125 255.7559,18.8594 Q255.1621,18.5781 254.5371,18.5781 Q253.1934,18.5781 252.5059,19.6563 Q251.8184,20.7188 251.8184,22.8125 Q251.8184,24.9063 252.5059,25.9844 Q253.1934,27.0469 254.5371,27.0469 Q255.1621,27.0469 255.7559,26.7813 Q256.3496,26.5 256.9746,25.9219 L256.9746,28.6406 Z " fill="#000000"/><text fill="#000000" font-family="sans-serif" font-size="14" lengthAdjust="spacing" textLength="91.5264" x="274.5059" y="27.8467">ApiController</text><line style="stroke:#181818;stroke-width:0.5;" x1="152.73" x2="455.3081" y1="39" y2="39"/><rect fill="none" height="6" style="stroke:#C82930;stroke-width:1;" width="6" x="159.73" y="49.6484"/><text fill="#000000" font-family="sans-serif" font-size="14" lengthAdjust="spacing" textLength="156.3584" x="171.73" y="55.9951">apiService: ApiService</text><line style="stroke:#181818;stroke-width:0.5;" x1="152.73" x2="455.3081" y1="63.2969" y2="63.2969"/><ellipse cx="162.73" cy="76.9453" fill="#84BE84" rx="3" ry="3" style="stroke:#038048;stroke-width:1;"/><text fill="#000000" font-family="sans-serif" font-size="14" lengthAdjust="spacing" textLength="181.2617" x="171.73" y="80.292">ApiController(ApiService):</text><ellipse cx="162.73" cy="93.2422" fill="#84BE84" rx="3" ry="3" style="stroke:#038048;stroke-width:1;"/><text fill="#000000" font-family="sans-serif" font-size="14" lengthAdjust="spacing" textLength="278.5781" x="171.73" y="96.5889">hotels(String): ResponseEntity&lt;String&gt;</text></g><!--class ApiRepository--><g class="entity" data-entity="ApiRepository" data-source-line="17" data-uid="ent0004" id="entity_ApiRepository"><rect fill="#F1F1F1" height="162.0781" rx="2.5" ry="2.5" style="stroke:#181818;stroke-width:0.5;" width="244.0322" x="7" y="526.56"/><ellipse cx="76.0532" cy="542.56" fill="#ADD1B2" rx="11" ry="11" style="stroke:#181818;stroke-width:1;"/><path d="M79.022,548.2006 Q78.4438,548.4975 77.8032,548.6381 Q77.1626,548.7944 76.4595,548.7944 Q73.9595,548.7944 72.6313,547.1538 Q71.3188,545.4975 71.3188,542.3725 Q71.3188,539.2475 72.6313,537.5913 Q73.9595,535.935 76.4595,535.935 Q77.1626,535.935 77.8032,536.0913 Q78.4595,536.2475 79.022,536.5444 L79.022,539.2631 Q78.397,538.685 77.8032,538.4194 Q77.2095,538.1381 76.5845,538.1381 Q75.2407,538.1381 74.5532,539.2163 Q73.8657,540.2788 73.8657,542.3725 Q73.8657,544.4663 74.5532,545.5444 Q75.2407,546.6069 76.5845,546.6069 Q77.2095,546.6069 77.8032,546.3413 Q78.397,546.06 79.022,545.4819 L79.022,548.2006 Z " fill="#000000"/><text fill="#000000" font-family="sans-serif" font-size="14" lengthAdjust="spacing" textLength="97.4258" x="96.5532" y="547.4067">ApiRepository</text><line style="stroke:#181818;stroke-width:0.5;" x1="8" x2="250.0322" y1="558.56" y2="558.56"/><rect fill="none" height="6" style="stroke:#C82930;stroke-width:1;" width="6" x="15" y="569.2084"/><text fill="#000000" font-family="sans-serif" font-size="14" lengthAdjust="spacing" textLength="77.0273" x="27" y="575.5551">Key: String</text><rect fill="none" height="6" style="stroke:#C82930;stroke-width:1;" width="6" x="15" y="585.5053"/><text fill="#000000" font-family="sans-serif" font-size="14" lengthAdjust="spacing" textLength="200.6484" x="27" y="591.852">jdbcTemplate: JdbcTemplate</text><rect fill="none" height="6" style="stroke:#C82930;stroke-width:1;" width="6" x="15" y="601.8022"/><text fill="#000000" font-family="sans-serif" font-size="14" lengthAdjust="spacing" textLength="82.8242" x="27" y="608.1489">Host: String</text><line style="stroke:#181818;stroke-width:0.5;" x1="8" x2="250.0322" y1="615.4506" y2="615.4506"/><ellipse cx="18" cy="629.0991" fill="#84BE84" rx="3" ry="3" style="stroke:#038048;stroke-width:1;"/><text fill="#000000" font-family="sans-serif" font-size="14" lengthAdjust="spacing" textLength="208.9268" x="27" y="632.4457">ApiRepository(JdbcTemplate):</text><ellipse cx="18" cy="645.3959" fill="#84BE84" rx="3" ry="3" style="stroke:#038048;stroke-width:1;"/><text fill="#000000" font-family="sans-serif" font-size="14" lengthAdjust="spacing" textLength="171.0215" x="27" y="648.7426">getHotels(String): String</text><ellipse cx="18" cy="661.6928" fill="#84BE84" rx="3" ry="3" style="stroke:#038048;stroke-width:1;"/><text fill="#000000" font-family="sans-serif" font-size="14" lengthAdjust="spacing" textLength="151.4365" x="27" y="665.0395">isAvailable(): boolean</text><rect fill="#F24D5C" height="6" style="stroke:#C82930;stroke-width:1;" width="6" x="15" y="674.9897"/><text fill="#000000" font-family="sans-serif" font-size="14" lengthAdjust="spacing" textLength="218.0322" x="27" y="681.3364">writeToCache(JSONArray): void</text></g><!--class ApiService--><g class="entity" data-entity="ApiService" data-source-line="26" data-uid="ent0005" id="entity_ApiService"><rect fill="#F1F1F1" height="96.8906" rx="2.5" ry="2.5" style="stroke:#181818;stroke-width:0.5;" width="197.0215" x="205.51" y="163.89"/><ellipse cx="262.7234" cy="179.89" fill="#ADD1B2" rx="11" ry="11" style="stroke:#181818;stroke-width:1;"/><path d="M265.6921,185.5306 Q265.114,185.8275 264.4734,185.9681 Q263.8328,186.1244 263.1296,186.1244 Q260.6296,186.1244 259.3015,184.4838 Q257.989,182.8275 257.989,179.7025 Q257.989,176.5775 259.3015,174.9213 Q260.6296,173.265 263.1296,173.265 Q263.8328,173.265 264.4734,173.4213 Q265.1296,173.5775 265.6921,173.8744 L265.6921,176.5931 Q265.0671,176.015 264.4734,175.7494 Q263.8796,175.4681 263.2546,175.4681 Q261.9109,175.4681 261.2234,176.5463 Q260.5359,177.6088 260.5359,179.7025 Q260.5359,181.7963 261.2234,182.8744 Q261.9109,183.9369 263.2546,183.9369 Q263.8796,183.9369 264.4734,183.6713 Q265.0671,183.39 265.6921,182.8119 L265.6921,185.5306 Z " fill="#000000"/><text fill="#000000" font-family="sans-serif" font-size="14" lengthAdjust="spacing" textLength="74.0947" x="283.2234" y="184.7367">ApiService</text><line style="stroke:#181818;stroke-width:0.5;" x1="206.51" x2="401.5315" y1="195.89" y2="195.89"/><rect fill="none" height="6" style="stroke:#C82930;stroke-width:1;" width="6" x="213.51" y="206.5384"/><text fill="#000000" font-family="sans-serif" font-size="14" lengthAdjust="spacing" textLength="163.0576" x="225.51" y="212.8851">apiContext: ApiContext</text><line style="stroke:#181818;stroke-width:0.5;" x1="206.51" x2="401.5315" y1="220.1869" y2="220.1869"/><ellipse cx="216.51" cy="233.8353" fill="#84BE84" rx="3" ry="3" style="stroke:#038048;stroke-width:1;"/><text fill="#000000" font-family="sans-serif" font-size="14" lengthAdjust="spacing" textLength="167.1797" x="225.51" y="237.182">ApiService(ApiContext):</text><ellipse cx="216.51" cy="250.1322" fill="#84BE84" rx="3" ry="3" style="stroke:#038048;stroke-width:1;"/><text fill="#000000" font-family="sans-serif" font-size="14" lengthAdjust="spacing" textLength="171.0215" x="225.51" y="253.4789">getHotels(String): String</text></g><!--class ApiStrategy--><g class="entity" data-entity="ApiStrategy" data-source-line="31" data-uid="ent0006" id="entity_ApiStrategy"><rect fill="#F1F1F1" height="72.5625" rx="2.5" ry="2.5" style="stroke:#181818;stroke-width:0.5;" width="197.0215" x="205.51" y="748.64"/><ellipse cx="258.6013" cy="768.7728" fill="#B4A7E5" rx="11" ry="11" style="stroke:#181818;stroke-width:1;"/><path d="M254.5232,764.5384 L254.5232,762.3822 L261.9138,762.3822 L261.9138,764.5384 L259.4451,764.5384 L259.4451,772.6166 L261.9138,772.6166 L261.9138,774.7728 L254.5232,774.7728 L254.5232,772.6166 L256.9919,772.6166 L256.9919,764.5384 L254.5232,764.5384 Z " fill="#000000"/><text fill="#000000" font-family="sans-serif" font-size="12" font-style="italic" lengthAdjust="spacing" textLength="68.2031" x="286.1692" y="764.7787">&#171;interface&#187;</text><text fill="#000000" font-family="sans-serif" font-size="14" font-style="italic" lengthAdjust="spacing" textLength="82.3389" x="279.1013" y="780.6039">ApiStrategy</text><line style="stroke:#181818;stroke-width:0.5;" x1="206.51" x2="401.5315" y1="788.9056" y2="788.9056"/><line style="stroke:#181818;stroke-width:0.5;" x1="206.51" x2="401.5315" y1="796.9056" y2="796.9056"/><ellipse cx="216.51" cy="810.5541" fill="#84BE84" rx="3" ry="3" style="stroke:#038048;stroke-width:1;"/><text fill="#000000" font-family="sans-serif" font-size="14" lengthAdjust="spacing" textLength="171.0215" x="225.51" y="813.9007">getHotels(String): String</text></g><!--class CacheRepository--><g class="entity" data-entity="CacheRepository" data-source-line="34" data-uid="ent0007" id="entity_CacheRepository"><rect fill="#F1F1F1" height="96.8906" rx="2.5" ry="2.5" style="stroke:#181818;stroke-width:0.5;" width="256.1113" x="356.96" y="559.15"/><ellipse cx="421.4605" cy="575.15" fill="#ADD1B2" rx="11" ry="11" style="stroke:#181818;stroke-width:1;"/><path d="M424.4292,580.7906 Q423.8511,581.0875 423.2105,581.2281 Q422.5699,581.3844 421.8667,581.3844 Q419.3667,581.3844 418.0386,579.7438 Q416.7261,578.0875 416.7261,574.9625 Q416.7261,571.8375 418.0386,570.1813 Q419.3667,568.525 421.8667,568.525 Q422.5699,568.525 423.2105,568.6813 Q423.8667,568.8375 424.4292,569.1344 L424.4292,571.8531 Q423.8042,571.275 423.2105,571.0094 Q422.6167,570.7281 421.9917,570.7281 Q420.648,570.7281 419.9605,571.8063 Q419.273,572.8688 419.273,574.9625 Q419.273,577.0563 419.9605,578.1344 Q420.648,579.1969 421.9917,579.1969 Q422.6167,579.1969 423.2105,578.9313 Q423.8042,578.65 424.4292,578.0719 L424.4292,580.7906 Z " fill="#000000"/><text fill="#000000" font-family="sans-serif" font-size="14" lengthAdjust="spacing" textLength="118.6104" x="441.9605" y="579.9967">CacheRepository</text><line style="stroke:#181818;stroke-width:0.5;" x1="357.96" x2="612.0713" y1="591.15" y2="591.15"/><rect fill="none" height="6" style="stroke:#C82930;stroke-width:1;" width="6" x="364.96" y="601.7984"/><text fill="#000000" font-family="sans-serif" font-size="14" lengthAdjust="spacing" textLength="200.6484" x="376.96" y="608.1451">jdbcTemplate: JdbcTemplate</text><line style="stroke:#181818;stroke-width:0.5;" x1="357.96" x2="612.0713" y1="615.4469" y2="615.4469"/><ellipse cx="367.96" cy="629.0953" fill="#84BE84" rx="3" ry="3" style="stroke:#038048;stroke-width:1;"/><text fill="#000000" font-family="sans-serif" font-size="14" lengthAdjust="spacing" textLength="230.1113" x="376.96" y="632.442">CacheRepository(JdbcTemplate):</text><ellipse cx="367.96" cy="645.3922" fill="#84BE84" rx="3" ry="3" style="stroke:#038048;stroke-width:1;"/><text fill="#000000" font-family="sans-serif" font-size="14" lengthAdjust="spacing" textLength="171.0215" x="376.96" y="648.7389">getHotels(String): String</text></g><!--class ProtoApplication--><g class="entity" data-entity="ProtoApplication" data-source-line="39" data-uid="ent0008" id="entity_ProtoApplication"><rect fill="#F1F1F1" height="80.5938" rx="2.5" ry="2.5" style="stroke:#181818;stroke-width:0.5;" width="163.4023" x="491.31" y="15.15"/><ellipse cx="513.6722" cy="31.15" fill="#ADD1B2" rx="11" ry="11" style="stroke:#181818;stroke-width:1;"/><path d="M516.6409,36.7906 Q516.0628,37.0875 515.4222,37.2281 Q514.7815,37.3844 514.0784,37.3844 Q511.5784,37.3844 510.2503,35.7438 Q508.9378,34.0875 508.9378,30.9625 Q508.9378,27.8375 510.2503,26.1813 Q511.5784,24.525 514.0784,24.525 Q514.7815,24.525 515.4222,24.6813 Q516.0784,24.8375 516.6409,25.1344 L516.6409,27.8531 Q516.0159,27.275 515.4222,27.0094 Q514.8284,26.7281 514.2034,26.7281 Q512.8597,26.7281 512.1722,27.8063 Q511.4847,28.8688 511.4847,30.9625 Q511.4847,33.0563 512.1722,34.1344 Q512.8597,35.1969 514.2034,35.1969 Q514.8284,35.1969 515.4222,34.9313 Q516.0159,34.65 516.6409,34.0719 L516.6409,36.7906 Z " fill="#000000"/><text fill="#000000" font-family="sans-serif" font-size="14" lengthAdjust="spacing" textLength="115.042" x="529.3082" y="35.9967">ProtoApplication</text><line style="stroke:#181818;stroke-width:0.5;" x1="492.31" x2="653.7123" y1="47.15" y2="47.15"/><line style="stroke:#181818;stroke-width:0.5;" x1="492.31" x2="653.7123" y1="55.15" y2="55.15"/><ellipse cx="502.31" cy="68.7984" fill="#84BE84" rx="3" ry="3" style="stroke:#038048;stroke-width:1;"/><text fill="#000000" font-family="sans-serif" font-size="14" lengthAdjust="spacing" textLength="130.6826" x="511.31" y="72.1451">ProtoApplication():</text><ellipse cx="502.31" cy="85.0953" fill="#84BE84" rx="3" ry="3" style="stroke:#038048;stroke-width:1;"/><text fill="#000000" font-family="sans-serif" font-size="14" lengthAdjust="spacing" textLength="137.4023" x="511.31" y="88.442">main(String[]): void</text></g><!--link ApiContext to ApiRepository--><g class="link" data-entity-1="ApiContext" data-entity-2="ApiRepository" data-source-line="44" data-uid="lnk9" id="link_ApiContext_ApiRepository"><path codeLine="44" d="M191.52,478.99 C191.52,498.1 191.52,500.81 191.52,520.3" fill="none" id="ApiContext-ApiRepository" style="stroke:#595959;stroke-width:1;"/><polygon fill="#595959" points="191.52,466.99,187.52,472.99,191.52,478.99,195.52,472.99,191.52,466.99" style="stroke:#595959;stroke-width:1;"/><polygon fill="#595959" points="191.52,526.3,195.52,517.3,191.52,521.3,187.52,517.3,191.52,526.3" style="stroke:#595959;stroke-width:1;"/><text fill="#000000" font-family="sans-serif" font-size="13" lengthAdjust="spacing" textLength="8.271" x="172.7926" y="486.5136">1</text><text fill="#000000" font-family="sans-serif" font-size="13" lengthAdjust="spacing" textLength="89.54" x="104.0333" y="500.4031">apiRepository</text><text fill="#000000" font-family="sans-serif" font-size="13" lengthAdjust="spacing" textLength="8.271" x="144.6678" y="515.5359">1</text></g><!--link ApiContext to ApiStrategy--><g class="link" data-entity-1="ApiContext" data-entity-2="ApiStrategy" data-source-line="45" data-uid="lnk10" id="link_ApiContext_ApiStrategy"><path codeLine="45" d="M304,478.8 C304,562.52 304,678.31 304,742.39" fill="none" id="ApiContext-ApiStrategy" style="stroke:#595959;stroke-width:1;"/><polygon fill="#595959" points="304,466.8,300,472.8,304,478.8,308,472.8,304,466.8" style="stroke:#595959;stroke-width:1;"/><polygon fill="#595959" points="304,748.39,308,739.39,304,743.39,300,739.39,304,748.39" style="stroke:#595959;stroke-width:1;"/><text fill="#000000" font-family="sans-serif" font-size="13" lengthAdjust="spacing" textLength="8.271" x="295.6297" y="486.5582">1</text><text fill="#000000" font-family="sans-serif" font-size="13" lengthAdjust="spacing" textLength="75.5308" x="223.2953" y="722.5865">apiStrategy</text><text fill="#000000" font-family="sans-serif" font-size="13" lengthAdjust="spacing" textLength="8.271" x="256.9252" y="737.7193">1</text></g><!--link ApiContext to CacheRepository--><g class="link" data-entity-1="ApiContext" data-entity-2="CacheRepository" data-source-line="46" data-uid="lnk11" id="link_ApiContext_CacheRepository"><path codeLine="46" d="M416.49,478.99 C416.49,509.35 416.49,525.74 416.49,552.9" fill="none" id="ApiContext-CacheRepository" style="stroke:#595959;stroke-width:1;"/><polygon fill="#595959" points="416.49,466.99,412.49,472.99,416.49,478.99,420.49,472.99,416.49,466.99" style="stroke:#595959;stroke-width:1;"/><polygon fill="#595959" points="416.49,558.9,420.49,549.9,416.49,553.9,412.49,549.9,416.49,558.9" style="stroke:#595959;stroke-width:1;"/><text fill="#000000" font-family="sans-serif" font-size="13" lengthAdjust="spacing" textLength="8.271" x="418.502" y="486.5136">1</text><text fill="#000000" font-family="sans-serif" font-size="13" lengthAdjust="spacing" textLength="108.2085" x="292.8048" y="532.8229">cacheRepository</text><text fill="#000000" font-family="sans-serif" font-size="13" lengthAdjust="spacing" textLength="8.271" x="342.7735" y="547.9558">1</text></g><!--link ApiController to ApiService--><g class="link" data-entity-1="ApiController" data-entity-2="ApiService" data-source-line="47" data-uid="lnk12" id="link_ApiController_ApiService"><path codeLine="47" d="M304.02,116.22 C304.02,135.11 304.02,138.69 304.02,157.58" fill="none" id="ApiController-ApiService" style="stroke:#595959;stroke-width:1;"/><polygon fill="#595959" points="304.02,104.22,300.02,110.22,304.02,116.22,308.02,110.22,304.02,104.22" style="stroke:#595959;stroke-width:1;"/><polygon fill="#595959" points="304.02,163.58,308.02,154.58,304.02,158.58,300.02,154.58,304.02,163.58" style="stroke:#595959;stroke-width:1;"/><text fill="#000000" font-family="sans-serif" font-size="13" lengthAdjust="spacing" textLength="8.271" x="295.5008" y="123.8577">1</text><text fill="#000000" font-family="sans-serif" font-size="13" lengthAdjust="spacing" textLength="67.8755" x="232.7838" y="137.4953">apiService</text><text fill="#000000" font-family="sans-serif" font-size="13" lengthAdjust="spacing" textLength="8.271" x="262.586" y="152.6281">1</text></g><!--link ApiRepository to ApiStrategy--><g class="link" data-entity-1="ApiRepository" data-entity-2="ApiStrategy" data-source-line="48" data-uid="lnk13" id="link_ApiRepository_ApiStrategy"><path codeLine="48" d="M228.27,688.99 C228.27,709.75 228.27,713.04 228.27,730.28" fill="none" id="ApiRepository-to-ApiStrategy" style="stroke:#008200;stroke-width:1;stroke-dasharray:7.0,7.0;"/><polygon fill="none" points="228.27,748.28,234.27,730.28,222.27,730.28,228.27,748.28" style="stroke:#008200;stroke-width:1;"/></g><!--link ApiService to ApiContext--><g class="link" data-entity-1="ApiService" data-entity-2="ApiContext" data-source-line="49" data-uid="lnk14" id="link_ApiService_ApiContext"><path codeLine="49" d="M304.02,272.93 C304.02,291.18 304.02,294.36 304.02,314.37" fill="none" id="ApiService-ApiContext" style="stroke:#595959;stroke-width:1;"/><polygon fill="#595959" points="304.02,260.93,300.02,266.93,304.02,272.93,308.02,266.93,304.02,260.93" style="stroke:#595959;stroke-width:1;"/><polygon fill="#595959" points="304.02,320.37,308.02,311.37,304.02,315.37,300.02,311.37,304.02,320.37" style="stroke:#595959;stroke-width:1;"/><text fill="#000000" font-family="sans-serif" font-size="13" lengthAdjust="spacing" textLength="8.271" x="295.4765" y="280.8945">1</text><text fill="#000000" font-family="sans-serif" font-size="13" lengthAdjust="spacing" textLength="70.9858" x="230.9466" y="294.5844">apiContext</text><text fill="#000000" font-family="sans-serif" font-size="13" lengthAdjust="spacing" textLength="8.271" x="262.3041" y="309.7173">1</text></g><!--link CacheRepository to ApiStrategy--><g class="link" data-entity-1="CacheRepository" data-entity-2="ApiStrategy" data-source-line="50" data-uid="lnk15" id="link_CacheRepository_ApiStrategy"><path codeLine="50" d="M379.74,656.52 C379.74,685.53 379.74,703.7 379.74,730.25" fill="none" id="CacheRepository-to-ApiStrategy" style="stroke:#008200;stroke-width:1;stroke-dasharray:7.0,7.0;"/><polygon fill="none" points="379.74,748.25,385.74,730.25,373.74,730.25,379.74,748.25" style="stroke:#008200;stroke-width:1;"/></g><!--SRC=[bLJTYnen47_VlsBmNhPLmHOAhOYm78NZ2csvkxUhXRXEDMtCX6ImbNB_U-DkrYHRqRlrPNS-VX-JYKm6c619pBI5bRHOioHTk5zI6s755fJKo7k3G9OtL1Ir4iv1PUGrQSO_37yBW64IAAz5lS4xDEGaazsF3hdu-MeAlc4CTLurXLvRKoICl6Sh6DU-e8eVNJBjprWQJMla6s9KhlHzKgyzTVlIj3la3gvCe7tHZkIgUCgTMb8ARMwsZJNDQ7UoniwRE4PQrUrxqxhf2Rf3PqWx_AXPydxMnkSfUpGLsMEil5qjwmVS6kNLT_oVS9zP_PdKJ27jQD8tv3YfFp-u8KXNxOHKOgcmz9abaKAX6wJVLZ8-K7EKvUtzby-LjUBKICD8egCGAECU9SCCaMcoPHTqFXNIbzaVmdCaXmkp6SJ4V1xup-6qadlB6VfwqPDdSNRspw7-QecfCaR9MXpkPk3kXykMS0XR8NK0Urp4qHV9bMsVmPi1l1u_NhtxSFYDl2Qf5-Cv3BABzKtxidmD_VCoj6xy7TRnEE25MBq_ZGQlVpH7l71bBsbh5-yeBIncb9OR1mypcRn_EvcCLi9jSBKOVuVJddAeSng2-qv3FepYFuCNDVm3]--></g></svg>