<svg xmlns="http://www.w3.org/2000/svg" xmlns:xlink="http://www.w3.org/1999/xlink" contentStyleType="text/css" data-diagram-type="SEQUENCE" height="722px" preserveAspectRatio="none" style="width:1827px;height:722px;background:#FFFFFF;" version="1.1" viewBox="0 0 1827 722" width="1827px" zoomAndPan="magnify"><defs/><g><rect fill="none" height="116.2031" style="stroke:#000000;stroke-width:1.5;" width="270.5024" x="436.0073" y="214.8281"/><rect fill="none" height="250.8672" style="stroke:#000000;stroke-width:1.5;" width="1178.7847" x="641.481" y="374.1641"/><rect fill="none" height="46.2656" style="stroke:#000000;stroke-width:1.5;" width="550.145" x="793.9741" y="498.6953"/><g><title>Reiziger</title><rect fill="#000000" fill-opacity="0.00000" height="560.7344" width="8" x="32.3623" y="81.2969"/><line style="stroke:#181818;stroke-width:0.5;stroke-dasharray:5.0,5.0;" x1="36" x2="36" y1="81.2969" y2="642.0313"/></g><g><title>apiController:</title><rect fill="#000000" fill-opacity="0.00000" height="560.7344" width="8" x="169.5156" y="81.2969"/><line style="stroke:#181818;stroke-width:0.5;stroke-dasharray:5.0,5.0;" x1="172.8931" x2="172.8931" y1="81.2969" y2="642.0313"/></g><g><title>apiService:</title><rect fill="#000000" fill-opacity="0.00000" height="560.7344" width="8" x="329.5522" y="81.2969"/><line style="stroke:#181818;stroke-width:0.5;stroke-dasharray:5.0,5.0;" x1="332.6455" x2="332.6455" y1="81.2969" y2="642.0313"/></g><g><title>apiContext:</title><rect fill="#000000" fill-opacity="0.00000" height="560.7344" width="8" x="489.5889" y="81.2969"/><line style="stroke:#181818;stroke-width:0.5;stroke-dasharray:5.0,5.0;" x1="493.0073" x2="493.0073" y1="81.2969" y2="642.0313"/></g><g><title>&lt;&lt;interface&gt;&gt;</title><rect fill="#000000" fill-opacity="0.00000" height="560.7344" width="8" x="697.5098" y="81.2969"/><line style="stroke:#181818;stroke-width:0.5;stroke-dasharray:5.0,5.0;" x1="701.481" x2="701.481" y1="81.2969" y2="642.0313"/></g><g><title>apiRepository:</title><rect fill="#000000" fill-opacity="0.00000" height="560.7344" width="8" x="857.5464" y="81.2969"/><line style="stroke:#181818;stroke-width:0.5;stroke-dasharray:5.0,5.0;" x1="860.9741" x2="860.9741" y1="81.2969" y2="642.0313"/></g><g><title>cacheRepository:</title><rect fill="#000000" fill-opacity="0.00000" height="560.7344" width="8" x="1262.4946" y="81.2969"/><line style="stroke:#181818;stroke-width:0.5;stroke-dasharray:5.0,5.0;" x1="1265.8701" x2="1265.8701" y1="81.2969" y2="642.0313"/></g><g><title>CachedStore</title><rect fill="#000000" fill-opacity="0.00000" height="560.7344" width="8" x="1680.0747" y="81.2969"/><line style="stroke:#181818;stroke-width:0.5;stroke-dasharray:5.0,5.0;" x1="1683.207" x2="1683.207" y1="81.2969" y2="642.0313"/></g><g><title>RapidApi</title><rect fill="#000000" fill-opacity="0.00000" height="560.7344" width="8" x="1772.104" y="81.2969"/><line style="stroke:#181818;stroke-width:0.5;stroke-dasharray:5.0,5.0;" x1="1775.9424" x2="1775.9424" y1="81.2969" y2="642.0313"/></g><g class="participant participant-head" data-participant="user"><text fill="#000000" font-family="sans-serif" font-size="14" lengthAdjust="spacing" textLength="56.7246" x="5" y="77.9951">Reiziger</text><ellipse cx="36.3623" cy="13.5" fill="#E2E2F0" rx="8" ry="8" style="stroke:#181818;stroke-width:0.5;"/><path d="M36.3623,21.5 L36.3623,48.5 M23.3623,29.5 L49.3623,29.5 M36.3623,48.5 L23.3623,63.5 M36.3623,48.5 L49.3623,63.5" fill="none" style="stroke:#181818;stroke-width:0.5;"/></g><g class="participant participant-tail" data-participant="user"><text fill="#000000" font-family="sans-serif" font-size="14" lengthAdjust="spacing" textLength="56.7246" x="5" y="654.0264">Reiziger</text><ellipse cx="36.3623" cy="665.8281" fill="#E2E2F0" rx="8" ry="8" style="stroke:#181818;stroke-width:0.5;"/><path d="M36.3623,673.8281 L36.3623,700.8281 M23.3623,681.8281 L49.3623,681.8281 M36.3623,700.8281 L23.3623,715.8281 M36.3623,700.8281 L49.3623,715.8281" fill="none" style="stroke:#181818;stroke-width:0.5;"/></g><g class="participant participant-head" data-participant="controller"><rect fill="#E2E2F0" height="46.5938" rx="2.5" ry="2.5" style="stroke:#181818;stroke-width:0.5;" width="109.2451" x="118.8931" y="33.7031"/><text fill="#000000" font-family="sans-serif" font-size="14" lengthAdjust="spacing" textLength="95.2451" x="125.8931" y="53.6982">apiController:</text><text fill="#000000" font-family="sans-serif" font-size="14" lengthAdjust="spacing" textLength="91.5264" x="127.7524" y="69.9951">ApiController</text></g><g class="participant participant-tail" data-participant="controller"><rect fill="#E2E2F0" height="46.5938" rx="2.5" ry="2.5" style="stroke:#181818;stroke-width:0.5;" width="109.2451" x="118.8931" y="641.0313"/><text fill="#000000" font-family="sans-serif" font-size="14" lengthAdjust="spacing" textLength="95.2451" x="125.8931" y="661.0264">apiController:</text><text fill="#000000" font-family="sans-serif" font-size="14" lengthAdjust="spacing" textLength="91.5264" x="127.7524" y="677.3232">ApiController</text></g><g class="participant participant-head" data-participant="service"><rect fill="#E2E2F0" height="46.5938" rx="2.5" ry="2.5" style="stroke:#181818;stroke-width:0.5;" width="91.8135" x="287.6455" y="33.7031"/><text fill="#000000" font-family="sans-serif" font-size="14" lengthAdjust="spacing" textLength="77.8135" x="294.6455" y="53.6982">apiService:</text><text fill="#000000" font-family="sans-serif" font-size="14" lengthAdjust="spacing" textLength="74.0947" x="296.5049" y="69.9951">ApiService</text></g><g class="participant participant-tail" data-participant="service"><rect fill="#E2E2F0" height="46.5938" rx="2.5" ry="2.5" style="stroke:#181818;stroke-width:0.5;" width="91.8135" x="287.6455" y="641.0313"/><text fill="#000000" font-family="sans-serif" font-size="14" lengthAdjust="spacing" textLength="77.8135" x="294.6455" y="661.0264">apiService:</text><text fill="#000000" font-family="sans-serif" font-size="14" lengthAdjust="spacing" textLength="74.0947" x="296.5049" y="677.3232">ApiService</text></g><g class="participant participant-head" data-participant="context"><rect fill="#E2E2F0" height="46.5938" rx="2.5" ry="2.5" style="stroke:#181818;stroke-width:0.5;" width="95.1631" x="446.0073" y="33.7031"/><text fill="#000000" font-family="sans-serif" font-size="14" lengthAdjust="spacing" textLength="81.1631" x="453.0073" y="53.6982">apiContext:</text><text fill="#000000" font-family="sans-serif" font-size="14" lengthAdjust="spacing" textLength="77.4443" x="454.8667" y="69.9951">ApiContext</text></g><g class="participant participant-tail" data-participant="context"><rect fill="#E2E2F0" height="46.5938" rx="2.5" ry="2.5" style="stroke:#181818;stroke-width:0.5;" width="95.1631" x="446.0073" y="641.0313"/><text fill="#000000" font-family="sans-serif" font-size="14" lengthAdjust="spacing" textLength="81.1631" x="453.0073" y="661.0264">apiContext:</text><text fill="#000000" font-family="sans-serif" font-size="14" lengthAdjust="spacing" textLength="77.4443" x="454.8667" y="677.3232">ApiContext</text></g><g class="participant participant-head" data-participant="strategy"><rect fill="#E2E2F0" height="62.8906" rx="2.5" ry="2.5" style="stroke:#181818;stroke-width:0.5;" width="100.0576" x="651.481" y="17.4063"/><text fill="#000000" font-family="sans-serif" font-size="14" lengthAdjust="spacing" textLength="79.5703" x="661.7246" y="37.4014">&#171;interface&#187;</text><text fill="#000000" font-family="sans-serif" font-size="14" lengthAdjust="spacing" textLength="86.0576" x="658.481" y="53.6982">apiStrategy:</text><text fill="#000000" font-family="sans-serif" font-size="14" lengthAdjust="spacing" textLength="82.3389" x="660.3403" y="69.9951">ApiStrategy</text></g><g class="participant participant-tail" data-participant="strategy"><rect fill="#E2E2F0" height="62.8906" rx="2.5" ry="2.5" style="stroke:#181818;stroke-width:0.5;" width="100.0576" x="651.481" y="641.0313"/><text fill="#000000" font-family="sans-serif" font-size="14" lengthAdjust="spacing" textLength="79.5703" x="661.7246" y="661.0264">&#171;interface&#187;</text><text fill="#000000" font-family="sans-serif" font-size="14" lengthAdjust="spacing" textLength="86.0576" x="658.481" y="677.3232">apiStrategy:</text><text fill="#000000" font-family="sans-serif" font-size="14" lengthAdjust="spacing" textLength="82.3389" x="660.3403" y="693.6201">ApiStrategy</text></g><g class="participant participant-head" data-participant="api"><rect fill="#E2E2F0" height="46.5938" rx="2.5" ry="2.5" style="stroke:#181818;stroke-width:0.5;" width="115.1445" x="803.9741" y="33.7031"/><text fill="#000000" font-family="sans-serif" font-size="14" lengthAdjust="spacing" textLength="101.1445" x="810.9741" y="53.6982">apiRepository:</text><text fill="#000000" font-family="sans-serif" font-size="14" lengthAdjust="spacing" textLength="97.4258" x="812.8335" y="69.9951">ApiRepository</text></g><g class="participant participant-tail" data-participant="api"><rect fill="#E2E2F0" height="46.5938" rx="2.5" ry="2.5" style="stroke:#181818;stroke-width:0.5;" width="115.1445" x="803.9741" y="641.0313"/><text fill="#000000" font-family="sans-serif" font-size="14" lengthAdjust="spacing" textLength="101.1445" x="810.9741" y="661.0264">apiRepository:</text><text fill="#000000" font-family="sans-serif" font-size="14" lengthAdjust="spacing" textLength="97.4258" x="812.8335" y="677.3232">ApiRepository</text></g><g class="participant participant-head" data-participant="cache"><rect fill="#E2E2F0" height="46.5938" rx="2.5" ry="2.5" style="stroke:#181818;stroke-width:0.5;" width="135.249" x="1198.8701" y="33.7031"/><text fill="#000000" font-family="sans-serif" font-size="14" lengthAdjust="spacing" textLength="121.249" x="1205.8701" y="53.6982">cacheRepository:</text><text fill="#000000" font-family="sans-serif" font-size="14" lengthAdjust="spacing" textLength="118.6104" x="1207.1895" y="69.9951">CacheRepository</text></g><g class="participant participant-tail" data-participant="cache"><rect fill="#E2E2F0" height="46.5938" rx="2.5" ry="2.5" style="stroke:#181818;stroke-width:0.5;" width="135.249" x="1198.8701" y="641.0313"/><text fill="#000000" font-family="sans-serif" font-size="14" lengthAdjust="spacing" textLength="121.249" x="1205.8701" y="661.0264">cacheRepository:</text><text fill="#000000" font-family="sans-serif" font-size="14" lengthAdjust="spacing" textLength="118.6104" x="1207.1895" y="677.3232">CacheRepository</text></g><g class="participant participant-head" data-participant="CachedStore"><text fill="#000000" font-family="sans-serif" font-size="14" lengthAdjust="spacing" textLength="89.7354" x="1636.207" y="77.9951">CachedStore</text><path d="M1666.0747,29 C1666.0747,19 1684.0747,19 1684.0747,19 C1684.0747,19 1702.0747,19 1702.0747,29 L1702.0747,55 C1702.0747,65 1684.0747,65 1684.0747,65 C1684.0747,65 1666.0747,65 1666.0747,55 L1666.0747,29" fill="#E2E2F0" style="stroke:#181818;stroke-width:1.5;"/><path d="M1666.0747,29 C1666.0747,39 1684.0747,39 1684.0747,39 C1684.0747,39 1702.0747,39 1702.0747,29" fill="none" style="stroke:#181818;stroke-width:1.5;"/></g><g class="participant participant-tail" data-participant="CachedStore"><text fill="#000000" font-family="sans-serif" font-size="14" lengthAdjust="spacing" textLength="89.7354" x="1636.207" y="654.0264">CachedStore</text><path d="M1666.0747,667.3281 C1666.0747,657.3281 1684.0747,657.3281 1684.0747,657.3281 C1684.0747,657.3281 1702.0747,657.3281 1702.0747,667.3281 L1702.0747,693.3281 C1702.0747,703.3281 1684.0747,703.3281 1684.0747,703.3281 C1684.0747,703.3281 1666.0747,703.3281 1666.0747,693.3281 L1666.0747,667.3281" fill="#E2E2F0" style="stroke:#181818;stroke-width:1.5;"/><path d="M1666.0747,667.3281 C1666.0747,677.3281 1684.0747,677.3281 1684.0747,677.3281 C1684.0747,677.3281 1702.0747,677.3281 1702.0747,667.3281" fill="none" style="stroke:#181818;stroke-width:1.5;"/></g><g class="participant participant-head" data-participant="RapidApi"><text fill="#000000" font-family="sans-serif" font-size="14" lengthAdjust="spacing" textLength="62.3232" x="1741.9424" y="77.9951">RapidApi</text><path d="M1758.104,29 C1758.104,19 1776.104,19 1776.104,19 C1776.104,19 1794.104,19 1794.104,29 L1794.104,55 C1794.104,65 1776.104,65 1776.104,65 C1776.104,65 1758.104,65 1758.104,55 L1758.104,29" fill="#E2E2F0" style="stroke:#181818;stroke-width:1.5;"/><path d="M1758.104,29 C1758.104,39 1776.104,39 1776.104,39 C1776.104,39 1794.104,39 1794.104,29" fill="none" style="stroke:#181818;stroke-width:1.5;"/></g><g class="participant participant-tail" data-participant="RapidApi"><text fill="#000000" font-family="sans-serif" font-size="14" lengthAdjust="spacing" textLength="62.3232" x="1741.9424" y="654.0264">RapidApi</text><path d="M1758.104,667.3281 C1758.104,657.3281 1776.104,657.3281 1776.104,657.3281 C1776.104,657.3281 1794.104,657.3281 1794.104,667.3281 L1794.104,693.3281 C1794.104,703.3281 1776.104,703.3281 1776.104,703.3281 C1776.104,703.3281 1758.104,703.3281 1758.104,693.3281 L1758.104,667.3281" fill="#E2E2F0" style="stroke:#181818;stroke-width:1.5;"/><path d="M1758.104,667.3281 C1758.104,677.3281 1776.104,677.3281 1776.104,677.3281 C1776.104,677.3281 1794.104,677.3281 1794.104,667.3281" fill="none" style="stroke:#181818;stroke-width:1.5;"/></g><g class="message" data-participant-1="user" data-participant-2="controller"><polygon fill="#181818" points="161.5156,108.4297,171.5156,112.4297,161.5156,116.4297,165.5156,112.4297" style="stroke:#181818;stroke-width:1;"/><line style="stroke:#181818;stroke-width:1;" x1="36.3623" x2="167.5156" y1="112.4297" y2="112.4297"/><text fill="#000000" font-family="sans-serif" font-size="13" lengthAdjust="spacing" textLength="113.1533" x="43.3623" y="107.3638">hotels("Arnhem")</text></g><g class="message" data-participant-1="controller" data-participant-2="service"><polygon fill="#181818" points="321.5522,137.5625,331.5522,141.5625,321.5522,145.5625,325.5522,141.5625" style="stroke:#181818;stroke-width:1;"/><line style="stroke:#181818;stroke-width:1;" x1="173.5156" x2="327.5522" y1="141.5625" y2="141.5625"/><text fill="#000000" font-family="sans-serif" font-size="13" lengthAdjust="spacing" textLength="136.0366" x="180.5156" y="136.4966">getHotels("Arnhem")</text></g><g class="message" data-participant-1="service" data-participant-2="context"><polygon fill="#181818" points="481.5889,166.6953,491.5889,170.6953,481.5889,174.6953,485.5889,170.6953" style="stroke:#181818;stroke-width:1;"/><line style="stroke:#181818;stroke-width:1;" x1="333.5522" x2="487.5889" y1="170.6953" y2="170.6953"/><text fill="#000000" font-family="sans-serif" font-size="13" lengthAdjust="spacing" textLength="136.0366" x="340.5522" y="165.6294">getHotels("Arnhem")</text></g><g class="message" data-participant-1="context" data-participant-2="api"><polygon fill="#181818" points="849.5464,195.8281,859.5464,199.8281,849.5464,203.8281,853.5464,199.8281" style="stroke:#181818;stroke-width:1;"/><line style="stroke:#181818;stroke-width:1;" x1="493.5889" x2="855.5464" y1="199.8281" y2="199.8281"/><text fill="#000000" font-family="sans-serif" font-size="13" lengthAdjust="spacing" textLength="157.9678" x="500.5889" y="194.7622">available = isAvailable()</text></g><path d="M436.0073,214.8281 L500.4502,214.8281 L500.4502,221.9609 L490.4502,231.9609 L436.0073,231.9609 L436.0073,214.8281" fill="#EEEEEE" style="stroke:#000000;stroke-width:1.5;"/><rect fill="none" height="116.2031" style="stroke:#000000;stroke-width:1.5;" width="270.5024" x="436.0073" y="214.8281"/><text fill="#000000" font-family="sans-serif" font-size="13" font-weight="bold" lengthAdjust="spacing" textLength="19.4429" x="451.0073" y="227.895">alt</text><text fill="#000000" font-family="sans-serif" font-size="11" font-weight="bold" lengthAdjust="spacing" textLength="118.207" x="515.4502" y="227.0386">[available == true]</text><g class="message" data-participant-1="context" data-participant-2="context"><line style="stroke:#181818;stroke-width:1;" x1="493.5889" x2="535.5889" y1="253.0938" y2="253.0938"/><line style="stroke:#181818;stroke-width:1;" x1="535.5889" x2="535.5889" y1="253.0938" y2="266.0938"/><line style="stroke:#181818;stroke-width:1;" x1="494.5889" x2="535.5889" y1="266.0938" y2="266.0938"/><polygon fill="#181818" points="504.5889,262.0938,494.5889,266.0938,504.5889,270.0938,500.5889,266.0938" style="stroke:#181818;stroke-width:1;"/><text fill="#000000" font-family="sans-serif" font-size="13" lengthAdjust="spacing" textLength="175.2524" x="500.5889" y="248.0278">setStrategy(apiRepository)</text></g><line style="stroke:#000000;stroke-width:1;stroke-dasharray:2.0,2.0;" x1="436.0073" x2="706.5098" y1="275.0938" y2="275.0938"/><text fill="#000000" font-family="sans-serif" font-size="11" font-weight="bold" lengthAdjust="spacing" textLength="122.2192" x="441.0073" y="285.3042">[available == false]</text><g class="message" data-participant-1="context" data-participant-2="context"><line style="stroke:#181818;stroke-width:1;" x1="493.5889" x2="535.5889" y1="310.0313" y2="310.0313"/><line style="stroke:#181818;stroke-width:1;" x1="535.5889" x2="535.5889" y1="310.0313" y2="323.0313"/><line style="stroke:#181818;stroke-width:1;" x1="494.5889" x2="535.5889" y1="323.0313" y2="323.0313"/><polygon fill="#181818" points="504.5889,319.0313,494.5889,323.0313,504.5889,327.0313,500.5889,323.0313" style="stroke:#181818;stroke-width:1;"/><text fill="#000000" font-family="sans-serif" font-size="13" lengthAdjust="spacing" textLength="193.9209" x="500.5889" y="304.9653">setStrategy(cacheRepository)</text></g><g class="message" data-participant-1="context" data-participant-2="strategy"><polygon fill="#181818" points="689.5098,355.1641,699.5098,359.1641,689.5098,363.1641,693.5098,359.1641" style="stroke:#181818;stroke-width:1;"/><line style="stroke:#181818;stroke-width:1;" x1="493.5889" x2="695.5098" y1="359.1641" y2="359.1641"/><text fill="#000000" font-family="sans-serif" font-size="13" lengthAdjust="spacing" textLength="136.0366" x="500.5889" y="354.0981">getHotels("Arnhem")</text></g><path d="M641.481,374.1641 L705.9238,374.1641 L705.9238,381.2969 L695.9238,391.2969 L641.481,391.2969 L641.481,374.1641" fill="#EEEEEE" style="stroke:#000000;stroke-width:1.5;"/><rect fill="none" height="250.8672" style="stroke:#000000;stroke-width:1.5;" width="1178.7847" x="641.481" y="374.1641"/><text fill="#000000" font-family="sans-serif" font-size="13" font-weight="bold" lengthAdjust="spacing" textLength="19.4429" x="656.481" y="387.231">alt</text><text fill="#000000" font-family="sans-serif" font-size="11" font-weight="bold" lengthAdjust="spacing" textLength="153.5005" x="720.9238" y="386.3745">[RapidApi was available]</text><g class="message" data-participant-1="strategy" data-participant-2="api"><polygon fill="#181818" points="849.5464,408.4297,859.5464,412.4297,849.5464,416.4297,853.5464,412.4297" style="stroke:#181818;stroke-width:1;"/><line style="stroke:#181818;stroke-width:1;" x1="701.5098" x2="855.5464" y1="412.4297" y2="412.4297"/><text fill="#000000" font-family="sans-serif" font-size="13" lengthAdjust="spacing" textLength="136.0366" x="708.5098" y="407.3638">getHotels("Arnhem")</text></g><g class="message" data-participant-1="api" data-participant-2="RapidApi"><polygon fill="#181818" points="1764.104,437.5625,1774.104,441.5625,1764.104,445.5625,1768.104,441.5625" style="stroke:#181818;stroke-width:1;"/><line style="stroke:#181818;stroke-width:1;" x1="861.5464" x2="1770.104" y1="441.5625" y2="441.5625"/><text fill="#000000" font-family="sans-serif" font-size="13" lengthAdjust="spacing" textLength="470.7422" x="868.5464" y="436.4966">hotels = Unirest.get("/api/v1/hotels/searchDestination?query=Arnhem")</text></g><g class="message" data-participant-1="api" data-participant-2="api"><line style="stroke:#181818;stroke-width:1;" x1="861.5464" x2="903.5464" y1="470.6953" y2="470.6953"/><line style="stroke:#181818;stroke-width:1;" x1="903.5464" x2="903.5464" y1="470.6953" y2="483.6953"/><line style="stroke:#181818;stroke-width:1;" x1="862.5464" x2="903.5464" y1="483.6953" y2="483.6953"/><polygon fill="#181818" points="872.5464,479.6953,862.5464,483.6953,872.5464,487.6953,868.5464,483.6953" style="stroke:#181818;stroke-width:1;"/><text fill="#000000" font-family="sans-serif" font-size="13" lengthAdjust="spacing" textLength="141.0449" x="868.5464" y="465.6294">WriteToCache(hotels)</text></g><path d="M793.9741,498.6953 L870.5981,498.6953 L870.5981,505.8281 L860.5981,515.8281 L793.9741,515.8281 L793.9741,498.6953" fill="#EEEEEE" style="stroke:#000000;stroke-width:1.5;"/><rect fill="none" height="46.2656" style="stroke:#000000;stroke-width:1.5;" width="550.145" x="793.9741" y="498.6953"/><text fill="#000000" font-family="sans-serif" font-size="13" font-weight="bold" lengthAdjust="spacing" textLength="31.624" x="808.9741" y="511.7622">loop</text><text fill="#000000" font-family="sans-serif" font-size="11" font-weight="bold" lengthAdjust="spacing" textLength="25.5234" x="885.5981" y="510.9058">[For</text><text fill="#000000" font-family="sans-serif" font-size="11" font-style="italic" font-weight="bold" lengthAdjust="spacing" textLength="7.8311" x="914.9512" y="510.9058">n</text><text fill="#000000" font-family="sans-serif" font-size="11" font-weight="bold" lengthAdjust="spacing" textLength="43.4521" x="926.6118" y="510.9058">hotels]</text><g class="message" data-participant-1="api" data-participant-2="cache"><polygon fill="#181818" points="1254.4946,532.9609,1264.4946,536.9609,1254.4946,540.9609,1258.4946,536.9609" style="stroke:#181818;stroke-width:1;"/><line style="stroke:#181818;stroke-width:1;" x1="861.5464" x2="1260.4946" y1="536.9609" y2="536.9609"/><text fill="#000000" font-family="sans-serif" font-size="13" lengthAdjust="spacing" textLength="380.9482" x="868.5464" y="531.895">jdbcTemplate.update("INSERT INTO hotel(...) VALUES(...)")</text></g><line style="stroke:#000000;stroke-width:1;stroke-dasharray:2.0,2.0;" x1="641.481" x2="1820.2656" y1="552.9609" y2="552.9609"/><text fill="#000000" font-family="sans-serif" font-size="11" font-weight="bold" lengthAdjust="spacing" textLength="177.9766" x="646.481" y="563.1714">[RapidApi was not available]</text><g class="message" data-participant-1="strategy" data-participant-2="cache"><polygon fill="#181818" points="1254.4946,583.8984,1264.4946,587.8984,1254.4946,591.8984,1258.4946,587.8984" style="stroke:#181818;stroke-width:1;"/><line style="stroke:#181818;stroke-width:1;" x1="701.5098" x2="1260.4946" y1="587.8984" y2="587.8984"/><text fill="#000000" font-family="sans-serif" font-size="13" lengthAdjust="spacing" textLength="136.0366" x="708.5098" y="582.8325">getHotels("Arnhem")</text></g><g class="message" data-participant-1="cache" data-participant-2="CachedStore"><polygon fill="#181818" points="1672.0747,613.0313,1682.0747,617.0313,1672.0747,621.0313,1676.0747,617.0313" style="stroke:#181818;stroke-width:1;"/><line style="stroke:#181818;stroke-width:1;" x1="1266.4946" x2="1678.0747" y1="617.0313" y2="617.0313"/><text fill="#000000" font-family="sans-serif" font-size="13" lengthAdjust="spacing" textLength="393.5801" x="1273.4946" y="611.9653">hotels = jdbcTemplate.queryForList("SELECT * FROM hotel")</text></g><!--SRC=[ZLD1Rjim4Bpp5GkTv0ALaAiGkp1S1mdW982aj9TSQ6bZir18XQJT9A_lag9iAL6BwiJbxCmiXnIlhDAGetWNEzJ03HmCQiPQhgseHCkbXOYtOgMarQffK6UFSZci8qUgJkKdPe7wA2hiQA7m7DEj9wtmrPvzg3YPq7fCkBmKjAkVU8MBnQDqXbPpYxktu1YgpZ8KdpnpR9KH54LWdMlFeuunfUBL7aUarNYd6zZjCLPpoxVS8FYUkY0SpvivYTTaoPXB7huk1c5ci5SM6nD7Iott-1pD63kZhZU4cC4ExVN7tW3scYxKoRu0kZuQ9WD-vABXsmPX3i8i-ogUCTxO8Je7gm_8WBw1nidBeEtZZqSXpnWDW6Eb9qvR_oNr8NmIa_Nm3FqjJn_M7Q7F77wxo-sdyEOz-HJ6b8Ph9D3rz5BzLL5a3r9eD3OXPXobXAV7YxH3KuDSL_ll10l9hL3osyi1zTjyIjhR_zJ2OgdyquaxaQwfKQg5A_fvqrIcQN3to432HvN1htfRbVZSDdIqvD3IsyCukhahrda9DtVbVSUEaoIPmO_bvc5T-7KOnyNhxsiKcrJs7z45ux-5vs7ND_Wb1WcEvlK1qK4tmb2UnNgpNfNm1Qxo-zkE4VaNy0S0]--></g></svg>