<svg xmlns="http://www.w3.org/2000/svg" xmlns:xlink="http://www.w3.org/1999/xlink" contentStyleType="text/css" data-diagram-type="CLASS" height="719px" preserveAspectRatio="none" style="width:629px;height:719px;background:#FFFFFF;" version="1.1" viewBox="0 0 629 719" width="629px" zoomAndPan="magnify"><defs/><g><!--class ApiContext--><g class="entity" data-entity="ApiContext" data-source-line="5" data-uid="ent0002" id="entity_ApiContext"><rect fill="#FFFFFF" height="109.1875" rx="2.5" ry="2.5" style="stroke:#000000;stroke-width:1;" width="237.4385" x="383.34" y="317.78"/><ellipse cx="459.5871" cy="331.78" fill="#FFFFFF" rx="9" ry="9" style="stroke:#000000;stroke-width:1;"/><path d="M462.5558,337.4206 Q461.9777,337.7175 461.3371,337.8581 Q460.6964,338.0144 459.9933,338.0144 Q457.4933,338.0144 456.1652,336.3738 Q454.8527,334.7175 454.8527,331.5925 Q454.8527,328.4675 456.1652,326.8113 Q457.4933,325.155 459.9933,325.155 Q460.6964,325.155 461.3371,325.3113 Q461.9933,325.4675 462.5558,325.7644 L462.5558,328.4831 Q461.9308,327.905 461.3371,327.6394 Q460.7433,327.3581 460.1183,327.3581 Q458.7746,327.3581 458.0871,328.4363 Q457.3996,329.4988 457.3996,331.5925 Q457.3996,333.6863 458.0871,334.7644 Q458.7746,335.8269 460.1183,335.8269 Q460.7433,335.8269 461.3371,335.5613 Q461.9308,335.28 462.5558,334.7019 L462.5558,337.4206 Z " fill="#000000"/><text fill="#000000" font-family="Verdana" font-size="14" lengthAdjust="spacing" textLength="77.4443" x="477.0871" y="336.6267">ApiContext</text><line style="stroke:#000000;stroke-width:1;" x1="384.34" x2="619.7785" y1="345.78" y2="345.78"/><rect fill="none" height="6" style="stroke:#000000;stroke-width:1;" width="6" x="391.34" y="356.4284"/><text fill="#000000" font-family="Verdana" font-size="14" lengthAdjust="spacing" textLength="172.8467" x="401.34" y="362.7751">apiStrategy: ApiStrategy</text><line style="stroke:#000000;stroke-width:1;" x1="384.34" x2="619.7785" y1="370.0769" y2="370.0769"/><ellipse cx="394.34" cy="383.7253" fill="#FFFFFF" rx="3" ry="3" style="stroke:#000000;stroke-width:1;"/><text fill="#000000" font-family="Verdana" font-size="14" lengthAdjust="spacing" textLength="175.4238" x="401.34" y="387.072">ApiContext(ApiStrategy):</text><rect fill="#FFFFFF" height="6" style="stroke:#000000;stroke-width:1;" width="6" x="391.34" y="397.0222"/><text fill="#000000" font-family="Verdana" font-size="14" lengthAdjust="spacing" textLength="213.4385" x="401.34" y="403.3689">setStrategy(ApiStrategy): void</text><ellipse cx="394.34" cy="416.3191" fill="#FFFFFF" rx="3" ry="3" style="stroke:#000000;stroke-width:1;"/><text fill="#000000" font-family="Verdana" font-size="14" lengthAdjust="spacing" textLength="84.8613" x="401.34" y="419.6657">get(): String</text></g><!--class ApiController--><g class="entity" data-entity="ApiController" data-source-line="11" data-uid="ent0003" id="entity_ApiController"><rect fill="#FFFFFF" height="92.8906" rx="2.5" ry="2.5" style="stroke:#000000;stroke-width:1;" width="240.1318" x="381.99" y="12"/><ellipse cx="452.5427" cy="26" fill="#FFFFFF" rx="9" ry="9" style="stroke:#000000;stroke-width:1;"/><path d="M455.5115,31.6406 Q454.9334,31.9375 454.2927,32.0781 Q453.6521,32.2344 452.949,32.2344 Q450.449,32.2344 449.1209,30.5938 Q447.8084,28.9375 447.8084,25.8125 Q447.8084,22.6875 449.1209,21.0313 Q450.449,19.375 452.949,19.375 Q453.6521,19.375 454.2927,19.5313 Q454.949,19.6875 455.5115,19.9844 L455.5115,22.7031 Q454.8865,22.125 454.2927,21.8594 Q453.699,21.5781 453.074,21.5781 Q451.7302,21.5781 451.0427,22.6563 Q450.3552,23.7188 450.3552,25.8125 Q450.3552,27.9063 451.0427,28.9844 Q451.7302,30.0469 453.074,30.0469 Q453.699,30.0469 454.2927,29.7813 Q454.8865,29.5 455.5115,28.9219 L455.5115,31.6406 Z " fill="#000000"/><text fill="#000000" font-family="Verdana" font-size="14" lengthAdjust="spacing" textLength="91.5264" x="470.0427" y="30.8467">ApiController</text><line style="stroke:#000000;stroke-width:1;" x1="382.99" x2="621.1218" y1="40" y2="40"/><rect fill="none" height="6" style="stroke:#000000;stroke-width:1;" width="6" x="389.99" y="50.6484"/><text fill="#000000" font-family="Verdana" font-size="14" lengthAdjust="spacing" textLength="156.3584" x="399.99" y="56.9951">apiService: ApiService</text><line style="stroke:#000000;stroke-width:1;" x1="382.99" x2="621.1218" y1="64.2969" y2="64.2969"/><ellipse cx="392.99" cy="77.9453" fill="#FFFFFF" rx="3" ry="3" style="stroke:#000000;stroke-width:1;"/><text fill="#000000" font-family="Verdana" font-size="14" lengthAdjust="spacing" textLength="181.2617" x="399.99" y="81.292">ApiController(ApiService):</text><ellipse cx="392.99" cy="94.2422" fill="#FFFFFF" rx="3" ry="3" style="stroke:#000000;stroke-width:1;"/><text fill="#000000" font-family="Verdana" font-size="14" lengthAdjust="spacing" textLength="216.1318" x="399.99" y="97.5889">foo(): ResponseEntity&lt;String&gt;</text></g><!--class ApiRepository--><g class="entity" data-entity="ApiRepository" data-source-line="16" data-uid="ent0004" id="entity_ApiRepository"><rect fill="#FFFFFF" height="92.8906" rx="2.5" ry="2.5" style="stroke:#000000;stroke-width:1;" width="232.9268" x="301.59" y="486.97"/><ellipse cx="365.5905" cy="500.97" fill="#FFFFFF" rx="9" ry="9" style="stroke:#000000;stroke-width:1;"/><path d="M368.5592,506.6106 Q367.9811,506.9075 367.3405,507.0481 Q366.6999,507.2044 365.9967,507.2044 Q363.4967,507.2044 362.1686,505.5637 Q360.8561,503.9075 360.8561,500.7825 Q360.8561,497.6575 362.1686,496.0012 Q363.4967,494.345 365.9967,494.345 Q366.6999,494.345 367.3405,494.5012 Q367.9967,494.6575 368.5592,494.9544 L368.5592,497.6731 Q367.9342,497.095 367.3405,496.8294 Q366.7467,496.5481 366.1217,496.5481 Q364.778,496.5481 364.0905,497.6262 Q363.403,498.6887 363.403,500.7825 Q363.403,502.8762 364.0905,503.9544 Q364.778,505.0169 366.1217,505.0169 Q366.7467,505.0169 367.3405,504.7512 Q367.9342,504.47 368.5592,503.8919 L368.5592,506.6106 Z " fill="#000000"/><text fill="#000000" font-family="Verdana" font-size="14" lengthAdjust="spacing" textLength="97.4258" x="383.0905" y="505.8167">ApiRepository</text><line style="stroke:#000000;stroke-width:1;" x1="302.59" x2="533.5168" y1="514.97" y2="514.97"/><rect fill="none" height="6" style="stroke:#000000;stroke-width:1;" width="6" x="309.59" y="525.6184"/><text fill="#000000" font-family="Verdana" font-size="14" lengthAdjust="spacing" textLength="200.6484" x="319.59" y="531.9651">jdbcTemplate: JdbcTemplate</text><line style="stroke:#000000;stroke-width:1;" x1="302.59" x2="533.5168" y1="539.2669" y2="539.2669"/><ellipse cx="312.59" cy="552.9153" fill="#FFFFFF" rx="3" ry="3" style="stroke:#000000;stroke-width:1;"/><text fill="#000000" font-family="Verdana" font-size="14" lengthAdjust="spacing" textLength="208.9268" x="319.59" y="556.262">ApiRepository(JdbcTemplate):</text><ellipse cx="312.59" cy="569.2122" fill="#FFFFFF" rx="3" ry="3" style="stroke:#000000;stroke-width:1;"/><text fill="#000000" font-family="Verdana" font-size="14" lengthAdjust="spacing" textLength="84.8613" x="319.59" y="572.5589">get(): String</text></g><!--class ApiService--><g class="entity" data-entity="ApiService" data-source-line="21" data-uid="ent0005" id="entity_ApiService"><rect fill="#FFFFFF" height="92.8906" rx="2.5" ry="2.5" style="stroke:#000000;stroke-width:1;" width="191.1797" x="406.47" y="164.89"/><ellipse cx="461.2625" cy="178.89" fill="#FFFFFF" rx="9" ry="9" style="stroke:#000000;stroke-width:1;"/><path d="M464.2312,184.5306 Q463.6531,184.8275 463.0125,184.9681 Q462.3719,185.1244 461.6687,185.1244 Q459.1687,185.1244 457.8406,183.4838 Q456.5281,181.8275 456.5281,178.7025 Q456.5281,175.5775 457.8406,173.9213 Q459.1687,172.265 461.6687,172.265 Q462.3719,172.265 463.0125,172.4213 Q463.6687,172.5775 464.2312,172.8744 L464.2312,175.5931 Q463.6062,175.015 463.0125,174.7494 Q462.4187,174.4681 461.7937,174.4681 Q460.45,174.4681 459.7625,175.5463 Q459.075,176.6088 459.075,178.7025 Q459.075,180.7963 459.7625,181.8744 Q460.45,182.9369 461.7937,182.9369 Q462.4187,182.9369 463.0125,182.6713 Q463.6062,182.39 464.2312,181.8119 L464.2312,184.5306 Z " fill="#000000"/><text fill="#000000" font-family="Verdana" font-size="14" lengthAdjust="spacing" textLength="74.0947" x="478.7625" y="183.7367">ApiService</text><line style="stroke:#000000;stroke-width:1;" x1="407.47" x2="596.6497" y1="192.89" y2="192.89"/><rect fill="none" height="6" style="stroke:#000000;stroke-width:1;" width="6" x="414.47" y="203.5384"/><text fill="#000000" font-family="Verdana" font-size="14" lengthAdjust="spacing" textLength="163.0576" x="424.47" y="209.8851">apiContext: ApiContext</text><line style="stroke:#000000;stroke-width:1;" x1="407.47" x2="596.6497" y1="217.1869" y2="217.1869"/><ellipse cx="417.47" cy="230.8353" fill="#FFFFFF" rx="3" ry="3" style="stroke:#000000;stroke-width:1;"/><text fill="#000000" font-family="Verdana" font-size="14" lengthAdjust="spacing" textLength="167.1797" x="424.47" y="234.182">ApiService(ApiContext):</text><ellipse cx="417.47" cy="247.1322" fill="#FFFFFF" rx="3" ry="3" style="stroke:#000000;stroke-width:1;"/><text fill="#000000" font-family="Verdana" font-size="14" lengthAdjust="spacing" textLength="84.8613" x="424.47" y="250.4789">get(): String</text></g><!--class ApiStrategy--><g class="entity" data-entity="ApiStrategy" data-source-line="26" data-uid="ent0006" id="entity_ApiStrategy"><rect fill="#FFFFFF" height="72.5625" rx="2.5" ry="2.5" style="stroke:#000000;stroke-width:1;" width="110.3389" x="362.89" y="639.86"/><ellipse cx="375.89" cy="659.9928" fill="#FFFFFF" rx="9" ry="9" style="stroke:#000000;stroke-width:1;"/><path d="M371.8119,655.7584 L371.8119,653.6022 L379.2025,653.6022 L379.2025,655.7584 L376.7338,655.7584 L376.7338,663.8366 L379.2025,663.8366 L379.2025,665.9928 L371.8119,665.9928 L371.8119,663.8366 L374.2806,663.8366 L374.2806,655.7584 L371.8119,655.7584 Z " fill="#000000"/><text fill="#000000" font-family="Verdana" font-size="12" font-style="italic" lengthAdjust="spacing" textLength="68.2031" x="394.9579" y="655.9987">&#171;interface&#187;</text><text fill="#000000" font-family="Verdana" font-size="14" font-style="italic" lengthAdjust="spacing" textLength="82.3389" x="387.89" y="671.8239">ApiStrategy</text><line style="stroke:#000000;stroke-width:1;" x1="363.89" x2="472.2289" y1="680.1256" y2="680.1256"/><line style="stroke:#000000;stroke-width:1;" x1="363.89" x2="472.2289" y1="688.1256" y2="688.1256"/><ellipse cx="373.89" cy="701.7741" fill="#FFFFFF" rx="3" ry="3" style="stroke:#000000;stroke-width:1;"/><text fill="#000000" font-family="Verdana" font-size="14" lengthAdjust="spacing" textLength="84.8613" x="380.89" y="705.1207">get(): String</text></g><!--class CacheRepository--><g class="entity" data-entity="CacheRepository" data-source-line="29" data-uid="ent0007" id="entity_CacheRepository"><rect fill="#FFFFFF" height="92.8906" rx="2.5" ry="2.5" style="stroke:#000000;stroke-width:1;" width="254.1113" x="12" y="486.97"/><ellipse cx="76.0005" cy="500.97" fill="#FFFFFF" rx="9" ry="9" style="stroke:#000000;stroke-width:1;"/><path d="M78.9692,506.6106 Q78.3911,506.9075 77.7505,507.0481 Q77.1099,507.2044 76.4067,507.2044 Q73.9067,507.2044 72.5786,505.5637 Q71.2661,503.9075 71.2661,500.7825 Q71.2661,497.6575 72.5786,496.0012 Q73.9067,494.345 76.4067,494.345 Q77.1099,494.345 77.7505,494.5012 Q78.4067,494.6575 78.9692,494.9544 L78.9692,497.6731 Q78.3442,497.095 77.7505,496.8294 Q77.1567,496.5481 76.5317,496.5481 Q75.188,496.5481 74.5005,497.6262 Q73.813,498.6887 73.813,500.7825 Q73.813,502.8762 74.5005,503.9544 Q75.188,505.0169 76.5317,505.0169 Q77.1567,505.0169 77.7505,504.7512 Q78.3442,504.47 78.9692,503.8919 L78.9692,506.6106 Z " fill="#000000"/><text fill="#000000" font-family="Verdana" font-size="14" lengthAdjust="spacing" textLength="118.6104" x="93.5005" y="505.8167">CacheRepository</text><line style="stroke:#000000;stroke-width:1;" x1="13" x2="265.1113" y1="514.97" y2="514.97"/><rect fill="none" height="6" style="stroke:#000000;stroke-width:1;" width="6" x="20" y="525.6184"/><text fill="#000000" font-family="Verdana" font-size="14" lengthAdjust="spacing" textLength="200.6484" x="30" y="531.9651">jdbcTemplate: JdbcTemplate</text><line style="stroke:#000000;stroke-width:1;" x1="13" x2="265.1113" y1="539.2669" y2="539.2669"/><ellipse cx="23" cy="552.9153" fill="#FFFFFF" rx="3" ry="3" style="stroke:#000000;stroke-width:1;"/><text fill="#000000" font-family="Verdana" font-size="14" lengthAdjust="spacing" textLength="230.1113" x="30" y="556.262">CacheRepository(JdbcTemplate):</text><ellipse cx="23" cy="569.2122" fill="#FFFFFF" rx="3" ry="3" style="stroke:#000000;stroke-width:1;"/><text fill="#000000" font-family="Verdana" font-size="14" lengthAdjust="spacing" textLength="84.8613" x="30" y="572.5589">get(): String</text></g><!--link ApiContext to ApiRepository--><g class="link" data-entity-1="ApiContext" data-entity-2="ApiRepository" data-source-line="35" data-uid="lnk8" id="link_ApiContext_ApiRepository"><path codeLine="35" d="M458.93,427.34 C458.93,446.57 458.93,461.96 458.93,480.47" fill="none" id="ApiContext-to-ApiRepository" style="stroke:#595959;stroke-width:1;stroke-dasharray:7.0,7.0;"/><polygon fill="#595959" points="458.93,486.47,462.93,477.47,458.93,481.47,454.93,477.47,458.93,486.47" style="stroke:#595959;stroke-width:1;"/><text fill="#000000" font-family="Verdana" font-size="13" lengthAdjust="spacing" textLength="41.5518" x="416.93" y="452.9769">create</text></g><!--link ApiContext to ApiStrategy--><g class="link" data-entity-1="ApiContext" data-entity-2="ApiStrategy" data-source-line="36" data-uid="lnk9" id="link_ApiContext_ApiStrategy"><path codeLine="36" d="M577.65,439.43 C577.65,527.05 577.65,676.42 577.65,676.42 C577.65,676.42 525.52,676.42 479.43,676.42" fill="none" id="ApiContext-ApiStrategy" style="stroke:#595959;stroke-width:1;"/><polygon fill="#595959" points="577.65,427.43,573.65,433.43,577.65,439.43,581.65,433.43,577.65,427.43" style="stroke:#595959;stroke-width:1;"/><polygon fill="#595959" points="473.43,676.42,482.43,680.42,478.43,676.42,482.43,672.42,473.43,676.42" style="stroke:#595959;stroke-width:1;"/><text fill="#000000" font-family="Verdana" font-size="13" lengthAdjust="spacing" textLength="8.271" x="578.3916" y="447.129">1</text><text fill="#000000" font-family="Verdana" font-size="13" lengthAdjust="spacing" textLength="75.5308" x="481.1428" y="657.2788">apiStrategy</text><text fill="#000000" font-family="Verdana" font-size="13" lengthAdjust="spacing" textLength="8.271" x="514.7727" y="672.4116">1</text></g><!--link ApiController to ApiService--><g class="link" data-entity-1="ApiController" data-entity-2="ApiService" data-source-line="37" data-uid="lnk10" id="link_ApiController_ApiService"><path codeLine="37" d="M502.06,117.15 C502.06,135.94 502.06,139.57 502.06,158.39" fill="none" id="ApiController-ApiService" style="stroke:#595959;stroke-width:1;"/><polygon fill="#595959" points="502.06,105.15,498.06,111.15,502.06,117.15,506.06,111.15,502.06,105.15" style="stroke:#595959;stroke-width:1;"/><polygon fill="#595959" points="502.06,164.39,506.06,155.39,502.06,159.39,498.06,155.39,502.06,164.39" style="stroke:#595959;stroke-width:1;"/><text fill="#000000" font-family="Verdana" font-size="13" lengthAdjust="spacing" textLength="8.271" x="493.5171" y="124.8488">1</text><text fill="#000000" font-family="Verdana" font-size="13" lengthAdjust="spacing" textLength="67.8755" x="430.8239" y="138.5372">apiService</text><text fill="#000000" font-family="Verdana" font-size="13" lengthAdjust="spacing" textLength="8.271" x="460.6262" y="153.67">1</text></g><!--link ApiRepository to ApiStrategy--><g class="link" data-entity-1="ApiRepository" data-entity-2="ApiStrategy" data-source-line="38" data-uid="lnk11" id="link_ApiRepository_ApiStrategy"><path codeLine="38" d="M418.06,580.15 C418.06,599.5 418.06,603.6 418.06,621.71" fill="none" id="ApiRepository-to-ApiStrategy" style="stroke:#008200;stroke-width:1;stroke-dasharray:7.0,7.0;"/><polygon fill="none" points="418.06,639.71,424.06,621.71,412.06,621.71,418.06,639.71" style="stroke:#008200;stroke-width:1;"/></g><!--link ApiService to ApiContext--><g class="link" data-entity-1="ApiService" data-entity-2="ApiContext" data-source-line="39" data-uid="lnk12" id="link_ApiService_ApiContext"><path codeLine="39" d="M502.06,269.91 C502.06,288.49 502.06,292.02 502.06,311.36" fill="none" id="ApiService-ApiContext" style="stroke:#595959;stroke-width:1;"/><polygon fill="#595959" points="502.06,257.91,498.06,263.91,502.06,269.91,506.06,263.91,502.06,257.91" style="stroke:#595959;stroke-width:1;"/><polygon fill="#595959" points="502.06,317.36,506.06,308.36,502.06,312.36,498.06,308.36,502.06,317.36" style="stroke:#595959;stroke-width:1;"/><text fill="#000000" font-family="Verdana" font-size="13" lengthAdjust="spacing" textLength="8.271" x="493.4924" y="277.9289">1</text><text fill="#000000" font-family="Verdana" font-size="13" lengthAdjust="spacing" textLength="70.9858" x="428.2859" y="291.7837">apiContext</text><text fill="#000000" font-family="Verdana" font-size="13" lengthAdjust="spacing" textLength="8.271" x="459.6433" y="306.9165">1</text></g><!--link CacheRepository to ApiStrategy--><g class="link" data-entity-1="CacheRepository" data-entity-2="ApiStrategy" data-source-line="40" data-uid="lnk13" id="link_CacheRepository_ApiStrategy"><path codeLine="40" d="M139.06,580.24 C139.06,621.95 139.06,676.42 139.06,676.42 C139.06,676.42 263.24,676.42 344.6,676.42" fill="none" id="CacheRepository-to-ApiStrategy" style="stroke:#008200;stroke-width:1;stroke-dasharray:7.0,7.0;"/><polygon fill="none" points="362.6,676.42,344.6,670.42,344.6,682.42,362.6,676.42" style="stroke:#008200;stroke-width:1;"/></g><!--SRC=[hLFBJiCm4BpxAvPm2OzA0Ga9eYeIghXmBDnuI6woRGo97TchYWZnHNm2DxuCDqbh9wtQ2vkBFMlFpEuwHvHZYL0LN4X6gW9IC5D4geHCQ4n9ACdCkv0Lrxo4GaYaka9GcdB5M5fmO-2s4XCb2Jy8FXd0cGU4Tlb0cXCkwfCOR7O4t44nUFacQP3M-y7TfH9Pmxv02ktUfeHSiA- -2QsA0dNVHuirTAYN8aNVIOkqHjfrStMkr4faYgPIqk2T947rkDLCVD4fLie8KhfseWuBxxDP-eYbRJ1jPDyyB0R_nFxwEdzEfmD2rs-liWw9lMdif1SsfUVSydhzXl4ON299EitTrYOypN6h3mFqFph1l9VMnUZf-EfczPrdtEIOlOmI68p5HWp1xtUgqHB__WJRDC550AUEglaTLao1zrQVfJtajwW9rdztXxZQWMseke4wghxjLNLHT7qPHPlgNc6tXpxLFWzTvMiF_KQmuImFU_W3]--></g></svg>