<svg xmlns="http://www.w3.org/2000/svg" xmlns:xlink="http://www.w3.org/1999/xlink" contentStyleType="text/css" data-diagram-type="SEQUENCE" height="751px" preserveAspectRatio="none" style="width:1393px;height:751px;background:#FFFFFF;" version="1.1" viewBox="0 0 1393 751" width="1393px" zoomAndPan="magnify"><defs/><g><rect fill="none" height="116.2031" style="stroke:#000000;stroke-width:1.5;" width="270.5024" x="436.0073" y="243.9609"/><rect fill="none" height="250.8672" style="stroke:#000000;stroke-width:1.5;" width="744.7866" x="641.481" y="403.2969"/><rect fill="none" height="46.2656" style="stroke:#000000;stroke-width:1.5;" width="513.9702" x="793.9741" y="527.8281"/><g><title>Reiziger</title><rect fill="#000000" fill-opacity="0.00000" height="589.8672" width="8" x="32.3623" y="81.2969"/><line style="stroke:#181818;stroke-width:0.5;stroke-dasharray:5.0,5.0;" x1="36" x2="36" y1="81.2969" y2="671.1641"/></g><g><title>apiController:</title><rect fill="#000000" fill-opacity="0.00000" height="589.8672" width="8" x="169.5156" y="81.2969"/><line style="stroke:#181818;stroke-width:0.5;stroke-dasharray:5.0,5.0;" x1="172.8931" x2="172.8931" y1="81.2969" y2="671.1641"/></g><g><title>apiService:</title><rect fill="#000000" fill-opacity="0.00000" height="589.8672" width="8" x="329.5522" y="81.2969"/><line style="stroke:#181818;stroke-width:0.5;stroke-dasharray:5.0,5.0;" x1="332.6455" x2="332.6455" y1="81.2969" y2="671.1641"/></g><g><title>apiContext:</title><rect fill="#000000" fill-opacity="0.00000" height="589.8672" width="8" x="489.5889" y="81.2969"/><line style="stroke:#181818;stroke-width:0.5;stroke-dasharray:5.0,5.0;" x1="493.0073" x2="493.0073" y1="81.2969" y2="671.1641"/></g><g><title>&lt;&lt;interface&gt;&gt;</title><rect fill="#000000" fill-opacity="0.00000" height="589.8672" width="8" x="697.5098" y="81.2969"/><line style="stroke:#181818;stroke-width:0.5;stroke-dasharray:5.0,5.0;" x1="701.481" x2="701.481" y1="81.2969" y2="671.1641"/></g><g><title>apiRepository:</title><rect fill="#000000" fill-opacity="0.00000" height="589.8672" width="8" x="857.5464" y="81.2969"/><line style="stroke:#181818;stroke-width:0.5;stroke-dasharray:5.0,5.0;" x1="860.9741" x2="860.9741" y1="81.2969" y2="671.1641"/></g><g><title>cacheRepository:</title><rect fill="#000000" fill-opacity="0.00000" height="589.8672" width="8" x="1012.5913" y="81.2969"/><line style="stroke:#181818;stroke-width:0.5;stroke-dasharray:5.0,5.0;" x1="1015.9668" x2="1015.9668" y1="81.2969" y2="671.1641"/></g><g><title>CachedStore</title><rect fill="#000000" fill-opacity="0.00000" height="589.8672" width="8" x="1246.0767" y="81.2969"/><line style="stroke:#181818;stroke-width:0.5;stroke-dasharray:5.0,5.0;" x1="1249.209" x2="1249.209" y1="81.2969" y2="671.1641"/></g><g><title>RapidApi</title><rect fill="#000000" fill-opacity="0.00000" height="589.8672" width="8" x="1338.106" y="81.2969"/><line style="stroke:#181818;stroke-width:0.5;stroke-dasharray:5.0,5.0;" x1="1341.9443" x2="1341.9443" y1="81.2969" y2="671.1641"/></g><g class="participant participant-head" data-participant="user"><text fill="#000000" font-family="sans-serif" font-size="14" lengthAdjust="spacing" textLength="56.7246" x="5" y="77.9951">Reiziger</text><ellipse cx="36.3623" cy="13.5" fill="#E2E2F0" rx="8" ry="8" style="stroke:#181818;stroke-width:0.5;"/><path d="M36.3623,21.5 L36.3623,48.5 M23.3623,29.5 L49.3623,29.5 M36.3623,48.5 L23.3623,63.5 M36.3623,48.5 L49.3623,63.5" fill="none" style="stroke:#181818;stroke-width:0.5;"/></g><g class="participant participant-tail" data-participant="user"><text fill="#000000" font-family="sans-serif" font-size="14" lengthAdjust="spacing" textLength="56.7246" x="5" y="683.1592">Reiziger</text><ellipse cx="36.3623" cy="694.9609" fill="#E2E2F0" rx="8" ry="8" style="stroke:#181818;stroke-width:0.5;"/><path d="M36.3623,702.9609 L36.3623,729.9609 M23.3623,710.9609 L49.3623,710.9609 M36.3623,729.9609 L23.3623,744.9609 M36.3623,729.9609 L49.3623,744.9609" fill="none" style="stroke:#181818;stroke-width:0.5;"/></g><g class="participant participant-head" data-participant="controller"><rect fill="#E2E2F0" height="46.5938" rx="2.5" ry="2.5" style="stroke:#181818;stroke-width:0.5;" width="109.2451" x="118.8931" y="33.7031"/><text fill="#000000" font-family="sans-serif" font-size="14" lengthAdjust="spacing" textLength="95.2451" x="125.8931" y="53.6982">apiController:</text><text fill="#000000" font-family="sans-serif" font-size="14" lengthAdjust="spacing" textLength="91.5264" x="127.7524" y="69.9951">ApiController</text></g><g class="participant participant-tail" data-participant="controller"><rect fill="#E2E2F0" height="46.5938" rx="2.5" ry="2.5" style="stroke:#181818;stroke-width:0.5;" width="109.2451" x="118.8931" y="670.1641"/><text fill="#000000" font-family="sans-serif" font-size="14" lengthAdjust="spacing" textLength="95.2451" x="125.8931" y="690.1592">apiController:</text><text fill="#000000" font-family="sans-serif" font-size="14" lengthAdjust="spacing" textLength="91.5264" x="127.7524" y="706.4561">ApiController</text></g><g class="participant participant-head" data-participant="service"><rect fill="#E2E2F0" height="46.5938" rx="2.5" ry="2.5" style="stroke:#181818;stroke-width:0.5;" width="91.8135" x="287.6455" y="33.7031"/><text fill="#000000" font-family="sans-serif" font-size="14" lengthAdjust="spacing" textLength="77.8135" x="294.6455" y="53.6982">apiService:</text><text fill="#000000" font-family="sans-serif" font-size="14" lengthAdjust="spacing" textLength="74.0947" x="296.5049" y="69.9951">ApiService</text></g><g class="participant participant-tail" data-participant="service"><rect fill="#E2E2F0" height="46.5938" rx="2.5" ry="2.5" style="stroke:#181818;stroke-width:0.5;" width="91.8135" x="287.6455" y="670.1641"/><text fill="#000000" font-family="sans-serif" font-size="14" lengthAdjust="spacing" textLength="77.8135" x="294.6455" y="690.1592">apiService:</text><text fill="#000000" font-family="sans-serif" font-size="14" lengthAdjust="spacing" textLength="74.0947" x="296.5049" y="706.4561">ApiService</text></g><g class="participant participant-head" data-participant="context"><rect fill="#E2E2F0" height="46.5938" rx="2.5" ry="2.5" style="stroke:#181818;stroke-width:0.5;" width="95.1631" x="446.0073" y="33.7031"/><text fill="#000000" font-family="sans-serif" font-size="14" lengthAdjust="spacing" textLength="81.1631" x="453.0073" y="53.6982">apiContext:</text><text fill="#000000" font-family="sans-serif" font-size="14" lengthAdjust="spacing" textLength="77.4443" x="454.8667" y="69.9951">ApiContext</text></g><g class="participant participant-tail" data-participant="context"><rect fill="#E2E2F0" height="46.5938" rx="2.5" ry="2.5" style="stroke:#181818;stroke-width:0.5;" width="95.1631" x="446.0073" y="670.1641"/><text fill="#000000" font-family="sans-serif" font-size="14" lengthAdjust="spacing" textLength="81.1631" x="453.0073" y="690.1592">apiContext:</text><text fill="#000000" font-family="sans-serif" font-size="14" lengthAdjust="spacing" textLength="77.4443" x="454.8667" y="706.4561">ApiContext</text></g><g class="participant participant-head" data-participant="strategy"><rect fill="#E2E2F0" height="62.8906" rx="2.5" ry="2.5" style="stroke:#181818;stroke-width:0.5;" width="100.0576" x="651.481" y="17.4063"/><text fill="#000000" font-family="sans-serif" font-size="14" lengthAdjust="spacing" textLength="79.5703" x="661.7246" y="37.4014">&#171;interface&#187;</text><text fill="#000000" font-family="sans-serif" font-size="14" lengthAdjust="spacing" textLength="86.0576" x="658.481" y="53.6982">apiStrategy:</text><text fill="#000000" font-family="sans-serif" font-size="14" lengthAdjust="spacing" textLength="82.3389" x="660.3403" y="69.9951">ApiStrategy</text></g><g class="participant participant-tail" data-participant="strategy"><rect fill="#E2E2F0" height="62.8906" rx="2.5" ry="2.5" style="stroke:#181818;stroke-width:0.5;" width="100.0576" x="651.481" y="670.1641"/><text fill="#000000" font-family="sans-serif" font-size="14" lengthAdjust="spacing" textLength="79.5703" x="661.7246" y="690.1592">&#171;interface&#187;</text><text fill="#000000" font-family="sans-serif" font-size="14" lengthAdjust="spacing" textLength="86.0576" x="658.481" y="706.4561">apiStrategy:</text><text fill="#000000" font-family="sans-serif" font-size="14" lengthAdjust="spacing" textLength="82.3389" x="660.3403" y="722.7529">ApiStrategy</text></g><g class="participant participant-head" data-participant="api"><rect fill="#E2E2F0" height="46.5938" rx="2.5" ry="2.5" style="stroke:#181818;stroke-width:0.5;" width="115.1445" x="803.9741" y="33.7031"/><text fill="#000000" font-family="sans-serif" font-size="14" lengthAdjust="spacing" textLength="101.1445" x="810.9741" y="53.6982">apiRepository:</text><text fill="#000000" font-family="sans-serif" font-size="14" lengthAdjust="spacing" textLength="97.4258" x="812.8335" y="69.9951">ApiRepository</text></g><g class="participant participant-tail" data-participant="api"><rect fill="#E2E2F0" height="46.5938" rx="2.5" ry="2.5" style="stroke:#181818;stroke-width:0.5;" width="115.1445" x="803.9741" y="670.1641"/><text fill="#000000" font-family="sans-serif" font-size="14" lengthAdjust="spacing" textLength="101.1445" x="810.9741" y="690.1592">apiRepository:</text><text fill="#000000" font-family="sans-serif" font-size="14" lengthAdjust="spacing" textLength="97.4258" x="812.8335" y="706.4561">ApiRepository</text></g><g class="participant participant-head" data-participant="cache"><rect fill="#E2E2F0" height="46.5938" rx="2.5" ry="2.5" style="stroke:#181818;stroke-width:0.5;" width="135.249" x="948.9668" y="33.7031"/><text fill="#000000" font-family="sans-serif" font-size="14" lengthAdjust="spacing" textLength="121.249" x="955.9668" y="53.6982">cacheRepository:</text><text fill="#000000" font-family="sans-serif" font-size="14" lengthAdjust="spacing" textLength="118.6104" x="957.2861" y="69.9951">CacheRepository</text></g><g class="participant participant-tail" data-participant="cache"><rect fill="#E2E2F0" height="46.5938" rx="2.5" ry="2.5" style="stroke:#181818;stroke-width:0.5;" width="135.249" x="948.9668" y="670.1641"/><text fill="#000000" font-family="sans-serif" font-size="14" lengthAdjust="spacing" textLength="121.249" x="955.9668" y="690.1592">cacheRepository:</text><text fill="#000000" font-family="sans-serif" font-size="14" lengthAdjust="spacing" textLength="118.6104" x="957.2861" y="706.4561">CacheRepository</text></g><g class="participant participant-head" data-participant="CachedStore"><text fill="#000000" font-family="sans-serif" font-size="14" lengthAdjust="spacing" textLength="89.7354" x="1202.209" y="77.9951">CachedStore</text><path d="M1232.0767,29 C1232.0767,19 1250.0767,19 1250.0767,19 C1250.0767,19 1268.0767,19 1268.0767,29 L1268.0767,55 C1268.0767,65 1250.0767,65 1250.0767,65 C1250.0767,65 1232.0767,65 1232.0767,55 L1232.0767,29" fill="#E2E2F0" style="stroke:#181818;stroke-width:1.5;"/><path d="M1232.0767,29 C1232.0767,39 1250.0767,39 1250.0767,39 C1250.0767,39 1268.0767,39 1268.0767,29" fill="none" style="stroke:#181818;stroke-width:1.5;"/></g><g class="participant participant-tail" data-participant="CachedStore"><text fill="#000000" font-family="sans-serif" font-size="14" lengthAdjust="spacing" textLength="89.7354" x="1202.209" y="683.1592">CachedStore</text><path d="M1232.0767,696.4609 C1232.0767,686.4609 1250.0767,686.4609 1250.0767,686.4609 C1250.0767,686.4609 1268.0767,686.4609 1268.0767,696.4609 L1268.0767,722.4609 C1268.0767,732.4609 1250.0767,732.4609 1250.0767,732.4609 C1250.0767,732.4609 1232.0767,732.4609 1232.0767,722.4609 L1232.0767,696.4609" fill="#E2E2F0" style="stroke:#181818;stroke-width:1.5;"/><path d="M1232.0767,696.4609 C1232.0767,706.4609 1250.0767,706.4609 1250.0767,706.4609 C1250.0767,706.4609 1268.0767,706.4609 1268.0767,696.4609" fill="none" style="stroke:#181818;stroke-width:1.5;"/></g><g class="participant participant-head" data-participant="RapidApi"><text fill="#000000" font-family="sans-serif" font-size="14" lengthAdjust="spacing" textLength="62.3232" x="1307.9443" y="77.9951">RapidApi</text><path d="M1324.106,29 C1324.106,19 1342.106,19 1342.106,19 C1342.106,19 1360.106,19 1360.106,29 L1360.106,55 C1360.106,65 1342.106,65 1342.106,65 C1342.106,65 1324.106,65 1324.106,55 L1324.106,29" fill="#E2E2F0" style="stroke:#181818;stroke-width:1.5;"/><path d="M1324.106,29 C1324.106,39 1342.106,39 1342.106,39 C1342.106,39 1360.106,39 1360.106,29" fill="none" style="stroke:#181818;stroke-width:1.5;"/></g><g class="participant participant-tail" data-participant="RapidApi"><text fill="#000000" font-family="sans-serif" font-size="14" lengthAdjust="spacing" textLength="62.3232" x="1307.9443" y="683.1592">RapidApi</text><path d="M1324.106,696.4609 C1324.106,686.4609 1342.106,686.4609 1342.106,686.4609 C1342.106,686.4609 1360.106,686.4609 1360.106,696.4609 L1360.106,722.4609 C1360.106,732.4609 1342.106,732.4609 1342.106,732.4609 C1342.106,732.4609 1324.106,732.4609 1324.106,722.4609 L1324.106,696.4609" fill="#E2E2F0" style="stroke:#181818;stroke-width:1.5;"/><path d="M1324.106,696.4609 C1324.106,706.4609 1342.106,706.4609 1342.106,706.4609 C1342.106,706.4609 1360.106,706.4609 1360.106,696.4609" fill="none" style="stroke:#181818;stroke-width:1.5;"/></g><g class="message" data-participant-1="user" data-participant-2="controller"><polygon fill="#181818" points="161.5156,108.4297,171.5156,112.4297,161.5156,116.4297,165.5156,112.4297" style="stroke:#181818;stroke-width:1;"/><line style="stroke:#181818;stroke-width:1;" x1="36.3623" x2="167.5156" y1="112.4297" y2="112.4297"/><text fill="#000000" font-family="sans-serif" font-size="13" lengthAdjust="spacing" textLength="113.1533" x="43.3623" y="107.3638">hotels("Arnhem")</text></g><g class="message" data-participant-1="controller" data-participant-2="service"><polygon fill="#181818" points="321.5522,137.5625,331.5522,141.5625,321.5522,145.5625,325.5522,141.5625" style="stroke:#181818;stroke-width:1;"/><line style="stroke:#181818;stroke-width:1;" x1="173.5156" x2="327.5522" y1="141.5625" y2="141.5625"/><text fill="#000000" font-family="sans-serif" font-size="13" lengthAdjust="spacing" textLength="136.0366" x="180.5156" y="136.4966">getHotels("Arnhem")</text></g><g class="message" data-participant-1="service" data-participant-2="context"><polygon fill="#181818" points="481.5889,166.6953,491.5889,170.6953,481.5889,174.6953,485.5889,170.6953" style="stroke:#181818;stroke-width:1;"/><line style="stroke:#181818;stroke-width:1;" x1="333.5522" x2="487.5889" y1="170.6953" y2="170.6953"/><text fill="#000000" font-family="sans-serif" font-size="13" lengthAdjust="spacing" textLength="136.0366" x="340.5522" y="165.6294">getHotels("Arnhem")</text></g><g class="message" data-participant-1="context" data-participant-2="api"><polygon fill="#181818" points="849.5464,195.8281,859.5464,199.8281,849.5464,203.8281,853.5464,199.8281" style="stroke:#181818;stroke-width:1;"/><line style="stroke:#181818;stroke-width:1;" x1="493.5889" x2="855.5464" y1="199.8281" y2="199.8281"/><text fill="#000000" font-family="sans-serif" font-size="13" lengthAdjust="spacing" textLength="157.9678" x="500.5889" y="194.7622">available = isAvailable()</text></g><g class="message" data-participant-1="api" data-participant-2="RapidApi"><polygon fill="#181818" points="1330.106,224.9609,1340.106,228.9609,1330.106,232.9609,1334.106,228.9609" style="stroke:#181818;stroke-width:1;"/><line style="stroke:#181818;stroke-width:1;" x1="861.5464" x2="1336.106" y1="228.9609" y2="228.9609"/><text fill="#000000" font-family="sans-serif" font-size="13" lengthAdjust="spacing" textLength="116.2192" x="868.5464" y="223.895">GET "/api/v1/test"</text></g><path d="M436.0073,243.9609 L500.4502,243.9609 L500.4502,251.0938 L490.4502,261.0938 L436.0073,261.0938 L436.0073,243.9609" fill="#EEEEEE" style="stroke:#000000;stroke-width:1.5;"/><rect fill="none" height="116.2031" style="stroke:#000000;stroke-width:1.5;" width="270.5024" x="436.0073" y="243.9609"/><text fill="#000000" font-family="sans-serif" font-size="13" font-weight="bold" lengthAdjust="spacing" textLength="19.4429" x="451.0073" y="257.0278">alt</text><text fill="#000000" font-family="sans-serif" font-size="11" font-weight="bold" lengthAdjust="spacing" textLength="118.207" x="515.4502" y="256.1714">[available == true]</text><g class="message" data-participant-1="context" data-participant-2="context"><line style="stroke:#181818;stroke-width:1;" x1="493.5889" x2="535.5889" y1="282.2266" y2="282.2266"/><line style="stroke:#181818;stroke-width:1;" x1="535.5889" x2="535.5889" y1="282.2266" y2="295.2266"/><line style="stroke:#181818;stroke-width:1;" x1="494.5889" x2="535.5889" y1="295.2266" y2="295.2266"/><polygon fill="#181818" points="504.5889,291.2266,494.5889,295.2266,504.5889,299.2266,500.5889,295.2266" style="stroke:#181818;stroke-width:1;"/><text fill="#000000" font-family="sans-serif" font-size="13" lengthAdjust="spacing" textLength="175.2524" x="500.5889" y="277.1606">setStrategy(apiRepository)</text></g><line style="stroke:#000000;stroke-width:1;stroke-dasharray:2.0,2.0;" x1="436.0073" x2="706.5098" y1="304.2266" y2="304.2266"/><text fill="#000000" font-family="sans-serif" font-size="11" font-weight="bold" lengthAdjust="spacing" textLength="122.2192" x="441.0073" y="314.437">[available == false]</text><g class="message" data-participant-1="context" data-participant-2="context"><line style="stroke:#181818;stroke-width:1;" x1="493.5889" x2="535.5889" y1="339.1641" y2="339.1641"/><line style="stroke:#181818;stroke-width:1;" x1="535.5889" x2="535.5889" y1="339.1641" y2="352.1641"/><line style="stroke:#181818;stroke-width:1;" x1="494.5889" x2="535.5889" y1="352.1641" y2="352.1641"/><polygon fill="#181818" points="504.5889,348.1641,494.5889,352.1641,504.5889,356.1641,500.5889,352.1641" style="stroke:#181818;stroke-width:1;"/><text fill="#000000" font-family="sans-serif" font-size="13" lengthAdjust="spacing" textLength="193.9209" x="500.5889" y="334.0981">setStrategy(cacheRepository)</text></g><g class="message" data-participant-1="context" data-participant-2="strategy"><polygon fill="#181818" points="689.5098,384.2969,699.5098,388.2969,689.5098,392.2969,693.5098,388.2969" style="stroke:#181818;stroke-width:1;"/><line style="stroke:#181818;stroke-width:1;" x1="493.5889" x2="695.5098" y1="388.2969" y2="388.2969"/><text fill="#000000" font-family="sans-serif" font-size="13" lengthAdjust="spacing" textLength="136.0366" x="500.5889" y="383.231">getHotels("Arnhem")</text></g><path d="M641.481,403.2969 L705.9238,403.2969 L705.9238,410.4297 L695.9238,420.4297 L641.481,420.4297 L641.481,403.2969" fill="#EEEEEE" style="stroke:#000000;stroke-width:1.5;"/><rect fill="none" height="250.8672" style="stroke:#000000;stroke-width:1.5;" width="744.7866" x="641.481" y="403.2969"/><text fill="#000000" font-family="sans-serif" font-size="13" font-weight="bold" lengthAdjust="spacing" textLength="19.4429" x="656.481" y="416.3638">alt</text><text fill="#000000" font-family="sans-serif" font-size="11" font-weight="bold" lengthAdjust="spacing" textLength="153.5005" x="720.9238" y="415.5073">[RapidApi was available]</text><g class="message" data-participant-1="strategy" data-participant-2="api"><polygon fill="#181818" points="849.5464,437.5625,859.5464,441.5625,849.5464,445.5625,853.5464,441.5625" style="stroke:#181818;stroke-width:1;"/><line style="stroke:#181818;stroke-width:1;" x1="701.5098" x2="855.5464" y1="441.5625" y2="441.5625"/><text fill="#000000" font-family="sans-serif" font-size="13" lengthAdjust="spacing" textLength="136.0366" x="708.5098" y="436.4966">getHotels("Arnhem")</text></g><g class="message" data-participant-1="api" data-participant-2="RapidApi"><polygon fill="#181818" points="1330.106,466.6953,1340.106,470.6953,1330.106,474.6953,1334.106,470.6953" style="stroke:#181818;stroke-width:1;"/><line style="stroke:#181818;stroke-width:1;" x1="861.5464" x2="1336.106" y1="470.6953" y2="470.6953"/><text fill="#000000" font-family="sans-serif" font-size="13" lengthAdjust="spacing" textLength="418.9009" x="868.5464" y="465.6294">hotels = GET "/api/v1/hotels/searchDestination?query=Arnhem"</text></g><g class="message" data-participant-1="api" data-participant-2="api"><line style="stroke:#181818;stroke-width:1;" x1="861.5464" x2="903.5464" y1="499.8281" y2="499.8281"/><line style="stroke:#181818;stroke-width:1;" x1="903.5464" x2="903.5464" y1="499.8281" y2="512.8281"/><line style="stroke:#181818;stroke-width:1;" x1="862.5464" x2="903.5464" y1="512.8281" y2="512.8281"/><polygon fill="#181818" points="872.5464,508.8281,862.5464,512.8281,872.5464,516.8281,868.5464,512.8281" style="stroke:#181818;stroke-width:1;"/><text fill="#000000" font-family="sans-serif" font-size="13" lengthAdjust="spacing" textLength="141.0449" x="868.5464" y="494.7622">WriteToCache(hotels)</text></g><path d="M793.9741,527.8281 L870.5981,527.8281 L870.5981,534.9609 L860.5981,544.9609 L793.9741,544.9609 L793.9741,527.8281" fill="#EEEEEE" style="stroke:#000000;stroke-width:1.5;"/><rect fill="none" height="46.2656" style="stroke:#000000;stroke-width:1.5;" width="513.9702" x="793.9741" y="527.8281"/><text fill="#000000" font-family="sans-serif" font-size="13" font-weight="bold" lengthAdjust="spacing" textLength="31.624" x="808.9741" y="540.895">loop</text><text fill="#000000" font-family="sans-serif" font-size="11" font-weight="bold" lengthAdjust="spacing" textLength="25.5234" x="885.5981" y="540.0386">[For</text><text fill="#000000" font-family="sans-serif" font-size="11" font-style="italic" font-weight="bold" lengthAdjust="spacing" textLength="7.8311" x="914.9512" y="540.0386">n</text><text fill="#000000" font-family="sans-serif" font-size="11" font-weight="bold" lengthAdjust="spacing" textLength="43.4521" x="926.6118" y="540.0386">hotels]</text><g class="message" data-participant-1="api" data-participant-2="CachedStore"><polygon fill="#181818" points="1238.0767,562.0938,1248.0767,566.0938,1238.0767,570.0938,1242.0767,566.0938" style="stroke:#181818;stroke-width:1;"/><line style="stroke:#181818;stroke-width:1;" x1="861.5464" x2="1244.0767" y1="566.0938" y2="566.0938"/><text fill="#000000" font-family="sans-serif" font-size="13" lengthAdjust="spacing" textLength="232.0767" x="868.5464" y="561.0278">"INSERT INTO hotel(...) VALUES(...)"</text></g><line style="stroke:#000000;stroke-width:1;stroke-dasharray:2.0,2.0;" x1="641.481" x2="1386.2676" y1="582.0938" y2="582.0938"/><text fill="#000000" font-family="sans-serif" font-size="11" font-weight="bold" lengthAdjust="spacing" textLength="177.9766" x="646.481" y="592.3042">[RapidApi was not available]</text><g class="message" data-participant-1="strategy" data-participant-2="cache"><polygon fill="#181818" points="1004.5913,613.0313,1014.5913,617.0313,1004.5913,621.0313,1008.5913,617.0313" style="stroke:#181818;stroke-width:1;"/><line style="stroke:#181818;stroke-width:1;" x1="701.5098" x2="1010.5913" y1="617.0313" y2="617.0313"/><text fill="#000000" font-family="sans-serif" font-size="13" lengthAdjust="spacing" textLength="136.0366" x="708.5098" y="611.9653">getHotels("Arnhem")</text></g><g class="message" data-participant-1="cache" data-participant-2="CachedStore"><polygon fill="#181818" points="1238.0767,642.1641,1248.0767,646.1641,1238.0767,650.1641,1242.0767,646.1641" style="stroke:#181818;stroke-width:1;"/><line style="stroke:#181818;stroke-width:1;" x1="1016.5913" x2="1244.0767" y1="646.1641" y2="646.1641"/><text fill="#000000" font-family="sans-serif" font-size="13" lengthAdjust="spacing" textLength="209.4854" x="1023.5913" y="641.0981">hotels = "SELECT * FROM hotel"</text></g><!--SRC=[ZLFBRjim4BppAnOwoGLgeLSXTc4uIXCW3q1IsqikZBon2IYaGj9kqw_lyY5PYjqYEd4VCxESfNXZbOOInH-nHGtSmDwWPgpZsef6T5nQI7WdrafQhTeMTVueL-CuSQ1c24-G5Ug3Q330Ok0n9fpFIk5lUzIXO12XynHmSI4egvzvWylbetI2LdEBsxUe6ACW6OCJpH8xPGHP4L77sEEeOmffUBF32MWzpOI1NOwn3RVyYHi4txEfg8x7P4da6v9ap3aFdvSZCtFOAOkjIPELbZjyIMQC7QkkDvgOmnRjzVlUMEmvdQbd-sBHzT4mEV035or_QX4M8CogZz8PexBhwcVEuLjHGv9Hc1s-P1QDJHXlxPXX0LRlaG5z8vrX7eEsNr4wMSICqP0uPNhcbFeGrRi54PdSZE_PluJpXhWhz7U4N-u1z5DuyHuy67QEmpMUs1NMIRPEV0lPp23NpUwIJ1IIMw7arzSzwhT5f1mpUjMVMbYibNzLQU08igrI7LpHVvrbCikYgA-CA4QFCOVavhugoXfkxkk7q9_Ev_CP_5ZTVYygVmxwpaQ_buazKjd_MEHtyM-JVFbaei6ff2fkYtKDd-2gVBWB-SIjyoy0]--></g></svg>