<svg xmlns="http://www.w3.org/2000/svg" xmlns:xlink="http://www.w3.org/1999/xlink" contentStyleType="text/css" data-diagram-type="CLASS" height="1450px" preserveAspectRatio="none" style="width:2253px;height:1450px;background:#FFFFFF;" version="1.1" viewBox="0 0 2253 1450" width="2253px" zoomAndPan="magnify"><title>TripTop Payment Feature - Class Diagram</title><defs/><g><text fill="#000000" font-family="sans-serif" font-size="14" font-weight="bold" lengthAdjust="spacing" textLength="329.7998" x="954.7023" y="22.9951">TripTop Payment Feature - Class Diagram</text><!--cluster External Libraries--><g class="cluster" data-entity="External Libraries" data-source-line="107" data-uid="ent0016" id="cluster_External Libraries"><path d="M511.66,1284.7669 L653.0565,1284.7669 A3.75,3.75 0 0 1 655.5565,1287.2669 L662.5565,1307.0638 L1572.66,1307.0638 A2.5,2.5 0 0 1 1575.16,1309.5638 L1575.16,1440.7469 A2.5,2.5 0 0 1 1572.66,1443.2469 L511.66,1443.2469 A2.5,2.5 0 0 1 509.16,1440.7469 L509.16,1287.2669 A2.5,2.5 0 0 1 511.66,1284.7669" fill="none" style="stroke:#000000;stroke-width:1.5;"/><line style="stroke:#000000;stroke-width:1.5;" x1="509.16" x2="662.5565" y1="1307.0638" y2="1307.0638"/><text fill="#000000" font-family="sans-serif" font-size="14" font-weight="bold" lengthAdjust="spacing" textLength="140.3965" x="513.16" y="1299.762">External Libraries</text></g><!--class Stripe--><g class="entity" data-entity="Stripe" data-source-line="108" data-uid="ent0017" id="entity_Stripe"><rect fill="#F1F1F1" height="58.5938" rx="2.5" ry="2.5" style="stroke:#181818;stroke-width:0.5;" width="126.251" x="910.03" y="1344.2069"/><text fill="#000000" font-family="sans-serif" font-size="14" lengthAdjust="spacing" textLength="120.251" x="913.03" y="1362.202">com.stripe.Stripe</text><line style="stroke:#181818;stroke-width:0.5;" x1="911.03" x2="1035.281" y1="1370.5038" y2="1370.5038"/><text fill="#000000" font-family="sans-serif" font-size="14" lengthAdjust="spacing" text-decoration="underline" textLength="110.1133" x="916.03" y="1387.4989">+apiKey: String</text><line style="stroke:#181818;stroke-width:0.5;" x1="911.03" x2="1035.281" y1="1394.8006" y2="1394.8006"/></g><!--class StripeInvoice--><g class="entity" data-entity="StripeInvoice" data-source-line="112" data-uid="ent0018" id="entity_StripeInvoice"><rect fill="#F1F1F1" height="107.4844" rx="2.5" ry="2.5" style="stroke:#181818;stroke-width:0.5;" width="349.6885" x="525.31" y="1319.7669"/><text fill="#000000" font-family="sans-serif" font-size="14" lengthAdjust="spacing" textLength="176.8252" x="611.7416" y="1337.762">com.stripe.model.Invoice</text><line style="stroke:#181818;stroke-width:0.5;" x1="526.31" x2="873.9985" y1="1346.0638" y2="1346.0638"/><line style="stroke:#181818;stroke-width:0.5;" x1="526.31" x2="873.9985" y1="1354.0638" y2="1354.0638"/><text fill="#000000" font-family="sans-serif" font-size="14" lengthAdjust="spacing" text-decoration="underline" textLength="337.6885" x="531.31" y="1371.0589">+create(params: InvoiceCreateParams): Invoice</text><text fill="#000000" font-family="sans-serif" font-size="14" lengthAdjust="spacing" textLength="109.6074" x="531.31" y="1387.3557">+getId(): String</text><text fill="#000000" font-family="sans-serif" font-size="14" lengthAdjust="spacing" textLength="160.2207" x="531.31" y="1403.6526">+getCurrency(): String</text><text fill="#000000" font-family="sans-serif" font-size="14" lengthAdjust="spacing" textLength="266.5742" x="531.31" y="1419.9495">+getMetadata(): Map&lt;String, String&gt;</text></g><!--class HttpClient--><g class="entity" data-entity="HttpClient" data-source-line="119" data-uid="ent0019" id="entity_HttpClient"><rect fill="#F1F1F1" height="58.5938" rx="2.5" ry="2.5" style="stroke:#181818;stroke-width:0.5;" width="488.335" x="1070.99" y="1344.2069"/><text fill="#000000" font-family="sans-serif" font-size="14" lengthAdjust="spacing" textLength="165.3203" x="1232.4973" y="1362.202">java.net.http.HttpClient</text><line style="stroke:#181818;stroke-width:0.5;" x1="1071.99" x2="1558.325" y1="1370.5038" y2="1370.5038"/><line style="stroke:#181818;stroke-width:0.5;" x1="1071.99" x2="1558.325" y1="1378.5038" y2="1378.5038"/><text fill="#000000" font-family="sans-serif" font-size="14" lengthAdjust="spacing" textLength="476.335" x="1076.99" y="1395.4989">+send(request: HttpRequest, handler: BodyHandler): HttpResponse</text></g><!--class TriptopApplication--><g class="entity" data-entity="TriptopApplication" data-source-line="7" data-uid="ent0002" id="entity_TriptopApplication"><rect fill="#F1F1F1" height="205.2656" rx="2.5" ry="2.5" style="stroke:#181818;stroke-width:0.5;" width="671.9209" x="495.2" y="44.2969"/><text fill="#000000" font-family="sans-serif" font-size="14" lengthAdjust="spacing" textLength="128.249" x="767.0359" y="62.292">TriptopApplication</text><line style="stroke:#181818;stroke-width:0.5;" x1="496.2" x2="1166.1209" y1="70.5938" y2="70.5938"/><text fill="#000000" font-family="sans-serif" font-size="14" lengthAdjust="spacing" textLength="198.8643" x="501.2" y="87.5889">-stripeTesting: StripeTesting</text><text fill="#000000" font-family="sans-serif" font-size="14" lengthAdjust="spacing" textLength="255.2402" x="501.2" y="103.8857">-wiremockTesting: WiremockTesting</text><text fill="#000000" font-family="sans-serif" font-size="14" lengthAdjust="spacing" textLength="332.0078" x="501.2" y="120.1826">-apiArchitectureRunner: ApiArchitectureRunner</text><text fill="#000000" font-family="sans-serif" font-size="14" lengthAdjust="spacing" textLength="239.9346" x="501.2" y="136.4795">-paymentRunner: PaymentRunner</text><line style="stroke:#181818;stroke-width:0.5;" x1="496.2" x2="1166.1209" y1="143.7813" y2="143.7813"/><text fill="#000000" font-family="sans-serif" font-size="14" lengthAdjust="spacing" textLength="659.9209" x="501.2" y="160.7764">+TriptopApplication(stripeTesting, wiremockTesting, apiArchitectureRunner, paymentRunner)</text><text fill="#000000" font-family="sans-serif" font-size="14" lengthAdjust="spacing" text-decoration="underline" textLength="188.8154" x="501.2" y="177.0732">+main(args: String[]): void</text><text fill="#000000" font-family="sans-serif" font-size="14" lengthAdjust="spacing" textLength="248.3633" x="501.2" y="193.3701">-runStripeTest(): TriptopApplication</text><text fill="#000000" font-family="sans-serif" font-size="14" lengthAdjust="spacing" textLength="284.2451" x="501.2" y="209.667">-runWiremockTests(): TriptopApplication</text><text fill="#000000" font-family="sans-serif" font-size="14" lengthAdjust="spacing" textLength="327.168" x="501.2" y="225.9639">-runApiArchitectureDemo(): TriptopApplication</text><text fill="#000000" font-family="sans-serif" font-size="14" lengthAdjust="spacing" textLength="280.4102" x="501.2" y="242.2607">-runPaymentDemo(): TriptopApplication</text></g><!--class PaymentRunner--><g class="entity" data-entity="PaymentRunner" data-source-line="21" data-uid="ent0003" id="entity_PaymentRunner"><rect fill="#F1F1F1" height="91.1875" rx="2.5" ry="2.5" style="stroke:#181818;stroke-width:0.5;" width="414.7666" x="623.77" y="310.5569"/><text fill="#000000" font-family="sans-serif" font-size="14" lengthAdjust="spacing" textLength="112.6357" x="774.8354" y="328.552">PaymentRunner</text><line style="stroke:#181818;stroke-width:0.5;" x1="624.77" x2="1037.5366" y1="336.8538" y2="336.8538"/><text fill="#000000" font-family="sans-serif" font-size="14" lengthAdjust="spacing" textLength="246.1143" x="629.77" y="353.8489">-paymentService: IPaymentService</text><line style="stroke:#181818;stroke-width:0.5;" x1="624.77" x2="1037.5366" y1="361.1506" y2="361.1506"/><text fill="#000000" font-family="sans-serif" font-size="14" lengthAdjust="spacing" textLength="402.7666" x="629.77" y="378.1457">+PaymentRunner(paymentService: PaymentServiceImpl)</text><text fill="#000000" font-family="sans-serif" font-size="14" lengthAdjust="spacing" textLength="84.9502" x="629.77" y="394.4426">+run(): void</text></g><!--class PaymentController--><g class="entity" data-entity="PaymentController" data-source-line="28" data-uid="ent0004" id="entity_PaymentController"><rect fill="#F1F1F1" height="91.1875" rx="2.5" ry="2.5" style="stroke:#181818;stroke-width:0.5;" width="480.5693" x="1073.87" y="310.5569"/><text fill="#000000" font-family="sans-serif" font-size="14" lengthAdjust="spacing" textLength="131.0928" x="1248.6083" y="328.552">PaymentController</text><line style="stroke:#181818;stroke-width:0.5;" x1="1074.87" x2="1553.4393" y1="336.8538" y2="336.8538"/><text fill="#000000" font-family="sans-serif" font-size="14" lengthAdjust="spacing" textLength="246.1143" x="1079.87" y="353.8489">-paymentService: IPaymentService</text><line style="stroke:#181818;stroke-width:0.5;" x1="1074.87" x2="1553.4393" y1="361.1506" y2="361.1506"/><text fill="#000000" font-family="sans-serif" font-size="14" lengthAdjust="spacing" textLength="394.8096" x="1079.87" y="378.1457">+PaymentController(paymentService: IPaymentService)</text><text fill="#000000" font-family="sans-serif" font-size="14" lengthAdjust="spacing" textLength="468.5693" x="1079.87" y="394.4426">+createInvoice(invoiceRequest: InvoiceRequest): InvoiceResponse</text></g><!--class IPaymentService--><g class="entity" data-entity="IPaymentService" data-source-line="35" data-uid="ent0005" id="entity_IPaymentService"><rect fill="#F1F1F1" height="58.5938" rx="2.5" ry="2.5" style="stroke:#181818;stroke-width:0.5;" width="436.1426" x="854.09" y="462.7469"/><text fill="#000000" font-family="sans-serif" font-size="14" font-style="italic" lengthAdjust="spacing" textLength="117.79" x="1013.2663" y="480.742">IPaymentService</text><line style="stroke:#181818;stroke-width:0.5;" x1="855.09" x2="1289.2326" y1="489.0438" y2="489.0438"/><line style="stroke:#181818;stroke-width:0.5;" x1="855.09" x2="1289.2326" y1="497.0438" y2="497.0438"/><text fill="#000000" font-family="sans-serif" font-size="14" lengthAdjust="spacing" textLength="424.1426" x="860.09" y="514.0389">+processInvoice(request: InvoiceRequest): InvoiceResponse</text></g><!--class PaymentServiceImpl--><g class="entity" data-entity="PaymentServiceImpl" data-source-line="40" data-uid="ent0006" id="entity_PaymentServiceImpl"><rect fill="#F1F1F1" height="91.1875" rx="2.5" ry="2.5" style="stroke:#181818;stroke-width:0.5;" width="528.7354" x="807.79" y="582.3369"/><text fill="#000000" font-family="sans-serif" font-size="14" lengthAdjust="spacing" textLength="144.2041" x="1000.0556" y="600.332">PaymentServiceImpl</text><line style="stroke:#181818;stroke-width:0.5;" x1="808.79" x2="1335.5254" y1="608.6338" y2="608.6338"/><text fill="#000000" font-family="sans-serif" font-size="14" lengthAdjust="spacing" textLength="254.208" x="813.79" y="625.6289">-paymentAdapter: IPaymentAdapter</text><line style="stroke:#181818;stroke-width:0.5;" x1="808.79" x2="1335.5254" y1="632.9306" y2="632.9306"/><text fill="#000000" font-family="sans-serif" font-size="14" lengthAdjust="spacing" textLength="516.7354" x="813.79" y="649.9257">+PaymentServiceImpl(paymentAdapterFactory: PaymentAdapterFactory)</text><text fill="#000000" font-family="sans-serif" font-size="14" lengthAdjust="spacing" textLength="424.1426" x="813.79" y="666.2226">+processInvoice(request: InvoiceRequest): InvoiceResponse</text></g><!--class IPaymentAdapter--><g class="entity" data-entity="IPaymentAdapter" data-source-line="47" data-uid="ent0008" id="entity_IPaymentAdapter"><rect fill="#F1F1F1" height="74.8906" rx="2.5" ry="2.5" style="stroke:#181818;stroke-width:0.5;" width="498.0625" x="1066.13" y="823.8669"/><text fill="#000000" font-family="sans-serif" font-size="14" font-style="italic" lengthAdjust="spacing" textLength="121.8369" x="1254.2428" y="841.862">IPaymentAdapter</text><line style="stroke:#181818;stroke-width:0.5;" x1="1067.13" x2="1563.1925" y1="850.1638" y2="850.1638"/><line style="stroke:#181818;stroke-width:0.5;" x1="1067.13" x2="1563.1925" y1="858.1638" y2="858.1638"/><text fill="#000000" font-family="sans-serif" font-size="14" lengthAdjust="spacing" textLength="486.0625" x="1072.13" y="875.1589">+processInvoicePayment(request: InvoiceRequest): InvoiceResponse</text><text fill="#000000" font-family="sans-serif" font-size="14" lengthAdjust="spacing" textLength="163.167" x="1072.13" y="891.4557">+isAvailable(): boolean</text></g><!--class PaymentAdapterFactory--><g class="entity" data-entity="PaymentAdapterFactory" data-source-line="53" data-uid="ent0009" id="entity_PaymentAdapterFactory"><rect fill="#F1F1F1" height="221.5625" rx="2.5" ry="2.5" style="stroke:#181818;stroke-width:0.5;" width="536.1387" x="495.09" y="750.5269"/><text fill="#000000" font-family="sans-serif" font-size="14" lengthAdjust="spacing" textLength="170.1328" x="678.0929" y="768.522">PaymentAdapterFactory</text><line style="stroke:#181818;stroke-width:0.5;" x1="496.09" x2="1030.2287" y1="776.8238" y2="776.8238"/><text fill="#000000" font-family="sans-serif" font-size="14" lengthAdjust="spacing" textLength="331.085" x="501.09" y="793.8189">-stripePaymentAdapter: StripePaymentAdapter</text><text fill="#000000" font-family="sans-serif" font-size="14" lengthAdjust="spacing" textLength="343.4033" x="501.09" y="810.1157">-paypalPaymentAdapter: PaypalPaymentAdapter</text><text fill="#000000" font-family="sans-serif" font-size="14" lengthAdjust="spacing" textLength="118.5762" x="501.09" y="826.4126">-failureCount: int</text><text fill="#000000" font-family="sans-serif" font-size="14" lengthAdjust="spacing" textLength="152.0313" x="501.09" y="842.7095">-lastFailureTime: long</text><text fill="#000000" font-family="sans-serif" font-size="14" lengthAdjust="spacing" text-decoration="underline" textLength="167.5215" x="501.09" y="859.0064">-MAX_FAILURES: int = 3</text><text fill="#000000" font-family="sans-serif" font-size="14" lengthAdjust="spacing" text-decoration="underline" textLength="252.8477" x="501.09" y="875.3032">-RESET_TIMEOUT_MS: long = 30000</text><line style="stroke:#181818;stroke-width:0.5;" x1="496.09" x2="1030.2287" y1="882.605" y2="882.605"/><text fill="#000000" font-family="sans-serif" font-size="14" lengthAdjust="spacing" textLength="524.1387" x="501.09" y="899.6001">+PaymentAdapterFactory(stripePaymentAdapter, paypalPaymentAdapter)</text><text fill="#000000" font-family="sans-serif" font-size="14" lengthAdjust="spacing" textLength="294.3555" x="501.09" y="915.897">+getPaymentAdapter(): IPaymentAdapter</text><text fill="#000000" font-family="sans-serif" font-size="14" lengthAdjust="spacing" textLength="184.6934" x="501.09" y="932.1939">-isCircuitClosed(): boolean</text><text fill="#000000" font-family="sans-serif" font-size="14" lengthAdjust="spacing" textLength="147.6973" x="501.09" y="948.4907">-recordFailure(): void</text><text fill="#000000" font-family="sans-serif" font-size="14" lengthAdjust="spacing" textLength="135.9053" x="501.09" y="964.7876">-resetCircuit(): void</text></g><!--class StripePaymentAdapter--><g class="entity" data-entity="StripePaymentAdapter" data-source-line="68" data-uid="ent0010" id="entity_StripePaymentAdapter"><rect fill="#F1F1F1" height="91.1875" rx="2.5" ry="2.5" style="stroke:#181818;stroke-width:0.5;" width="498.0625" x="506.13" y="1089.8369"/><text fill="#000000" font-family="sans-serif" font-size="14" lengthAdjust="spacing" textLength="159.2295" x="675.5465" y="1107.832">StripePaymentAdapter</text><line style="stroke:#181818;stroke-width:0.5;" x1="507.13" x2="1003.1925" y1="1116.1338" y2="1116.1338"/><text fill="#000000" font-family="sans-serif" font-size="14" lengthAdjust="spacing" textLength="103.4346" x="512.13" y="1133.1289">-apiKey: String</text><line style="stroke:#181818;stroke-width:0.5;" x1="507.13" x2="1003.1925" y1="1140.4306" y2="1140.4306"/><text fill="#000000" font-family="sans-serif" font-size="14" lengthAdjust="spacing" textLength="486.0625" x="512.13" y="1157.4257">+processInvoicePayment(request: InvoiceRequest): InvoiceResponse</text><text fill="#000000" font-family="sans-serif" font-size="14" lengthAdjust="spacing" textLength="163.167" x="512.13" y="1173.7226">+isAvailable(): boolean</text></g><!--class PaypalPaymentAdapter--><g class="entity" data-entity="PaypalPaymentAdapter" data-source-line="75" data-uid="ent0012" id="entity_PaypalPaymentAdapter"><rect fill="#F1F1F1" height="172.6719" rx="2.5" ry="2.5" style="stroke:#181818;stroke-width:0.5;" width="551.8477" x="1039.23" y="1049.0869"/><text fill="#000000" font-family="sans-serif" font-size="14" lengthAdjust="spacing" textLength="164.3701" x="1232.9688" y="1067.082">PaypalPaymentAdapter</text><line style="stroke:#181818;stroke-width:0.5;" x1="1040.23" x2="1590.0777" y1="1075.3838" y2="1075.3838"/><text fill="#000000" font-family="sans-serif" font-size="14" lengthAdjust="spacing" textLength="154.4102" x="1045.23" y="1092.3789">-httpClient: HttpClient</text><text fill="#000000" font-family="sans-serif" font-size="14" lengthAdjust="spacing" textLength="127.4834" x="1045.23" y="1108.6757">-CLIENT_ID: String</text><text fill="#000000" font-family="sans-serif" font-size="14" lengthAdjust="spacing" textLength="110.6328" x="1045.23" y="1124.9726">-SECRET: String</text><text fill="#000000" font-family="sans-serif" font-size="14" lengthAdjust="spacing" textLength="195.7949" x="1045.23" y="1141.2695">-encodedCredentials: String</text><line style="stroke:#181818;stroke-width:0.5;" x1="1040.23" x2="1590.0777" y1="1148.5713" y2="1148.5713"/><text fill="#000000" font-family="sans-serif" font-size="14" lengthAdjust="spacing" textLength="187.0244" x="1045.23" y="1165.5664">+PaypalPaymentAdapter()</text><text fill="#000000" font-family="sans-serif" font-size="14" lengthAdjust="spacing" textLength="539.8477" x="1045.23" y="1181.8632">+processInvoicePayment(invoiceRequest: InvoiceRequest): InvoiceResponse</text><text fill="#000000" font-family="sans-serif" font-size="14" lengthAdjust="spacing" textLength="163.167" x="1045.23" y="1198.1601">+isAvailable(): boolean</text><text fill="#000000" font-family="sans-serif" font-size="14" lengthAdjust="spacing" textLength="180.7969" x="1045.23" y="1214.457">-getAccessToken(): String</text></g><!--class InvoiceRequest--><g class="entity" data-entity="InvoiceRequest" data-source-line="87" data-uid="ent0014" id="entity_InvoiceRequest"><rect fill="#F1F1F1" height="170.3438" rx="2.5" ry="2.5" style="stroke:#181818;stroke-width:0.5;" width="464.3135" x="7" y="1050.2569"/><text fill="#000000" font-family="sans-serif" font-size="12" font-style="italic" lengthAdjust="spacing" textLength="53.4902" x="212.4116" y="1066.3955">&#171;record&#187;</text><text fill="#000000" font-family="sans-serif" font-size="14" lengthAdjust="spacing" textLength="107.5498" x="185.3818" y="1082.2207">InvoiceRequest</text><line style="stroke:#181818;stroke-width:0.5;" x1="8" x2="470.3135" y1="1090.5225" y2="1090.5225"/><text fill="#000000" font-family="sans-serif" font-size="14" lengthAdjust="spacing" textLength="99.5518" x="13" y="1107.5176">-userId: String</text><text fill="#000000" font-family="sans-serif" font-size="14" lengthAdjust="spacing" textLength="102.3613" x="13" y="1123.8145">-amount: Long</text><text fill="#000000" font-family="sans-serif" font-size="14" lengthAdjust="spacing" textLength="117.5508" x="13" y="1140.1114">-currency: String</text><line style="stroke:#181818;stroke-width:0.5;" x1="8" x2="470.3135" y1="1147.4131" y2="1147.4131"/><text fill="#000000" font-family="sans-serif" font-size="14" lengthAdjust="spacing" textLength="452.3135" x="13" y="1164.4082">+InvoiceRequest(userId: String, amount: Long, currency: String)</text><text fill="#000000" font-family="sans-serif" font-size="14" lengthAdjust="spacing" textLength="117.1543" x="13" y="1180.7051">+userId(): String</text><text fill="#000000" font-family="sans-serif" font-size="14" lengthAdjust="spacing" textLength="119.9639" x="13" y="1197.002">+amount(): Long</text><text fill="#000000" font-family="sans-serif" font-size="14" lengthAdjust="spacing" textLength="135.1533" x="13" y="1213.2989">+currency(): String</text></g><!--class InvoiceResponse--><g class="entity" data-entity="InvoiceResponse" data-source-line="97" data-uid="ent0015" id="entity_InvoiceResponse"><rect fill="#F1F1F1" height="154.0469" rx="2.5" ry="2.5" style="stroke:#181818;stroke-width:0.5;" width="620.1045" x="1626.1" y="1058.4069"/><text fill="#000000" font-family="sans-serif" font-size="12" font-style="italic" lengthAdjust="spacing" textLength="53.4902" x="1909.4071" y="1074.5455">&#171;record&#187;</text><text fill="#000000" font-family="sans-serif" font-size="14" lengthAdjust="spacing" textLength="117.9199" x="1877.1923" y="1090.3707">InvoiceResponse</text><line style="stroke:#181818;stroke-width:0.5;" x1="1627.1" x2="2245.2045" y1="1098.6725" y2="1098.6725"/><text fill="#000000" font-family="sans-serif" font-size="14" lengthAdjust="spacing" textLength="118.8291" x="1632.1" y="1115.6676">-invoiceId: String</text><text fill="#000000" font-family="sans-serif" font-size="14" lengthAdjust="spacing" textLength="117.5508" x="1632.1" y="1131.9645">-currency: String</text><text fill="#000000" font-family="sans-serif" font-size="14" lengthAdjust="spacing" textLength="110.0176" x="1632.1" y="1148.2614">-amount: String</text><text fill="#000000" font-family="sans-serif" font-size="14" lengthAdjust="spacing" textLength="114.6387" x="1632.1" y="1164.5582">-provider: String</text><line style="stroke:#181818;stroke-width:0.5;" x1="1627.1" x2="2245.2045" y1="1171.86" y2="1171.86"/><text fill="#000000" font-family="sans-serif" font-size="14" lengthAdjust="spacing" textLength="608.1045" x="1632.1" y="1188.8551">+InvoiceResponse(invoiceId: String, currency: String, amount: String, provider: String)</text><text fill="#000000" font-family="sans-serif" font-size="14" lengthAdjust="spacing" textLength="129.4385" x="1632.1" y="1205.152">+toString(): String</text></g><!--reverse link IPaymentService to PaymentServiceImpl--><g class="link" data-entity-1="IPaymentService" data-entity-2="PaymentServiceImpl" data-source-line="41" data-uid="lnk7" id="link_IPaymentService_PaymentServiceImpl"><path d="M1059.2976,539.6353 C1057.1676,557.1553 1058.86,562.0569 1060.04,581.9269" fill="none" id="IPaymentService-backto-PaymentServiceImpl" style="stroke:#181818;stroke-width:1;stroke-dasharray:7.0,7.0;"/><polygon fill="none" points="1061.47,521.7669,1053.3415,538.9112,1065.2538,540.3594,1061.47,521.7669" style="stroke:#181818;stroke-width:1;"/></g><!--reverse link IPaymentService to PaymentServiceImpl--><g class="link" data-entity-1="IPaymentService" data-entity-2="PaymentServiceImpl" data-source-line="130" data-uid="lnk23" id="link_IPaymentService_PaymentServiceImpl"><path codeLine="130" d="M1085.7728,539.619 C1088.0328,557.139 1086.24,562.0569 1084.99,581.9269" fill="none" id="IPaymentService-backto-PaymentServiceImpl-1" style="stroke:#181818;stroke-width:1;stroke-dasharray:7.0,7.0;"/><polygon fill="none" points="1083.47,521.7669,1079.8221,540.3866,1091.7235,538.8513,1083.47,521.7669" style="stroke:#181818;stroke-width:1;"/></g><!--reverse link IPaymentAdapter to StripePaymentAdapter--><g class="link" data-entity-1="IPaymentAdapter" data-entity-2="StripePaymentAdapter" data-source-line="69" data-uid="lnk11" id="link_IPaymentAdapter_StripePaymentAdapter"><path d="M1213.9556,906.7308 C1107.5356,956.1708 943.07,1036.3269 837.74,1089.5569" fill="none" id="IPaymentAdapter-backto-StripePaymentAdapter" style="stroke:#181818;stroke-width:1;stroke-dasharray:7.0,7.0;"/><polygon fill="none" points="1230.28,899.1469,1211.4277,901.2893,1216.4836,912.1722,1230.28,899.1469" style="stroke:#181818;stroke-width:1;"/></g><!--reverse link IPaymentAdapter to StripePaymentAdapter--><g class="link" data-entity-1="IPaymentAdapter" data-entity-2="StripePaymentAdapter" data-source-line="133" data-uid="lnk25" id="link_IPaymentAdapter_StripePaymentAdapter"><path codeLine="133" d="M1232.9009,907.3363 C1136.1909,956.7463 972.09,1036.1969 858.07,1089.4369" fill="none" id="IPaymentAdapter-backto-StripePaymentAdapter-1" style="stroke:#181818;stroke-width:1;stroke-dasharray:7.0,7.0;"/><polygon fill="none" points="1248.93,899.1469,1230.1711,901.9933,1235.6307,912.6793,1248.93,899.1469" style="stroke:#181818;stroke-width:1;"/></g><!--reverse link IPaymentAdapter to PaypalPaymentAdapter--><g class="link" data-entity-1="IPaymentAdapter" data-entity-2="PaypalPaymentAdapter" data-source-line="76" data-uid="lnk13" id="link_IPaymentAdapter_PaypalPaymentAdapter"><path d="M1304.4101,916.9264 C1300.7901,955.0864 1301.52,998.2369 1303.21,1048.6169" fill="none" id="IPaymentAdapter-backto-PaypalPaymentAdapter" style="stroke:#181818;stroke-width:1;stroke-dasharray:7.0,7.0;"/><polygon fill="none" points="1306.11,899.0069,1298.4369,916.3598,1310.3833,917.4931,1306.11,899.0069" style="stroke:#181818;stroke-width:1;"/></g><!--reverse link IPaymentAdapter to PaypalPaymentAdapter--><g class="link" data-entity-1="IPaymentAdapter" data-entity-2="PaypalPaymentAdapter" data-source-line="134" data-uid="lnk26" id="link_IPaymentAdapter_PaypalPaymentAdapter"><path codeLine="134" d="M1326.5322,916.9164 C1330.3722,955.0764 1329.59,998.2369 1327.8,1048.6169" fill="none" id="IPaymentAdapter-backto-PaypalPaymentAdapter-1" style="stroke:#181818;stroke-width:1;stroke-dasharray:7.0,7.0;"/><polygon fill="none" points="1324.73,899.0069,1320.5624,917.5172,1332.5021,916.3157,1324.73,899.0069" style="stroke:#181818;stroke-width:1;"/></g><!--link TriptopApplication to PaymentRunner--><g class="link" data-entity-1="TriptopApplication" data-entity-2="PaymentRunner" data-source-line="125" data-uid="lnk20" id="link_TriptopApplication_PaymentRunner"><path codeLine="125" d="M831.16,262.0269 C831.16,283.1669 831.16,286.4069 831.16,304.1969" fill="none" id="TriptopApplication-PaymentRunner" style="stroke:#181818;stroke-width:1;"/><polygon fill="none" points="831.16,250.0269,827.16,256.0269,831.16,262.0269,835.16,256.0269,831.16,250.0269" style="stroke:#181818;stroke-width:1;"/><polygon fill="#181818" points="831.16,310.1969,835.16,301.1969,831.16,305.1969,827.16,301.1969,831.16,310.1969" style="stroke:#181818;stroke-width:1;"/></g><!--link PaymentRunner to IPaymentService--><g class="link" data-entity-1="PaymentRunner" data-entity-2="IPaymentService" data-source-line="126" data-uid="lnk21" id="link_PaymentRunner_IPaymentService"><path codeLine="126" d="M922.5686,407.9368 C958.3886,427.8468 983.7347,441.9236 1015.3147,459.4636" fill="none" id="PaymentRunner-IPaymentService" style="stroke:#181818;stroke-width:1;"/><polygon fill="none" points="912.08,402.1069,915.381,408.5181,922.5686,407.9368,919.2676,401.5256,912.08,402.1069" style="stroke:#181818;stroke-width:1;"/><polygon fill="#181818" points="1020.56,462.3769,1014.6343,454.5101,1016.189,459.9491,1010.7499,461.5038,1020.56,462.3769" style="stroke:#181818;stroke-width:1;"/></g><!--link PaymentController to IPaymentService--><g class="link" data-entity-1="PaymentController" data-entity-2="IPaymentService" data-source-line="128" data-uid="lnk22" id="link_PaymentController_IPaymentService"><path codeLine="128" d="M1222.401,407.9182 C1186.431,427.8282 1160.9303,441.9327 1129.2203,459.4727" fill="none" id="PaymentController-IPaymentService" style="stroke:#181818;stroke-width:1;"/><polygon fill="none" points="1232.9,402.1069,1225.7134,401.5129,1222.401,407.9182,1229.5876,408.5122,1232.9,402.1069" style="stroke:#181818;stroke-width:1;"/><polygon fill="#181818" points="1123.97,462.3769,1133.7816,461.5209,1128.3453,459.9567,1129.9094,454.5204,1123.97,462.3769" style="stroke:#181818;stroke-width:1;"/></g><!--link PaymentServiceImpl to IPaymentAdapter--><g class="link" data-entity-1="PaymentServiceImpl" data-entity-2="IPaymentAdapter" data-source-line="131" data-uid="lnk24" id="link_PaymentServiceImpl_IPaymentAdapter"><path codeLine="131" d="M1127.9904,682.0919 C1173.8104,725.7219 1229.5248,778.7694 1272.2048,819.4094" fill="none" id="PaymentServiceImpl-IPaymentAdapter" style="stroke:#181818;stroke-width:1;"/><polygon fill="none" points="1119.3,673.8169,1120.8869,680.8512,1127.9904,682.0919,1126.4036,675.0576,1119.3,673.8169" style="stroke:#181818;stroke-width:1;"/><polygon fill="#181818" points="1276.55,823.5469,1272.7905,814.4438,1272.929,820.0989,1267.2738,820.2374,1276.55,823.5469" style="stroke:#181818;stroke-width:1;"/></g><!--link PaymentAdapterFactory to StripePaymentAdapter--><g class="link" data-entity-1="PaymentAdapterFactory" data-entity-2="StripePaymentAdapter" data-source-line="136" data-uid="lnk27" id="link_PaymentAdapterFactory_StripePaymentAdapter"><path codeLine="136" d="M759.576,984.2017 C758.366,1025.2017 757.5966,1051.5195 756.6566,1083.4395" fill="none" id="PaymentAdapterFactory-StripePaymentAdapter" style="stroke:#181818;stroke-width:1;"/><polygon fill="none" points="759.93,972.2069,755.7547,978.0863,759.576,984.2017,763.7513,978.3223,759.93,972.2069" style="stroke:#181818;stroke-width:1;"/><polygon fill="#181818" points="756.48,1089.4369,760.7432,1080.5585,756.6272,1084.439,752.7467,1080.323,756.48,1089.4369" style="stroke:#181818;stroke-width:1;"/></g><!--link PaymentAdapterFactory to PaypalPaymentAdapter--><g class="link" data-entity-1="PaymentAdapterFactory" data-entity-2="PaypalPaymentAdapter" data-source-line="137" data-uid="lnk28" id="link_PaymentAdapterFactory_PaypalPaymentAdapter"><path codeLine="137" d="M997.2434,977.7024 C1048.8334,1003.1324 1086.8184,1021.8639 1135.9284,1046.0739" fill="none" id="PaymentAdapterFactory-PaypalPaymentAdapter" style="stroke:#181818;stroke-width:1;"/><polygon fill="none" points="986.48,972.3969,990.0932,978.6375,997.2434,977.7024,993.6302,971.4618,986.48,972.3969" style="stroke:#181818;stroke-width:1;"/><polygon fill="#181818" points="1141.31,1048.7269,1135.0063,1041.1597,1136.8253,1046.516,1131.4689,1048.3351,1141.31,1048.7269" style="stroke:#181818;stroke-width:1;"/></g><!--link PaymentServiceImpl to PaymentAdapterFactory--><g class="link" data-entity-1="PaymentServiceImpl" data-entity-2="PaymentAdapterFactory" data-source-line="138" data-uid="lnk29" id="link_PaymentServiceImpl_PaymentAdapterFactory"><path codeLine="138" d="M1012.21,673.8169 C982.99,695.6969 951.2434,719.4814 915.2134,746.4514" fill="none" id="PaymentServiceImpl-to-PaymentAdapterFactory" style="stroke:#181818;stroke-width:1;"/><polygon fill="#181818" points="910.41,750.0469,920.012,747.8558,914.4128,747.0506,915.218,741.4514,910.41,750.0469" style="stroke:#181818;stroke-width:1;"/><text fill="#000000" font-family="sans-serif" font-size="13" lengthAdjust="spacing" textLength="29.7832" x="973.16" y="716.5938">uses</text></g><!--link StripePaymentAdapter to Stripe--><g class="link" data-entity-1="StripePaymentAdapter" data-entity-2="Stripe" data-source-line="140" data-uid="lnk30" id="link_StripePaymentAdapter_Stripe"><path codeLine="140" d="M800.73,1181.4569 C827.79,1208.6069 862.5,1244.1369 892.16,1276.7669 C912.22,1298.8369 930.1897,1320.0803 946.1097,1339.3603" fill="none" id="StripePaymentAdapter-to-Stripe" style="stroke:#181818;stroke-width:1;stroke-dasharray:7.0,7.0;"/><polygon fill="#181818" points="949.93,1343.9869,947.2839,1334.5001,946.7464,1340.1314,941.1152,1339.5939,949.93,1343.9869" style="stroke:#181818;stroke-width:1;"/><text fill="#000000" font-family="sans-serif" font-size="13" lengthAdjust="spacing" textLength="29.7832" x="882.16" y="1264.8338">uses</text></g><!--link StripePaymentAdapter to StripeInvoice--><g class="link" data-entity-1="StripePaymentAdapter" data-entity-2="StripeInvoice" data-source-line="141" data-uid="lnk31" id="link_StripePaymentAdapter_StripeInvoice"><path codeLine="141" d="M744.68,1181.3869 C735.52,1220.7169 723.5611,1272.0533 713.8811,1313.6133" fill="none" id="StripePaymentAdapter-to-StripeInvoice" style="stroke:#181818;stroke-width:1;stroke-dasharray:7.0,7.0;"/><polygon fill="#181818" points="712.52,1319.4569,718.4573,1311.5989,713.6542,1314.5872,710.6659,1309.7841,712.52,1319.4569" style="stroke:#181818;stroke-width:1;"/><text fill="#000000" font-family="sans-serif" font-size="13" lengthAdjust="spacing" textLength="48.3247" x="728.16" y="1264.8338">creates</text></g><!--link PaypalPaymentAdapter to HttpClient--><g class="link" data-entity-1="PaypalPaymentAdapter" data-entity-2="HttpClient" data-source-line="142" data-uid="lnk32" id="link_PaypalPaymentAdapter_HttpClient"><path codeLine="142" d="M1315.16,1233.9869 C1315.16,1276.7469 1315.16,1307.6569 1315.16,1337.8169" fill="none" id="PaypalPaymentAdapter-HttpClient" style="stroke:#181818;stroke-width:1;"/><polygon fill="none" points="1315.16,1221.9869,1311.16,1227.9869,1315.16,1233.9869,1319.16,1227.9869,1315.16,1221.9869" style="stroke:#181818;stroke-width:1;"/><polygon fill="#181818" points="1315.16,1343.8169,1319.16,1334.8169,1315.16,1338.8169,1311.16,1334.8169,1315.16,1343.8169" style="stroke:#181818;stroke-width:1;"/></g><!--link PaymentController to InvoiceRequest--><g class="link" data-entity-1="PaymentController" data-entity-2="InvoiceRequest" data-source-line="144" data-uid="lnk33" id="link_PaymentController_InvoiceRequest"><path codeLine="144" d="M1073.54,399.0969 C1067.69,399.9969 1061.89,400.8869 1056.16,401.7469 C978.84,413.3669 358.16,412.8569 358.16,491.0469 C358.16,491.0469 358.16,491.0469 358.16,862.3069 C358.16,929.2069 330.6091,993.0118 300.4591,1044.7918" fill="none" id="PaymentController-to-InvoiceRequest" style="stroke:#181818;stroke-width:1;stroke-dasharray:7.0,7.0;"/><polygon fill="#181818" points="297.44,1049.9769,305.4254,1044.212,299.9559,1045.656,298.512,1040.1865,297.44,1049.9769" style="stroke:#181818;stroke-width:1;"/><text fill="#000000" font-family="sans-serif" font-size="13" lengthAdjust="spacing" textLength="29.7832" x="359.16" y="632.5038">uses</text></g><!--link PaymentController to InvoiceResponse--><g class="link" data-entity-1="PaymentController" data-entity-2="InvoiceResponse" data-source-line="145" data-uid="lnk34" id="link_PaymentController_InvoiceResponse"><path codeLine="145" d="M1554.89,366.3969 C1724.74,379.7469 1922.16,412.2069 1922.16,491.0469 C1922.16,491.0469 1922.16,491.0469 1922.16,862.3069 C1922.16,928.4169 1925.9138,997.4613 1929.7038,1051.9613" fill="none" id="PaymentController-to-InvoiceResponse" style="stroke:#181818;stroke-width:1;stroke-dasharray:7.0,7.0;"/><polygon fill="#181818" points="1930.12,1057.9469,1933.486,1048.6911,1929.7731,1052.9589,1925.5053,1049.2461,1930.12,1057.9469" style="stroke:#181818;stroke-width:1;"/><text fill="#000000" font-family="sans-serif" font-size="13" lengthAdjust="spacing" textLength="47.0361" x="1923.16" y="632.5038">returns</text></g><!--link PaymentRunner to InvoiceRequest--><g class="link" data-entity-1="PaymentRunner" data-entity-2="InvoiceRequest" data-source-line="146" data-uid="lnk35" id="link_PaymentRunner_InvoiceRequest"><path codeLine="146" d="M623.34,365.3069 C452.4,377.8869 238.16,409.8369 238.16,491.0469 C238.16,491.0469 238.16,491.0469 238.16,862.3069 C238.16,925.1469 238.401,990.1369 238.661,1043.8469" fill="none" id="PaymentRunner-to-InvoiceRequest" style="stroke:#181818;stroke-width:1;stroke-dasharray:7.0,7.0;"/><polygon fill="#181818" points="238.69,1049.8469,242.6464,1040.8276,238.6658,1044.8469,234.6465,1040.8663,238.69,1049.8469" style="stroke:#181818;stroke-width:1;"/><text fill="#000000" font-family="sans-serif" font-size="13" lengthAdjust="spacing" textLength="48.3247" x="239.16" y="632.5038">creates</text></g><!--link PaymentRunner to InvoiceResponse--><g class="link" data-entity-1="PaymentRunner" data-entity-2="InvoiceResponse" data-source-line="147" data-uid="lnk36" id="link_PaymentRunner_InvoiceResponse"><path codeLine="147" d="M1038.85,398.8769 C1044.68,399.8669 1050.46,400.8269 1056.16,401.7469 C1135.09,414.4869 1770.16,411.0969 1770.16,491.0469 C1770.16,491.0469 1770.16,491.0469 1770.16,862.3069 C1770.16,936.3269 1811.5829,1002.7063 1854.8629,1053.5963" fill="none" id="PaymentRunner-to-InvoiceResponse" style="stroke:#181818;stroke-width:1;stroke-dasharray:7.0,7.0;"/><polygon fill="#181818" points="1858.75,1058.1669,1855.9664,1048.7196,1855.5107,1054.358,1849.8723,1053.9024,1858.75,1058.1669" style="stroke:#181818;stroke-width:1;"/><text fill="#000000" font-family="sans-serif" font-size="13" lengthAdjust="spacing" textLength="54.5645" x="1771.16" y="632.5038">receives</text></g><!--link IPaymentService to InvoiceRequest--><g class="link" data-entity-1="IPaymentService" data-entity-2="InvoiceRequest" data-source-line="149" data-uid="lnk37" id="link_IPaymentService_InvoiceRequest"><path codeLine="149" d="M910.94,521.8369 C775.81,554.3769 587.73,620.7169 477.16,750.5269 C395.25,846.6869 457.15,915.9969 384.16,1019.0869 C376.54,1029.8569 371.8628,1035.8644 362.2828,1045.5344" fill="none" id="IPaymentService-to-InvoiceRequest" style="stroke:#181818;stroke-width:1;stroke-dasharray:7.0,7.0;"/><polygon fill="#181818" points="358.06,1049.7969,367.2358,1046.2184,361.579,1046.2449,361.5525,1040.5881,358.06,1049.7969" style="stroke:#181818;stroke-width:1;"/><text fill="#000000" font-family="sans-serif" font-size="13" lengthAdjust="spacing" textLength="65.0127" x="522.16" y="716.5938">processes</text></g><!--link IPaymentService to InvoiceResponse--><g class="link" data-entity-1="IPaymentService" data-entity-2="InvoiceResponse" data-source-line="150" data-uid="lnk38" id="link_IPaymentService_InvoiceResponse"><path codeLine="150" d="M1192.89,521.8269 C1244.14,536.4269 1303.59,556.5869 1354.16,582.3369 C1466.36,639.4969 1497.34,657.4569 1582.16,750.5269 C1676.05,853.5569 1645.5,920.6169 1744.16,1019.0869 C1758.19,1033.0969 1769.3634,1042.6394 1786.0834,1054.4794" fill="none" id="IPaymentService-to-InvoiceResponse" style="stroke:#181818;stroke-width:1;stroke-dasharray:7.0,7.0;"/><polygon fill="#181818" points="1790.98,1057.9469,1785.9467,1049.4813,1786.8995,1055.0573,1781.3235,1056.0101,1790.98,1057.9469" style="stroke:#181818;stroke-width:1;"/><text fill="#000000" font-family="sans-serif" font-size="13" lengthAdjust="spacing" textLength="47.0361" x="1554.16" y="716.5938">returns</text></g><!--link IPaymentAdapter to InvoiceRequest--><g class="link" data-entity-1="IPaymentAdapter" data-entity-2="InvoiceRequest" data-source-line="151" data-uid="lnk39" id="link_IPaymentAdapter_InvoiceRequest"><path codeLine="151" d="M1240.42,899.1869 C1188.07,923.4969 1115.83,954.0769 1049.16,972.0869 C806.2,1037.7369 733.01,990.9069 488.16,1049.0869 C482.71,1050.3869 483.0289,1050.2447 477.4989,1051.6747" fill="none" id="IPaymentAdapter-to-InvoiceRequest" style="stroke:#181818;stroke-width:1;stroke-dasharray:7.0,7.0;"/><polygon fill="#181818" points="471.69,1053.1769,481.4048,1054.7963,476.5308,1051.9251,479.402,1047.0511,471.69,1053.1769" style="stroke:#181818;stroke-width:1;"/><text fill="#000000" font-family="sans-serif" font-size="13" lengthAdjust="spacing" textLength="65.0127" x="899.16" y="1015.1538">processes</text></g><!--link IPaymentAdapter to InvoiceResponse--><g class="link" data-entity-1="IPaymentAdapter" data-entity-2="InvoiceResponse" data-source-line="152" data-uid="lnk40" id="link_IPaymentAdapter_InvoiceResponse"><path codeLine="152" d="M1362.41,899.0369 C1409.17,933.9269 1483.89,985.8569 1555.16,1019.0869 C1585.61,1033.2869 1612.5967,1044.2469 1645.4767,1055.9369" fill="none" id="IPaymentAdapter-to-InvoiceResponse" style="stroke:#181818;stroke-width:1;stroke-dasharray:7.0,7.0;"/><polygon fill="#181818" points="1651.13,1057.9469,1643.99,1051.1631,1646.4189,1056.2719,1641.31,1058.7008,1651.13,1057.9469" style="stroke:#181818;stroke-width:1;"/><text fill="#000000" font-family="sans-serif" font-size="13" lengthAdjust="spacing" textLength="47.0361" x="1556.16" y="1015.1538">returns</text></g><!--SRC=[lLVRRkCs47tNLn1vgOmuxW9zCz80NiN12esxHgn52nH5m52pDcjPL4dQRRhDlvTNMwHOfocAviNHSEPmvin58x6bROSvtY7IO25cKdBwj9TG4jQkw1-0tcKRMWCYb9C6ianIsG2wg3ZjAjQX9NxUGIlH7M2vvu2kKA5Xq2t5QmLwaMLVeGMcBS9Trr229MLjPcv26aAoRdOwG5yof124Sg632eIaxNgALlr7e_0RvR1ZP7jK-I4K62NSqHad6og1QCyUzcqBV8fcAR4nw6meNd7PVrGAbmc7yy3LSUpOEEt4EBngPC2_2AaWoGlQARPopDV2HjwkV_fvD4K7HclZ9T-t9q9oTJBqoklrMH7dLIDMRfNTUGF7pXd55vrwnvvDUC2eoxLZOWNyG0bCKRaC18QQm2wFBKA3SjSrbb3bPEw9CxuKh9MSDKtipqd-TfzEjlahLjOfmbMVGDaghmZarFu-mAzxbI9b4ZoFUWBHiLQ0ZSC1gaC9_3DM3b7_Ntof2UWITPmH4C9Vo__bVOfQqE3z9XwoZwZN4qbtZlpEQjn9tMbUomdw_FPmyz3i3XF9-FCn_w5uz1_4xKURGpxBjzT9yUrKtd2zng1YTi2qmKyDw39-Ogm1xBhAt-Q2LMD7Rb2X1lIUIlHUbTWshl6GdM3EBgDih19IdxOEDx7wCY4rwf-LzsgK56pVgfWLPKQgd99tzgIYEzKc3NFp-ZW05xCV7-zcvVsdX_dA6A9lqJUXYZgPLuzLkPX__5GzBbOMHkkzKt_z0We3prCXZvEHsGfQWmp5EXTb8beg7Fz5mmJK_PIPYGc4yTe5dWVp70H8PnlEAvi8dsoNprHsKXtNBqZpBlmEdlqBvN-fKOMun4taVQfONlT-8sLND1Hq7Nqu_c-EYljo_dtrMDxsOhj2gtdnCAy24RI4rL0N76fbIt4Z0ZPIZkMZCqIzUNIVuKlxfmfjHlGz5Tk2UN4vxmoPjzL7krU1S4o6zw7hQrjXDpUEixq0NjO11NXdM_7UTnpPSwvu2UiY1Cv3d740CXuWMCQiJIy6BRI6MkZklpnQXz56yLdwXW6w14Gn9a8w1TuJgQGUr5RBqw7RE_F15SE0nn7uU81iAP7CFiM9dV-k2grLVN9FdpZc5CJNisKfiWwJBLwhFNkeS648i2nT4BQRs9asiPFX0c4_98nUi5eEne3o8GMrKwtIJ1mTFKGd6GBRjIOttn7YMFk5aIwDyDGHpbOLV5GZJbeCg-9ujW29QoonFblWxjgJRdzleeX-mGSyQK5Ez02Pd2Q7YUZqU0n7G5kV9g1MS5qmHXlSrerEwdjMFt-m3oElS-pm5xVqGcDM9B6XdSWIdpdiwkec-hu8TsEZ4A-TsN1VJUl5MzVrdvD9Og7A4hjR0EXdTnQFPGEOt1EIciaL8Kjl9iQ19FGP_UG5YUXwj4SmKpsqH9ObNw-JYNV9wxsYvljawXf3PCaNd_6zzq9B95XZHgFUkV2AhXkRKxLVg0-wLaG5biJjEVjtgZrO0lIWAOkhBGdjNg9A_wpwmEiomV4_04-gn-1_0G00]--></g></svg>