<svg xmlns="http://www.w3.org/2000/svg" xmlns:xlink="http://www.w3.org/1999/xlink" contentStyleType="text/css" data-diagram-type="CLASS" height="466px" preserveAspectRatio="none" style="width:780px;height:466px;background:#FFFFFF;" version="1.1" viewBox="0 0 780 466" width="780px" zoomAndPan="magnify"><defs/><g><!--cluster ese--><g class="cluster" data-entity="ese" data-source-line="2" data-uid="ent0004" id="cluster_ese"><path d="M8.5,6 L36.8232,6 A3.75,3.75 0 0 1 39.3232,8.5 L46.3232,28.2969 L770.5,28.2969 A2.5,2.5 0 0 1 773,30.7969 L773,456.77 A2.5,2.5 0 0 1 770.5,459.27 L8.5,459.27 A2.5,2.5 0 0 1 6,456.77 L6,8.5 A2.5,2.5 0 0 1 8.5,6" fill="none" style="stroke:#000000;stroke-width:1.5;"/><line style="stroke:#000000;stroke-width:1.5;" x1="6" x2="46.3232" y1="28.2969" y2="28.2969"/><text fill="#000000" font-family="sans-serif" font-size="14" font-weight="bold" lengthAdjust="spacing" textLength="27.3232" x="10" y="20.9951">ese</text></g><!--cluster triptop--><g class="cluster" data-entity="triptop" data-source-line="1" data-uid="ent0002" id="cluster_triptop"><path d="M32.5,49 L88.249,49 A3.75,3.75 0 0 1 90.749,51.5 L97.749,71.2969 L746.5,71.2969 A2.5,2.5 0 0 1 749,73.7969 L749,432.77 A2.5,2.5 0 0 1 746.5,435.27 L32.5,435.27 A2.5,2.5 0 0 1 30,432.77 L30,51.5 A2.5,2.5 0 0 1 32.5,49" fill="none" style="stroke:#000000;stroke-width:1.5;"/><line style="stroke:#000000;stroke-width:1.5;" x1="30" x2="97.749" y1="71.2969" y2="71.2969"/><text fill="#000000" font-family="sans-serif" font-size="14" font-weight="bold" lengthAdjust="spacing" textLength="54.749" x="34" y="63.9951">triptop</text></g><!--class TriptopApplication--><g class="entity" data-entity="TriptopApplication" data-source-line="2" data-uid="ent0003" id="entity_TriptopApplication"><rect fill="#F1F1F1" height="80.5938" rx="2.5" ry="2.5" style="stroke:#181818;stroke-width:0.5;" width="263.5557" x="46.22" y="92.15"/><ellipse cx="109.6233" cy="108.15" fill="#ADD1B2" rx="11" ry="11" style="stroke:#181818;stroke-width:1;"/><path d="M112.5921,113.7906 Q112.0139,114.0875 111.3733,114.2281 Q110.7327,114.3844 110.0296,114.3844 Q107.5296,114.3844 106.2014,112.7437 Q104.8889,111.0875 104.8889,107.9625 Q104.8889,104.8375 106.2014,103.1812 Q107.5296,101.525 110.0296,101.525 Q110.7327,101.525 111.3733,101.6812 Q112.0296,101.8375 112.5921,102.1344 L112.5921,104.8531 Q111.9671,104.275 111.3733,104.0094 Q110.7796,103.7281 110.1546,103.7281 Q108.8108,103.7281 108.1233,104.8062 Q107.4358,105.8687 107.4358,107.9625 Q107.4358,110.0562 108.1233,111.1344 Q108.8108,112.1969 110.1546,112.1969 Q110.7796,112.1969 111.3733,111.9312 Q111.9671,111.65 112.5921,111.0719 L112.5921,113.7906 Z " fill="#000000"/><text fill="#000000" font-family="sans-serif" font-size="14" lengthAdjust="spacing" textLength="128.249" x="130.1233" y="112.9967">TriptopApplication</text><line style="stroke:#181818;stroke-width:0.5;" x1="47.22" x2="308.7757" y1="124.15" y2="124.15"/><rect fill="none" height="6" style="stroke:#C82930;stroke-width:1;" width="6" x="54.22" y="134.7984"/><text fill="#000000" font-family="sans-serif" font-size="14" lengthAdjust="spacing" textLength="203.5605" x="66.22" y="141.1451">FacadePatternRunner runner</text><line style="stroke:#181818;stroke-width:0.5;" x1="47.22" x2="308.7757" y1="148.4469" y2="148.4469"/><rect fill="#F24D5C" height="6" style="stroke:#C82930;stroke-width:1;" width="6" x="54.22" y="159.0953"/><text fill="#000000" font-family="sans-serif" font-size="14" lengthAdjust="spacing" textLength="237.5557" x="66.22" y="165.442">runDemo(): FacadePatternRunner</text></g><!--class TravelApiServiceFacade--><g class="entity" data-entity="TravelApiServiceFacade" data-source-line="9" data-uid="ent0005" id="entity_TravelApiServiceFacade"><rect fill="#F1F1F1" height="96.8906" rx="2.5" ry="2.5" style="stroke:#181818;stroke-width:0.5;" width="388.1406" x="344.93" y="84"/><ellipse cx="450.6614" cy="100" fill="#B4A7E5" rx="11" ry="11" style="stroke:#181818;stroke-width:1;"/><path d="M446.5833,95.7656 L446.5833,93.6094 L453.9739,93.6094 L453.9739,95.7656 L451.5052,95.7656 L451.5052,103.8438 L453.9739,103.8438 L453.9739,106 L446.5833,106 L446.5833,103.8438 L449.0521,103.8438 L449.0521,95.7656 L446.5833,95.7656 Z " fill="#000000"/><text fill="#000000" font-family="sans-serif" font-size="14" font-style="italic" lengthAdjust="spacing" textLength="168.1777" x="471.1614" y="104.8467">TravelApiServiceFacade</text><line style="stroke:#181818;stroke-width:0.5;" x1="345.93" x2="732.0706" y1="116" y2="116"/><line style="stroke:#181818;stroke-width:0.5;" x1="345.93" x2="732.0706" y1="124" y2="124"/><ellipse cx="355.93" cy="137.6484" fill="#84BE84" rx="3" ry="3" style="stroke:#038048;stroke-width:1;"/><text fill="#000000" font-family="sans-serif" font-size="14" lengthAdjust="spacing" textLength="328.7402" x="364.93" y="140.9951">findFlights(String, String, String, int): JsonNode</text><ellipse cx="355.93" cy="153.9453" fill="#84BE84" rx="3" ry="3" style="stroke:#038048;stroke-width:1;"/><text fill="#000000" font-family="sans-serif" font-size="14" lengthAdjust="spacing" textLength="362.1406" x="364.93" y="157.292">findHotels(double, double, String, String): JsonNode</text><ellipse cx="355.93" cy="170.2422" fill="#84BE84" rx="3" ry="3" style="stroke:#038048;stroke-width:1;"/><text fill="#000000" font-family="sans-serif" font-size="14" lengthAdjust="spacing" textLength="238.417" x="364.93" y="173.5889">findRestaurants(String): JsonNode</text></g><!--class TravelApiServiceFacadeImpl--><g class="entity" data-entity="TravelApiServiceFacadeImpl" data-source-line="15" data-uid="ent0006" id="entity_TravelApiServiceFacadeImpl"><rect fill="#F1F1F1" height="178.375" rx="2.5" ry="2.5" style="stroke:#181818;stroke-width:0.5;" width="388.1406" x="344.93" y="240.89"/><ellipse cx="435.39" cy="256.89" fill="#ADD1B2" rx="11" ry="11" style="stroke:#181818;stroke-width:1;"/><path d="M438.3587,262.5306 Q437.7806,262.8275 437.14,262.9681 Q436.4993,263.1244 435.7962,263.1244 Q433.2962,263.1244 431.9681,261.4838 Q430.6556,259.8275 430.6556,256.7025 Q430.6556,253.5775 431.9681,251.9213 Q433.2962,250.265 435.7962,250.265 Q436.4993,250.265 437.14,250.4213 Q437.7962,250.5775 438.3587,250.8744 L438.3587,253.5931 Q437.7337,253.015 437.14,252.7494 Q436.5462,252.4681 435.9212,252.4681 Q434.5775,252.4681 433.89,253.5463 Q433.2025,254.6088 433.2025,256.7025 Q433.2025,258.7963 433.89,259.8744 Q434.5775,260.9369 435.9212,260.9369 Q436.5462,260.9369 437.14,260.6713 Q437.7337,260.39 438.3587,259.8119 L438.3587,262.5306 Z " fill="#000000"/><text fill="#000000" font-family="sans-serif" font-size="14" lengthAdjust="spacing" textLength="198.7207" x="455.89" y="261.7367">TravelApiServiceFacadeImpl</text><line style="stroke:#181818;stroke-width:0.5;" x1="345.93" x2="732.0706" y1="272.89" y2="272.89"/><rect fill="none" height="6" style="stroke:#C82930;stroke-width:1;" width="6" x="352.93" y="283.5384"/><text fill="#000000" font-family="sans-serif" font-size="14" lengthAdjust="spacing" textLength="231.8203" x="364.93" y="289.8851">static String IDENTITY_BASE_URL</text><rect fill="none" height="6" style="stroke:#C82930;stroke-width:1;" width="6" x="352.93" y="299.8353"/><text fill="#000000" font-family="sans-serif" font-size="14" lengthAdjust="spacing" textLength="235.3887" x="364.93" y="306.182">static String FLIGHT_OFFERS_URL</text><rect fill="none" height="6" style="stroke:#C82930;stroke-width:1;" width="6" x="352.93" y="316.1322"/><text fill="#000000" font-family="sans-serif" font-size="14" lengthAdjust="spacing" textLength="234.083" x="364.93" y="322.4789">static String BOOKING_BASE_URL</text><rect fill="none" height="6" style="stroke:#C82930;stroke-width:1;" width="6" x="352.93" y="332.4291"/><text fill="#000000" font-family="sans-serif" font-size="14" lengthAdjust="spacing" textLength="262.3564" x="364.93" y="338.7757">static String TRIPADVISOR_BASE_URL</text><rect fill="none" height="6" style="stroke:#C82930;stroke-width:1;" width="6" x="352.93" y="348.7259"/><text fill="#000000" font-family="sans-serif" font-size="14" lengthAdjust="spacing" textLength="187.5029" x="364.93" y="355.0726">static String RAPIDAPI_KEY</text><line style="stroke:#181818;stroke-width:0.5;" x1="345.93" x2="732.0706" y1="362.3744" y2="362.3744"/><ellipse cx="355.93" cy="376.0228" fill="#84BE84" rx="3" ry="3" style="stroke:#038048;stroke-width:1;"/><text fill="#000000" font-family="sans-serif" font-size="14" lengthAdjust="spacing" textLength="328.7402" x="364.93" y="379.3695">findFlights(String, String, String, int): JsonNode</text><ellipse cx="355.93" cy="392.3197" fill="#84BE84" rx="3" ry="3" style="stroke:#038048;stroke-width:1;"/><text fill="#000000" font-family="sans-serif" font-size="14" lengthAdjust="spacing" textLength="362.1406" x="364.93" y="395.6664">findHotels(double, double, String, String): JsonNode</text><ellipse cx="355.93" cy="408.6166" fill="#84BE84" rx="3" ry="3" style="stroke:#038048;stroke-width:1;"/><text fill="#000000" font-family="sans-serif" font-size="14" lengthAdjust="spacing" textLength="238.417" x="364.93" y="411.9632">findRestaurants(String): JsonNode</text></g><!--class FacadePatternRunner--><g class="entity" data-entity="FacadePatternRunner" data-source-line="27" data-uid="ent0007" id="entity_FacadePatternRunner"><rect fill="#F1F1F1" height="64.2969" rx="2.5" ry="2.5" style="stroke:#181818;stroke-width:0.5;" width="184.3662" x="85.82" y="297.93"/><ellipse cx="100.82" cy="313.93" fill="#ADD1B2" rx="11" ry="11" style="stroke:#181818;stroke-width:1;"/><path d="M103.7888,319.5706 Q103.2106,319.8675 102.57,320.0081 Q101.9294,320.1644 101.2263,320.1644 Q98.7263,320.1644 97.3981,318.5237 Q96.0856,316.8675 96.0856,313.7425 Q96.0856,310.6175 97.3981,308.9612 Q98.7263,307.305 101.2263,307.305 Q101.9294,307.305 102.57,307.4612 Q103.2263,307.6175 103.7888,307.9144 L103.7888,310.6331 Q103.1638,310.055 102.57,309.7894 Q101.9763,309.5081 101.3513,309.5081 Q100.0075,309.5081 99.32,310.5862 Q98.6325,311.6487 98.6325,313.7425 Q98.6325,315.8362 99.32,316.9144 Q100.0075,317.9769 101.3513,317.9769 Q101.9763,317.9769 102.57,317.7112 Q103.1638,317.43 103.7888,316.8519 L103.7888,319.5706 Z " fill="#000000"/><text fill="#000000" font-family="sans-serif" font-size="14" lengthAdjust="spacing" textLength="152.3662" x="114.82" y="318.7767">FacadePatternRunner</text><line style="stroke:#181818;stroke-width:0.5;" x1="86.82" x2="269.1862" y1="329.93" y2="329.93"/><line style="stroke:#181818;stroke-width:0.5;" x1="86.82" x2="269.1862" y1="337.93" y2="337.93"/><ellipse cx="96.82" cy="351.5784" fill="#84BE84" rx="3" ry="3" style="stroke:#038048;stroke-width:1;"/><text fill="#000000" font-family="sans-serif" font-size="14" lengthAdjust="spacing" textLength="76.0225" x="105.82" y="354.9251">runDemo()</text></g><!--link TriptopApplication to FacadePatternRunner--><g class="link" data-entity-1="TriptopApplication" data-entity-2="FacadePatternRunner" data-source-line="31" data-uid="lnk8" id="link_TriptopApplication_FacadePatternRunner"><path codeLine="31" d="M178,173.04 C178,209.77 178,257.73 178,291.61" fill="none" id="TriptopApplication-to-FacadePatternRunner" style="stroke:#181818;stroke-width:1;"/><polygon fill="#181818" points="178,297.61,182,288.61,178,292.61,174,288.61,178,297.61" style="stroke:#181818;stroke-width:1;"/></g><!--reverse link TravelApiServiceFacade to TravelApiServiceFacadeImpl--><g class="link" data-entity-1="TravelApiServiceFacade" data-entity-2="TravelApiServiceFacadeImpl" data-source-line="33" data-uid="lnk9" id="link_TravelApiServiceFacade_TravelApiServiceFacadeImpl"><path codeLine="33" d="M539,199.31 C539,217.18 539,220.09 539,240.47" fill="none" id="TravelApiServiceFacade-backto-TravelApiServiceFacadeImpl" style="stroke:#181818;stroke-width:1;stroke-dasharray:7.0,7.0;"/><polygon fill="none" points="539,181.31,533,199.31,545,199.31,539,181.31" style="stroke:#181818;stroke-width:1;"/></g><!--SRC=[rLDHQy8m47xtLmIVEcRz0MCCAcqrKrf9ku5F9KlFBYmceKbzsVplYrgbawhFEmW7b- - -kyjzqPHzqGhG40oCRSsrLNg8lWV86HFK69GVWu7MWZDgkPBk-d2_Dn_5bD4IbjHQg2Lff8GQrGVNHRb821lbFJpr9Ho0koEUInTVKmQkCjs223JFeDvo1iV4jhczFQ8rbsKiUFLfZPUvzcKrGfVU4RgghqR9H9LmaJnJ5eJnIjLy21YXa__BSJsTWB6qgQayrx_4jbETth9l8hpHeZELZnodvQmjZd0O9JdELyKaoABYZIok8kC5dixo8etZY6GtaPCqdUDaUfyo9tWPXEyuIybzC0cME7Idc4Uh_xQapfRw5DqLtLdBtGNtV1FVV-aLUull5VVpptXyGoQ3tIy0]--></g></svg>