<svg xmlns="http://www.w3.org/2000/svg" xmlns:xlink="http://www.w3.org/1999/xlink" contentStyleType="text/css" data-diagram-type="DESCRIPTION" height="433px" preserveAspectRatio="none" style="width:832px;height:433px;background:#FFFFFF;" version="1.1" viewBox="0 0 832 433" width="832px" zoomAndPan="magnify"><defs/><g><!--cluster ese.triptop--><g class="cluster" data-entity="ese.triptop" data-source-line="1" data-uid="ent0002" id="cluster_ese.triptop"><path d="M8.5,6 L96.8906,6 A3.75,3.75 0 0 1 99.3906,8.5 L106.3906,28.2969 L822.5,28.2969 A2.5,2.5 0 0 1 825,30.7969 L825,424.39 A2.5,2.5 0 0 1 822.5,426.89 L8.5,426.89 A2.5,2.5 0 0 1 6,424.39 L6,8.5 A2.5,2.5 0 0 1 8.5,6" fill="none" style="stroke:#000000;stroke-width:1.5;"/><line style="stroke:#000000;stroke-width:1.5;" x1="6" x2="106.3906" y1="28.2969" y2="28.2969"/><text fill="#000000" font-family="sans-serif" font-size="14" font-weight="bold" lengthAdjust="spacing" textLength="87.3906" x="10" y="20.9951">ese.triptop</text></g><!--cluster External APIs--><g class="cluster" data-entity="External APIs" data-source-line="11" data-uid="ent0010" id="cluster_External APIs"><path d="M235.5,281.59 L341.9102,281.59 A3.75,3.75 0 0 1 344.4102,284.09 L351.4102,303.8869 L790.5,303.8869 A2.5,2.5 0 0 1 793,306.3869 L793,392.39 A2.5,2.5 0 0 1 790.5,394.89 L235.5,394.89 A2.5,2.5 0 0 1 233,392.39 L233,284.09 A2.5,2.5 0 0 1 235.5,281.59" fill="none" style="stroke:#000000;stroke-width:1.5;"/><line style="stroke:#000000;stroke-width:1.5;" x1="233" x2="351.4102" y1="303.8869" y2="303.8869"/><text fill="#000000" font-family="sans-serif" font-size="14" font-weight="bold" lengthAdjust="spacing" textLength="105.4102" x="237" y="296.5851">External APIs</text></g><!--entity TriptopApplication--><g class="entity" data-entity="TriptopApplication" data-source-line="4" data-uid="ent0003" id="entity_TriptopApplication"><rect fill="#F1F1F1" height="46.2969" rx="2.5" ry="2.5" style="stroke:#181818;stroke-width:0.5;" width="168.249" x="33.88" y="41"/><rect fill="#F1F1F1" height="10" style="stroke:#181818;stroke-width:0.5;" width="15" x="182.129" y="46"/><rect fill="#F1F1F1" height="2" style="stroke:#181818;stroke-width:0.5;" width="4" x="180.129" y="48"/><rect fill="#F1F1F1" height="2" style="stroke:#181818;stroke-width:0.5;" width="4" x="180.129" y="52"/><text fill="#000000" font-family="sans-serif" font-size="14" lengthAdjust="spacing" textLength="128.249" x="48.88" y="73.9951">TriptopApplication</text></g><!--entity FacadePatternRunner--><g class="entity" data-entity="FacadePatternRunner" data-source-line="4" data-uid="ent0004" id="entity_FacadePatternRunner"><rect fill="#F1F1F1" height="46.2969" rx="2.5" ry="2.5" style="stroke:#181818;stroke-width:0.5;" width="192.3662" x="21.82" y="164.3"/><rect fill="#F1F1F1" height="10" style="stroke:#181818;stroke-width:0.5;" width="15" x="194.1862" y="169.3"/><rect fill="#F1F1F1" height="2" style="stroke:#181818;stroke-width:0.5;" width="4" x="192.1862" y="171.3"/><rect fill="#F1F1F1" height="2" style="stroke:#181818;stroke-width:0.5;" width="4" x="192.1862" y="175.3"/><text fill="#000000" font-family="sans-serif" font-size="14" lengthAdjust="spacing" textLength="152.3662" x="36.82" y="197.2951">FacadePatternRunner</text></g><!--entity TravelApiServiceFacade--><g class="entity" data-entity="TravelApiServiceFacade" data-source-line="5" data-uid="ent0006" id="entity_TravelApiServiceFacade"><ellipse cx="114" cy="347.74" fill="#F1F1F1" rx="8" ry="8" style="stroke:#181818;stroke-width:0.5;"/><text fill="#000000" font-family="sans-serif" font-size="14" lengthAdjust="spacing" textLength="168.1777" x="29.9111" y="377.7351">TravelApiServiceFacade</text></g><!--entity TravelApiServiceFacadeImpl--><g class="entity" data-entity="TravelApiServiceFacadeImpl" data-source-line="9" data-uid="ent0008" id="entity_TravelApiServiceFacadeImpl"><rect fill="#F1F1F1" height="46.2969" rx="2.5" ry="2.5" style="stroke:#181818;stroke-width:0.5;" width="238.7207" x="330.64" y="164.3"/><rect fill="#F1F1F1" height="10" style="stroke:#181818;stroke-width:0.5;" width="15" x="549.3607" y="169.3"/><rect fill="#F1F1F1" height="2" style="stroke:#181818;stroke-width:0.5;" width="4" x="547.3607" y="171.3"/><rect fill="#F1F1F1" height="2" style="stroke:#181818;stroke-width:0.5;" width="4" x="547.3607" y="175.3"/><text fill="#000000" font-family="sans-serif" font-size="14" lengthAdjust="spacing" textLength="198.7207" x="345.64" y="197.2951">TravelApiServiceFacadeImpl</text></g><!--entity Flight Offers API--><g class="entity" data-entity="Flight Offers API" data-source-line="14" data-uid="ent0012" id="entity_Flight Offers API"><rect fill="#F1F1F1" height="46.2969" rx="2.5" ry="2.5" style="stroke:#181818;stroke-width:0.5;" width="152.6699" x="276.67" y="324.59"/><rect fill="#F1F1F1" height="10" style="stroke:#181818;stroke-width:0.5;" width="15" x="409.3399" y="329.59"/><rect fill="#F1F1F1" height="2" style="stroke:#181818;stroke-width:0.5;" width="4" x="407.3399" y="331.59"/><rect fill="#F1F1F1" height="2" style="stroke:#181818;stroke-width:0.5;" width="4" x="407.3399" y="335.59"/><text fill="#000000" font-family="sans-serif" font-size="14" lengthAdjust="spacing" textLength="112.6699" x="291.67" y="357.5851">Flight Offers API</text></g><!--entity Booking API--><g class="entity" data-entity="Booking API" data-source-line="15" data-uid="ent0013" id="entity_Booking API"><rect fill="#F1F1F1" height="46.2969" rx="2.5" ry="2.5" style="stroke:#181818;stroke-width:0.5;" width="123.0908" x="464.45" y="324.59"/><rect fill="#F1F1F1" height="10" style="stroke:#181818;stroke-width:0.5;" width="15" x="567.5408" y="329.59"/><rect fill="#F1F1F1" height="2" style="stroke:#181818;stroke-width:0.5;" width="4" x="565.5408" y="331.59"/><rect fill="#F1F1F1" height="2" style="stroke:#181818;stroke-width:0.5;" width="4" x="565.5408" y="335.59"/><text fill="#000000" font-family="sans-serif" font-size="14" lengthAdjust="spacing" textLength="83.0908" x="479.45" y="357.5851">Booking API</text></g><!--entity TripAdvisor API--><g class="entity" data-entity="TripAdvisor API" data-source-line="16" data-uid="ent0014" id="entity_TripAdvisor API"><rect fill="#F1F1F1" height="46.2969" rx="2.5" ry="2.5" style="stroke:#181818;stroke-width:0.5;" width="145.9365" x="623.03" y="324.59"/><rect fill="#F1F1F1" height="10" style="stroke:#181818;stroke-width:0.5;" width="15" x="748.9665" y="329.59"/><rect fill="#F1F1F1" height="2" style="stroke:#181818;stroke-width:0.5;" width="4" x="746.9665" y="331.59"/><rect fill="#F1F1F1" height="2" style="stroke:#181818;stroke-width:0.5;" width="4" x="746.9665" y="335.59"/><text fill="#000000" font-family="sans-serif" font-size="14" lengthAdjust="spacing" textLength="105.9365" x="638.03" y="357.5851">TripAdvisor API</text></g><!--link TriptopApplication to FacadePatternRunner--><g class="link" data-entity-1="TriptopApplication" data-entity-2="FacadePatternRunner" data-source-line="4" data-uid="lnk5" id="link_TriptopApplication_FacadePatternRunner"><path d="M118,87.68 C118,109.47 118,136.29 118,158.03" fill="none" id="TriptopApplication-to-FacadePatternRunner" style="stroke:#181818;stroke-width:1;"/><polygon fill="#181818" points="118,164.03,122,155.03,118,159.03,114,155.03,118,164.03" style="stroke:#181818;stroke-width:1;"/><text fill="#000000" font-family="sans-serif" font-size="13" lengthAdjust="spacing" textLength="31.0591" x="119" y="130.3669">Uses</text></g><!--link FacadePatternRunner to TravelApiServiceFacade--><g class="link" data-entity-1="FacadePatternRunner" data-entity-2="TravelApiServiceFacade" data-source-line="6" data-uid="lnk7" id="link_FacadePatternRunner_TravelApiServiceFacade"><path d="M114.31,210.97 C112.98,220.13 111.65,230.84 111,240.59 C108.55,277.2 111.1999,315.0626 112.7399,332.7626" fill="none" id="FacadePatternRunner-to-TravelApiServiceFacade" style="stroke:#181818;stroke-width:1;"/><polygon fill="#181818" points="113.26,338.74,116.4648,329.4272,112.8266,333.7588,108.495,330.1206,113.26,338.74" style="stroke:#181818;stroke-width:1;"/><text fill="#000000" font-family="sans-serif" font-size="13" lengthAdjust="spacing" textLength="31.0591" x="112" y="253.6569">Uses</text></g><!--link TravelApiServiceFacadeImpl to TravelApiServiceFacade--><g class="link" data-entity-1="TravelApiServiceFacadeImpl" data-entity-2="TravelApiServiceFacade" data-source-line="9" data-uid="lnk9" id="link_TravelApiServiceFacadeImpl_TravelApiServiceFacade"><path d="M330.29,202.04 C270.05,210.75 204.68,223.61 180,240.59 C143.35,265.81 128.7261,301.6184 122.0961,321.6884" fill="none" id="TravelApiServiceFacadeImpl-to-TravelApiServiceFacade" style="stroke:#181818;stroke-width:1;stroke-dasharray:7.0,7.0;"/><polygon fill="none" points="116.45,338.78,127.7933,323.5705,116.3989,319.8064,116.45,338.78" style="stroke:#181818;stroke-width:1;"/><text fill="#000000" font-family="sans-serif" font-size="13" lengthAdjust="spacing" textLength="77.1304" x="181" y="253.6569">Implements</text></g><!--link TravelApiServiceFacadeImpl to External APIs--><g class="link" data-entity-1="TravelApiServiceFacadeImpl" data-entity-2="External APIs" data-source-line="11" data-uid="lnk11" id="link_TravelApiServiceFacadeImpl_External APIs"><path d="M337.38,211.03 C307.92,222.47 279.31,239.69 261,265.59 C258.4038,269.2637 256.143,273.2378 254.1745,277.3856 C253.6824,278.4225 253.2085,279.4703 252.7523,280.527 C252.6382,280.7911 254.857,275.5275 254.7451,275.7927" fill="none" id="TravelApiServiceFacadeImpl-to-External APIs" style="stroke:#181818;stroke-width:1;"/><polygon fill="#181818" points="252.4134,281.3211,259.5966,274.583,254.3565,276.7141,252.2254,271.474,252.4134,281.3211" style="stroke:#181818;stroke-width:1;"/><text fill="#000000" font-family="sans-serif" font-size="13" lengthAdjust="spacing" textLength="136.627" x="284" y="253.6569">Calls APIs via Unirest</text></g><!--link TravelApiServiceFacadeImpl to Flight Offers API--><g class="link" data-entity-1="TravelApiServiceFacadeImpl" data-entity-2="Flight Offers API" data-source-line="20" data-uid="lnk15" id="link_TravelApiServiceFacadeImpl_Flight Offers API"><path d="M452.34,210.95 C452.86,224.99 451.77,243.09 445,257.59 C432.21,285 411.7985,304.7953 391.0185,320.7553" fill="none" id="TravelApiServiceFacadeImpl-to-Flight Offers API" style="stroke:#181818;stroke-width:1;"/><polygon fill="#181818" points="386.26,324.41,395.8342,322.1002,390.2254,321.3644,390.9612,315.7556,386.26,324.41" style="stroke:#181818;stroke-width:1;"/></g><!--link TravelApiServiceFacadeImpl to Booking API--><g class="link" data-entity-1="TravelApiServiceFacadeImpl" data-entity-2="Booking API" data-source-line="21" data-uid="lnk16" id="link_TravelApiServiceFacadeImpl_Booking API"><path d="M460.73,210.79 C475.17,240.87 498.1346,288.6904 512.6046,318.8504" fill="none" id="TravelApiServiceFacadeImpl-to-Booking API" style="stroke:#181818;stroke-width:1;"/><polygon fill="#181818" points="515.2,324.26,514.9133,314.4153,513.0372,319.752,507.7005,317.8758,515.2,324.26" style="stroke:#181818;stroke-width:1;"/></g><!--link TravelApiServiceFacadeImpl to TripAdvisor API--><g class="link" data-entity-1="TravelApiServiceFacadeImpl" data-entity-2="TripAdvisor API" data-source-line="22" data-uid="lnk17" id="link_TravelApiServiceFacadeImpl_TripAdvisor API"><path d="M503.96,211.01 C534.69,224.89 573.26,244.11 605,265.59 C630.59,282.92 652.3196,302.6553 669.9396,320.0453" fill="none" id="TravelApiServiceFacadeImpl-to-TripAdvisor API" style="stroke:#181818;stroke-width:1;"/><polygon fill="#181818" points="674.21,324.26,670.6142,315.091,670.6513,320.7478,664.9946,320.7849,674.21,324.26" style="stroke:#181818;stroke-width:1;"/></g><!--SRC=[ZL7BQiCm4BphAmRVum_e8U2M5d9gQ9DJy65HrkuIHHAIQWfj_hssJ1eQ9oH22BIpyz3AazvHooWuSfc2-EHyWM-5VgbyRbPZjVBUYAOapjQOpUROl92cBIyf9GxsxTDQ3ZKUKAmZno9pnVPGGvgn2jIngRoyS-X4yyWT3IxgP8VBh3CJbJUkTI_stjGeov_vbH23sj34UxQfrxmjbhCzVmrnoQ1QBcAEz4J6n7n59uIrbS0n_OK4_77O_xZ7SO-pCD9-9Bms3OUiLP-mH-TsOjkpwl0zrRQJwC89EQXxdp4rn9tCIPpRb4bMTVW5]--></g></svg>