<svg xmlns="http://www.w3.org/2000/svg" xmlns:xlink="http://www.w3.org/1999/xlink" contentStyleType="text/css" data-diagram-type="CLASS" height="726px" preserveAspectRatio="none" style="width:2047px;height:726px;background:#FFFFFF;" version="1.1" viewBox="0 0 2047 726" width="2047px" zoomAndPan="magnify"><defs/><g><!--class IFlightAdapter--><g class="entity" data-entity="IFlightAdapter" data-source-line="10" data-uid="ent0002" id="entity_IFlightAdapter"><rect fill="#F1F1F1" height="87.6953" rx="3.5" ry="3.5" style="stroke:#181818;stroke-width:0.5;" width="650.0801" x="515" y="631.46"/><ellipse cx="782.7712" cy="651.0108" fill="#B4A7E5" rx="11" ry="11" style="stroke:#181818;stroke-width:1;"/><path d="M778.6931,646.7764 L778.6931,644.6202 L786.0837,644.6202 L786.0837,646.7764 L783.615,646.7764 L783.615,654.8545 L786.0837,654.8545 L786.0837,657.0108 L778.6931,657.0108 L778.6931,654.8545 L781.1619,654.8545 L781.1619,646.7764 L778.6931,646.7764 Z " fill="#000000"/><text fill="#A9A9A9" font-family="sans-serif" font-size="11" font-style="italic" lengthAdjust="spacing" textLength="110.0376" x="801.2712" y="646.6704">&#171;Adapter Interface&#187;</text><text fill="#000000" font-family="sans-serif" font-size="14" font-style="italic" lengthAdjust="spacing" textLength="98.998" x="806.791" y="662.2598">IFlightAdapter</text><line style="stroke:#181818;stroke-width:0.5;" x1="516" x2="1164.0801" y1="670.5616" y2="670.5616"/><line style="stroke:#181818;stroke-width:0.5;" x1="516" x2="1164.0801" y1="678.5616" y2="678.5616"/><ellipse cx="526" cy="692.21" fill="#84BE84" rx="3" ry="3" style="stroke:#038048;stroke-width:1;"/><text fill="#000000" font-family="sans-serif" font-size="14" lengthAdjust="spacing" textLength="624.0801" x="535" y="695.5567">List&lt;Flight&gt; getFlights(String origin, String destination, String departureDate, int adults)</text><ellipse cx="526" cy="708.5069" fill="#84BE84" rx="3" ry="3" style="stroke:#038048;stroke-width:1;"/><text fill="#000000" font-family="sans-serif" font-size="14" lengthAdjust="spacing" textLength="146.7197" x="535" y="711.8536">boolean isAvailable()</text></g><!--class IFlightSearchStrategy--><g class="entity" data-entity="IFlightSearchStrategy" data-source-line="15" data-uid="ent0003" id="entity_IFlightSearchStrategy"><rect fill="#F1F1F1" height="71.3984" rx="3.5" ry="3.5" style="stroke:#181818;stroke-width:0.5;" width="378.1465" x="1022.97" y="458.62"/><ellipse cx="1131.9929" cy="478.1708" fill="#B4A7E5" rx="11" ry="11" style="stroke:#181818;stroke-width:1;"/><path d="M1127.9148,473.9364 L1127.9148,471.7802 L1135.3054,471.7802 L1135.3054,473.9364 L1132.8367,473.9364 L1132.8367,482.0145 L1135.3054,482.0145 L1135.3054,484.1708 L1127.9148,484.1708 L1127.9148,482.0145 L1130.3836,482.0145 L1130.3836,473.9364 L1127.9148,473.9364 Z " fill="#000000"/><text fill="#A9A9A9" font-family="sans-serif" font-size="11" font-style="italic" lengthAdjust="spacing" textLength="113.3354" x="1171.6255" y="473.8304">&#171;Strategy Interface&#187;</text><text fill="#000000" font-family="sans-serif" font-size="14" font-style="italic" lengthAdjust="spacing" textLength="151.6006" x="1152.4929" y="489.4198">IFlightSearchStrategy</text><line style="stroke:#181818;stroke-width:0.5;" x1="1023.97" x2="1400.1165" y1="497.7216" y2="497.7216"/><line style="stroke:#181818;stroke-width:0.5;" x1="1023.97" x2="1400.1165" y1="505.7216" y2="505.7216"/><ellipse cx="1033.97" cy="519.37" fill="#84BE84" rx="3" ry="3" style="stroke:#038048;stroke-width:1;"/><text fill="#000000" font-family="sans-serif" font-size="14" lengthAdjust="spacing" textLength="352.1465" x="1042.97" y="522.7167">Flight findBestFlight(List&lt;Flight&gt; availableFlights)</text></g><!--class SkyscannerAdapter--><g class="entity" data-entity="SkyscannerAdapter" data-source-line="20" data-uid="ent0004" id="entity_SkyscannerAdapter"><rect fill="#F1F1F1" height="120.2891" rx="3.5" ry="3.5" style="stroke:#181818;stroke-width:0.5;" width="650.0801" x="7" y="434.18"/><ellipse cx="259.4136" cy="453.7308" fill="#ADD1B2" rx="11" ry="11" style="stroke:#181818;stroke-width:1;"/><path d="M262.3823,459.3714 Q261.8042,459.6683 261.1636,459.8089 Q260.5229,459.9652 259.8198,459.9652 Q257.3198,459.9652 255.9917,458.3245 Q254.6792,456.6683 254.6792,453.5433 Q254.6792,450.4183 255.9917,448.762 Q257.3198,447.1058 259.8198,447.1058 Q260.5229,447.1058 261.1636,447.262 Q261.8198,447.4183 262.3823,447.7152 L262.3823,450.4339 Q261.7573,449.8558 261.1636,449.5902 Q260.5698,449.3089 259.9448,449.3089 Q258.6011,449.3089 257.9136,450.387 Q257.2261,451.4495 257.2261,453.5433 Q257.2261,455.637 257.9136,456.7152 Q258.6011,457.7777 259.9448,457.7777 Q260.5698,457.7777 261.1636,457.512 Q261.7573,457.2308 262.3823,456.6527 L262.3823,459.3714 Z " fill="#000000"/><text fill="#A9A9A9" font-family="sans-serif" font-size="11" font-style="italic" lengthAdjust="spacing" textLength="57.2935" x="319.6433" y="449.3904">&#171;Adapter&#187;</text><text fill="#000000" font-family="sans-serif" font-size="14" lengthAdjust="spacing" textLength="136.7529" x="279.9136" y="464.9798">SkyscannerAdapter</text><line style="stroke:#181818;stroke-width:0.5;" x1="8" x2="656.0801" y1="473.2816" y2="473.2816"/><rect fill="none" height="6" style="stroke:#C82930;stroke-width:1;" width="6" x="15" y="483.93"/><text fill="#000000" font-family="sans-serif" font-size="14" lengthAdjust="spacing" textLength="249.4707" x="27" y="490.2767">String SKYSCANNER_API_ENDPOINT</text><rect fill="none" height="6" style="stroke:#C82930;stroke-width:1;" width="6" x="15" y="500.2269"/><text fill="#000000" font-family="sans-serif" font-size="14" lengthAdjust="spacing" textLength="101.958" x="27" y="506.5736">String API_KEY</text><line style="stroke:#181818;stroke-width:0.5;" x1="8" x2="656.0801" y1="513.8753" y2="513.8753"/><ellipse cx="18" cy="527.5238" fill="#84BE84" rx="3" ry="3" style="stroke:#038048;stroke-width:1;"/><text fill="#000000" font-family="sans-serif" font-size="14" lengthAdjust="spacing" textLength="624.0801" x="27" y="530.8704">List&lt;Flight&gt; getFlights(String origin, String destination, String departureDate, int adults)</text><ellipse cx="18" cy="543.8206" fill="#84BE84" rx="3" ry="3" style="stroke:#038048;stroke-width:1;"/><text fill="#000000" font-family="sans-serif" font-size="14" lengthAdjust="spacing" textLength="146.7197" x="27" y="547.1673">boolean isAvailable()</text></g><!--class BookingComAdapter--><g class="entity" data-entity="BookingComAdapter" data-source-line="29" data-uid="ent0006" id="entity_BookingComAdapter"><rect fill="#F1F1F1" height="103.9922" rx="3.5" ry="3.5" style="stroke:#181818;stroke-width:0.5;" width="296.7852" x="691.65" y="442.32"/><ellipse cx="763.6632" cy="461.8708" fill="#ADD1B2" rx="11" ry="11" style="stroke:#181818;stroke-width:1;"/><path d="M766.6319,467.5114 Q766.0538,467.8083 765.4132,467.9489 Q764.7726,468.1052 764.0694,468.1052 Q761.5694,468.1052 760.2413,466.4645 Q758.9288,464.8083 758.9288,461.6833 Q758.9288,458.5583 760.2413,456.902 Q761.5694,455.2458 764.0694,455.2458 Q764.7726,455.2458 765.4132,455.402 Q766.0694,455.5583 766.6319,455.8552 L766.6319,458.5739 Q766.0069,457.9958 765.4132,457.7302 Q764.8194,457.4489 764.1944,457.4489 Q762.8507,457.4489 762.1632,458.527 Q761.4757,459.5895 761.4757,461.6833 Q761.4757,463.777 762.1632,464.8552 Q762.8507,465.9177 764.1944,465.9177 Q764.8194,465.9177 765.4132,465.652 Q766.0069,465.3708 766.6319,464.7927 L766.6319,467.5114 Z " fill="#000000"/><text fill="#A9A9A9" font-family="sans-serif" font-size="11" font-style="italic" lengthAdjust="spacing" textLength="57.2935" x="827.6458" y="457.5304">&#171;Adapter&#187;</text><text fill="#000000" font-family="sans-serif" font-size="14" lengthAdjust="spacing" textLength="144.2588" x="784.1632" y="473.1198">BookingComAdapter</text><line style="stroke:#181818;stroke-width:0.5;" x1="692.65" x2="987.4352" y1="481.4216" y2="481.4216"/><rect fill="none" height="6" style="stroke:#C82930;stroke-width:1;" width="6" x="699.65" y="492.07"/><text fill="#000000" font-family="sans-serif" font-size="14" lengthAdjust="spacing" textLength="249.4707" x="711.65" y="498.4167">String SKYSCANNER_API_ENDPOINT</text><rect fill="none" height="6" style="stroke:#C82930;stroke-width:1;" width="6" x="699.65" y="508.3669"/><text fill="#000000" font-family="sans-serif" font-size="14" lengthAdjust="spacing" textLength="101.958" x="711.65" y="514.7136">String API_KEY</text><ellipse cx="702.65" cy="527.6637" fill="none" rx="3" ry="3" style="stroke:#038048;stroke-width:1;"/><text fill="#000000" font-family="sans-serif" font-size="14" lengthAdjust="spacing" textLength="270.7852" x="711.65" y="531.0104">... methods matching IFlightAdapter ...</text><line style="stroke:#181818;stroke-width:0.5;" x1="692.65" x2="987.4352" y1="538.3122" y2="538.3122"/></g><!--class CheapestFlightStrategy--><g class="entity" data-entity="CheapestFlightStrategy" data-source-line="38" data-uid="ent0008" id="entity_CheapestFlightStrategy"><rect fill="#F1F1F1" height="71.3984" rx="3.5" ry="3.5" style="stroke:#181818;stroke-width:0.5;" width="378.1465" x="350.97" y="253.18"/><ellipse cx="453.198" cy="272.7308" fill="#ADD1B2" rx="11" ry="11" style="stroke:#181818;stroke-width:1;"/><path d="M456.1668,278.3714 Q455.5887,278.6683 454.948,278.8089 Q454.3074,278.9652 453.6043,278.9652 Q451.1043,278.9652 449.7762,277.3245 Q448.4637,275.6683 448.4637,272.5433 Q448.4637,269.4183 449.7762,267.762 Q451.1043,266.1058 453.6043,266.1058 Q454.3074,266.1058 454.948,266.262 Q455.6043,266.4183 456.1668,266.7152 L456.1668,269.4339 Q455.5418,268.8558 454.948,268.5902 Q454.3543,268.3089 453.7293,268.3089 Q452.3855,268.3089 451.698,269.387 Q451.0105,270.4495 451.0105,272.5433 Q451.0105,274.637 451.698,275.7152 Q452.3855,276.7777 453.7293,276.7777 Q454.3543,276.7777 454.948,276.512 Q455.5418,276.2308 456.1668,275.6527 L456.1668,278.3714 Z " fill="#000000"/><text fill="#A9A9A9" font-family="sans-serif" font-size="11" font-style="italic" lengthAdjust="spacing" textLength="113.8887" x="499.3489" y="268.3904">&#171;Concrete Strategy&#187;</text><text fill="#000000" font-family="sans-serif" font-size="14" lengthAdjust="spacing" textLength="165.1904" x="473.698" y="283.9798">CheapestFlightStrategy</text><line style="stroke:#181818;stroke-width:0.5;" x1="351.97" x2="728.1165" y1="292.2816" y2="292.2816"/><line style="stroke:#181818;stroke-width:0.5;" x1="351.97" x2="728.1165" y1="300.2816" y2="300.2816"/><ellipse cx="361.97" cy="313.93" fill="#84BE84" rx="3" ry="3" style="stroke:#038048;stroke-width:1;"/><text fill="#000000" font-family="sans-serif" font-size="14" lengthAdjust="spacing" textLength="352.1465" x="370.97" y="317.2767">Flight findBestFlight(List&lt;Flight&gt; availableFlights)</text></g><!--class FastestFlightStrategy--><g class="entity" data-entity="FastestFlightStrategy" data-source-line="43" data-uid="ent0010" id="entity_FastestFlightStrategy"><rect fill="#F1F1F1" height="71.3984" rx="3.5" ry="3.5" style="stroke:#181818;stroke-width:0.5;" width="378.1465" x="763.97" y="253.18"/><ellipse cx="873.8543" cy="272.7308" fill="#ADD1B2" rx="11" ry="11" style="stroke:#181818;stroke-width:1;"/><path d="M876.823,278.3714 Q876.2449,278.6683 875.6043,278.8089 Q874.9637,278.9652 874.2605,278.9652 Q871.7605,278.9652 870.4324,277.3245 Q869.1199,275.6683 869.1199,272.5433 Q869.1199,269.4183 870.4324,267.762 Q871.7605,266.1058 874.2605,266.1058 Q874.9637,266.1058 875.6043,266.262 Q876.2605,266.4183 876.823,266.7152 L876.823,269.4339 Q876.198,268.8558 875.6043,268.5902 Q875.0105,268.3089 874.3855,268.3089 Q873.0418,268.3089 872.3543,269.387 Q871.6668,270.4495 871.6668,272.5433 Q871.6668,274.637 872.3543,275.7152 Q873.0418,276.7777 874.3855,276.7777 Q875.0105,276.7777 875.6043,276.512 Q876.198,276.2308 876.823,275.6527 L876.823,278.3714 Z " fill="#000000"/><text fill="#A9A9A9" font-family="sans-serif" font-size="11" font-style="italic" lengthAdjust="spacing" textLength="113.8887" x="912.3489" y="268.3904">&#171;Concrete Strategy&#187;</text><text fill="#000000" font-family="sans-serif" font-size="14" lengthAdjust="spacing" textLength="149.8779" x="894.3543" y="283.9798">FastestFlightStrategy</text><line style="stroke:#181818;stroke-width:0.5;" x1="764.97" x2="1141.1165" y1="292.2816" y2="292.2816"/><line style="stroke:#181818;stroke-width:0.5;" x1="764.97" x2="1141.1165" y1="300.2816" y2="300.2816"/><ellipse cx="774.97" cy="313.93" fill="#84BE84" rx="3" ry="3" style="stroke:#038048;stroke-width:1;"/><text fill="#000000" font-family="sans-serif" font-size="14" lengthAdjust="spacing" textLength="352.1465" x="783.97" y="317.2767">Flight findBestFlight(List&lt;Flight&gt; availableFlights)</text></g><!--class FlightAdapterFactory--><g class="entity" data-entity="FlightAdapterFactory" data-source-line="49" data-uid="ent0012" id="entity_FlightAdapterFactory"><rect fill="#F1F1F1" height="120.2891" rx="3.5" ry="3.5" style="stroke:#181818;stroke-width:0.5;" width="494.0361" x="1457.02" y="434.18"/><ellipse cx="1626.1411" cy="453.7308" fill="#ADD1B2" rx="11" ry="11" style="stroke:#181818;stroke-width:1;"/><path d="M1629.1098,459.3714 Q1628.5317,459.6683 1627.8911,459.8089 Q1627.2505,459.9652 1626.5473,459.9652 Q1624.0473,459.9652 1622.7192,458.3245 Q1621.4067,456.6683 1621.4067,453.5433 Q1621.4067,450.4183 1622.7192,448.762 Q1624.0473,447.1058 1626.5473,447.1058 Q1627.2505,447.1058 1627.8911,447.262 Q1628.5473,447.4183 1629.1098,447.7152 L1629.1098,450.4339 Q1628.4848,449.8558 1627.8911,449.5902 Q1627.2973,449.3089 1626.6723,449.3089 Q1625.3286,449.3089 1624.6411,450.387 Q1623.9536,451.4495 1623.9536,453.5433 Q1623.9536,455.637 1624.6411,456.7152 Q1625.3286,457.7777 1626.6723,457.7777 Q1627.2973,457.7777 1627.8911,457.512 Q1628.4848,457.2308 1629.1098,456.6527 L1629.1098,459.3714 Z " fill="#000000"/><text fill="#A9A9A9" font-family="sans-serif" font-size="11" font-style="italic" lengthAdjust="spacing" textLength="54.6509" x="1692.9626" y="449.3904">&#171;Factory&#187;</text><text fill="#000000" font-family="sans-serif" font-size="14" lengthAdjust="spacing" textLength="147.2939" x="1646.6411" y="464.9798">FlightAdapterFactory</text><line style="stroke:#181818;stroke-width:0.5;" x1="1458.02" x2="1950.0561" y1="473.2816" y2="473.2816"/><rect fill="none" height="6" style="stroke:#C82930;stroke-width:1;" width="6" x="1465.02" y="483.93"/><text fill="#000000" font-family="sans-serif" font-size="14" lengthAdjust="spacing" textLength="230.8223" x="1477.02" y="490.2767">List&lt;IFlightAdapter&gt; allAdapters</text><line style="stroke:#181818;stroke-width:0.5;" x1="1458.02" x2="1950.0561" y1="497.5784" y2="497.5784"/><ellipse cx="1468.02" cy="511.2269" fill="#84BE84" rx="3" ry="3" style="stroke:#038048;stroke-width:1;"/><text fill="#000000" font-family="sans-serif" font-size="14" lengthAdjust="spacing" textLength="389.04" x="1477.02" y="514.5736">FlightAdapterFactory(List&lt;IFlightAdapter&gt; allAdapters)</text><ellipse cx="1468.02" cy="527.5238" fill="#84BE84" rx="3" ry="3" style="stroke:#038048;stroke-width:1;"/><text fill="#000000" font-family="sans-serif" font-size="14" lengthAdjust="spacing" textLength="312.5664" x="1477.02" y="530.8704">List&lt;IFlightAdapter&gt; getAvailableAdapters()</text><ellipse cx="1468.02" cy="543.8206" fill="#84BE84" rx="3" ry="3" style="stroke:#038048;stroke-width:1;"/><text fill="#000000" font-family="sans-serif" font-size="14" lengthAdjust="spacing" textLength="468.0361" x="1477.02" y="547.1673">&lt;T extends IFlightAdapter&gt; T getAdapter(Class&lt;T&gt; adapterClass)</text></g><!--class FlightFacade--><g class="entity" data-entity="FlightFacade" data-source-line="59" data-uid="ent0014" id="entity_FlightFacade"><rect fill="#F1F1F1" height="136.5859" rx="3.5" ry="3.5" style="stroke:#181818;stroke-width:0.5;" width="629.4424" x="1411.32" y="220.59"/><ellipse cx="1677.0466" cy="240.1408" fill="#ADD1B2" rx="11" ry="11" style="stroke:#181818;stroke-width:1;"/><path d="M1680.0153,245.7814 Q1679.4372,246.0783 1678.7966,246.2189 Q1678.1559,246.3752 1677.4528,246.3752 Q1674.9528,246.3752 1673.6247,244.7345 Q1672.3122,243.0783 1672.3122,239.9533 Q1672.3122,236.8283 1673.6247,235.172 Q1674.9528,233.5158 1677.4528,233.5158 Q1678.1559,233.5158 1678.7966,233.672 Q1679.4528,233.8283 1680.0153,234.1252 L1680.0153,236.8439 Q1679.3903,236.2658 1678.7966,236.0002 Q1678.2028,235.7189 1677.5778,235.7189 Q1676.2341,235.7189 1675.5466,236.797 Q1674.8591,237.8595 1674.8591,239.9533 Q1674.8591,242.047 1675.5466,243.1252 Q1676.2341,244.1877 1677.5778,244.1877 Q1678.2028,244.1877 1678.7966,243.922 Q1679.3903,243.6408 1680.0153,243.0627 L1680.0153,245.7814 Z " fill="#000000"/><text fill="#A9A9A9" font-family="sans-serif" font-size="11" font-style="italic" lengthAdjust="spacing" textLength="53.0664" x="1715.758" y="235.8004">&#171;Facade&#187;</text><text fill="#000000" font-family="sans-serif" font-size="14" lengthAdjust="spacing" textLength="89.4893" x="1697.5466" y="251.3898">FlightFacade</text><line style="stroke:#181818;stroke-width:0.5;" x1="1412.32" x2="2039.7624" y1="259.6916" y2="259.6916"/><rect fill="none" height="6" style="stroke:#C82930;stroke-width:1;" width="6" x="1419.32" y="270.34"/><text fill="#000000" font-family="sans-serif" font-size="14" lengthAdjust="spacing" textLength="258.959" x="1431.32" y="276.6867">FlightAdapterFactory adapterFactory</text><rect fill="none" height="6" style="stroke:#C82930;stroke-width:1;" width="6" x="1419.32" y="286.6369"/><text fill="#000000" font-family="sans-serif" font-size="14" lengthAdjust="spacing" textLength="315.499" x="1431.32" y="292.9836">IFlightSearchStrategy currentSearchStrategy</text><line style="stroke:#181818;stroke-width:0.5;" x1="1412.32" x2="2039.7624" y1="300.2853" y2="300.2853"/><ellipse cx="1422.32" cy="313.9338" fill="#84BE84" rx="3" ry="3" style="stroke:#038048;stroke-width:1;"/><text fill="#000000" font-family="sans-serif" font-size="14" lengthAdjust="spacing" textLength="575.6543" x="1431.32" y="317.2804">FlightFacade(FlightAdapterFactory factory, IFlightSearchStrategy defaultStrategy)</text><ellipse cx="1422.32" cy="330.2306" fill="#84BE84" rx="3" ry="3" style="stroke:#038048;stroke-width:1;"/><text fill="#000000" font-family="sans-serif" font-size="14" lengthAdjust="spacing" textLength="389.2314" x="1431.32" y="333.5773">void setSearchStrategy(IFlightSearchStrategy strategy)</text><ellipse cx="1422.32" cy="346.5275" fill="#84BE84" rx="3" ry="3" style="stroke:#038048;stroke-width:1;"/><text fill="#000000" font-family="sans-serif" font-size="14" lengthAdjust="spacing" textLength="603.4424" x="1431.32" y="349.8742">Flight findBestFlight(String origin, String destination, String departureDate, int adults)</text></g><!--class FlightController--><g class="entity" data-entity="FlightController" data-source-line="70" data-uid="ent0017" id="entity_FlightController"><rect fill="#F1F1F1" height="120.2891" rx="3.5" ry="3.5" style="stroke:#181818;stroke-width:0.5;" width="342.9004" x="1069.59" y="15.15"/><ellipse cx="1182.6632" cy="34.7008" fill="#ADD1B2" rx="11" ry="11" style="stroke:#181818;stroke-width:1;"/><path d="M1185.632,40.3414 Q1185.0539,40.6383 1184.4132,40.7789 Q1183.7726,40.9352 1183.0695,40.9352 Q1180.5695,40.9352 1179.2414,39.2945 Q1177.9289,37.6383 1177.9289,34.5133 Q1177.9289,31.3883 1179.2414,29.732 Q1180.5695,28.0758 1183.0695,28.0758 Q1183.7726,28.0758 1184.4132,28.232 Q1185.0695,28.3883 1185.632,28.6852 L1185.632,31.4039 Q1185.007,30.8258 1184.4132,30.5602 Q1183.8195,30.2789 1183.1945,30.2789 Q1181.8507,30.2789 1181.1632,31.357 Q1180.4757,32.4195 1180.4757,34.5133 Q1180.4757,36.607 1181.1632,37.6852 Q1181.8507,38.7477 1183.1945,38.7477 Q1183.8195,38.7477 1184.4132,38.482 Q1185.007,38.2008 1185.632,37.6227 L1185.632,40.3414 Z " fill="#000000"/><text fill="#A9A9A9" font-family="sans-serif" font-size="11" font-style="italic" lengthAdjust="spacing" textLength="45.3052" x="1234.6376" y="30.3604">&#171;Client&#187;</text><text fill="#000000" font-family="sans-serif" font-size="14" lengthAdjust="spacing" textLength="108.2539" x="1203.1632" y="45.9498">FlightController</text><line style="stroke:#181818;stroke-width:0.5;" x1="1070.59" x2="1411.4904" y1="54.2516" y2="54.2516"/><rect fill="none" height="6" style="stroke:#C82930;stroke-width:1;" width="6" x="1077.59" y="64.9"/><text fill="#000000" font-family="sans-serif" font-size="14" lengthAdjust="spacing" textLength="180.3047" x="1089.59" y="71.2467">FlightFacade flightFacade</text><rect fill="none" height="6" style="stroke:#C82930;stroke-width:1;" width="6" x="1077.59" y="81.1969"/><text fill="#000000" font-family="sans-serif" font-size="14" lengthAdjust="spacing" textLength="280.082" x="1089.59" y="87.5436">IFlightSearchStrategy cheapestStrategy</text><rect fill="none" height="6" style="stroke:#C82930;stroke-width:1;" width="6" x="1077.59" y="97.4937"/><text fill="#000000" font-family="sans-serif" font-size="14" lengthAdjust="spacing" textLength="263.7236" x="1089.59" y="103.8404">IFlightSearchStrategy fastestStrategy</text><line style="stroke:#181818;stroke-width:0.5;" x1="1070.59" x2="1411.4904" y1="111.1422" y2="111.1422"/><ellipse cx="1080.59" cy="124.7906" fill="#84BE84" rx="3" ry="3" style="stroke:#038048;stroke-width:1;"/><text fill="#000000" font-family="sans-serif" font-size="14" lengthAdjust="spacing" textLength="316.9004" x="1089.59" y="128.1373">ResponseEntity&lt;Flight&gt; searchBestFlight(...)</text></g><!--class Flight--><g class="entity" data-entity="Flight" data-source-line="81" data-uid="ent0020" id="entity_Flight"><rect fill="#F1F1F1" height="136.5859" rx="3.5" ry="3.5" style="stroke:#181818;stroke-width:0.5;" width="521.0313" x="1447.52" y="7"/><ellipse cx="1658.0527" cy="26.5508" fill="#ADD1B2" rx="11" ry="11" style="stroke:#181818;stroke-width:1;"/><path d="M1661.0215,32.1914 Q1660.4433,32.4883 1659.8027,32.6289 Q1659.1621,32.7852 1658.459,32.7852 Q1655.959,32.7852 1654.6308,31.1445 Q1653.3183,29.4883 1653.3183,26.3633 Q1653.3183,23.2383 1654.6308,21.582 Q1655.959,19.9258 1658.459,19.9258 Q1659.1621,19.9258 1659.8027,20.082 Q1660.459,20.2383 1661.0215,20.5352 L1661.0215,23.2539 Q1660.3965,22.6758 1659.8027,22.4102 Q1659.209,22.1289 1658.584,22.1289 Q1657.2402,22.1289 1656.5527,23.207 Q1655.8652,24.2695 1655.8652,26.3633 Q1655.8652,28.457 1656.5527,29.5352 Q1657.2402,30.5977 1658.584,30.5977 Q1659.209,30.5977 1659.8027,30.332 Q1660.3965,30.0508 1661.0215,29.4727 L1661.0215,32.1914 Z " fill="#000000"/><text fill="#A9A9A9" font-family="sans-serif" font-size="11" font-style="italic" lengthAdjust="spacing" textLength="95.4658" x="1676.5527" y="22.2104">&#171;Domain Object&#187;</text><text fill="#000000" font-family="sans-serif" font-size="14" lengthAdjust="spacing" textLength="39.0811" x="1704.7451" y="37.7998">Flight</text><line style="stroke:#181818;stroke-width:0.5;" x1="1448.52" x2="1967.5513" y1="46.1016" y2="46.1016"/><ellipse cx="1458.52" cy="59.75" fill="none" rx="3" ry="3" style="stroke:#038048;stroke-width:1;"/><text fill="#000000" font-family="sans-serif" font-size="14" lengthAdjust="spacing" textLength="104.8701" x="1467.52" y="63.0967">String provider</text><ellipse cx="1458.52" cy="76.0469" fill="none" rx="3" ry="3" style="stroke:#038048;stroke-width:1;"/><text fill="#000000" font-family="sans-serif" font-size="14" lengthAdjust="spacing" textLength="89.7217" x="1467.52" y="79.3936">String airline</text><ellipse cx="1458.52" cy="92.3438" fill="none" rx="3" ry="3" style="stroke:#038048;stroke-width:1;"/><text fill="#000000" font-family="sans-serif" font-size="14" lengthAdjust="spacing" textLength="87.0078" x="1467.52" y="95.6904">double price</text><ellipse cx="1458.52" cy="108.6406" fill="none" rx="3" ry="3" style="stroke:#038048;stroke-width:1;"/><text fill="#000000" font-family="sans-serif" font-size="14" lengthAdjust="spacing" textLength="136.7256" x="1467.52" y="111.9873">int durationMinutes</text><line style="stroke:#181818;stroke-width:0.5;" x1="1448.52" x2="1967.5513" y1="119.2891" y2="119.2891"/><ellipse cx="1458.52" cy="132.9375" fill="#84BE84" rx="3" ry="3" style="stroke:#038048;stroke-width:1;"/><text fill="#000000" font-family="sans-serif" font-size="14" lengthAdjust="spacing" textLength="495.0313" x="1467.52" y="136.2842">Flight(String provider, String airline, double price, int durationMinutes)</text></g><!--link SkyscannerAdapter to IFlightAdapter--><g class="link" data-entity-1="SkyscannerAdapter" data-entity-2="IFlightAdapter" data-source-line="27" data-uid="lnk5" id="link_SkyscannerAdapter_IFlightAdapter"><path codeLine="27" d="M501.2,554.92 C571.91,579.84 635.5627,602.269 700.4227,625.119" fill="none" id="SkyscannerAdapter-to-IFlightAdapter" style="stroke:#454645;stroke-width:1;stroke-dasharray:7.0,7.0;"/><polygon fill="none" points="717.4,631.1,702.4164,619.4599,698.4291,630.778,717.4,631.1" style="stroke:#454645;stroke-width:1;"/><text fill="#000000" font-family="sans-serif" font-size="13" lengthAdjust="spacing" textLength="76.9082" x="633.04" y="597.5269">implements</text></g><!--link BookingComAdapter to IFlightAdapter--><g class="link" data-entity-1="BookingComAdapter" data-entity-2="IFlightAdapter" data-source-line="34" data-uid="lnk7" id="link_BookingComAdapter_IFlightAdapter"><path codeLine="34" d="M840.04,546.61 C840.04,573.37 840.04,587.73 840.04,613.18" fill="none" id="BookingComAdapter-to-IFlightAdapter" style="stroke:#454645;stroke-width:1;stroke-dasharray:7.0,7.0;"/><polygon fill="none" points="840.04,631.18,846.04,613.18,834.04,613.18,840.04,631.18" style="stroke:#454645;stroke-width:1;"/><text fill="#000000" font-family="sans-serif" font-size="13" lengthAdjust="spacing" textLength="76.9082" x="841.04" y="597.5269">implements</text></g><!--link CheapestFlightStrategy to IFlightSearchStrategy--><g class="link" data-entity-1="CheapestFlightStrategy" data-entity-2="IFlightSearchStrategy" data-source-line="41" data-uid="lnk9" id="link_CheapestFlightStrategy_IFlightSearchStrategy"><path codeLine="41" d="M645.43,325.02 C677.65,335.57 713.24,347.03 746.04,357.18 C810.15,377.01 957.5379,419.8518 1072.8479,453.1818" fill="none" id="CheapestFlightStrategy-to-IFlightSearchStrategy" style="stroke:#454645;stroke-width:1;stroke-dasharray:7.0,7.0;"/><polygon fill="none" points="1090.14,458.18,1074.514,447.4177,1071.1818,458.9458,1090.14,458.18" style="stroke:#454645;stroke-width:1;"/><text fill="#000000" font-family="sans-serif" font-size="13" lengthAdjust="spacing" textLength="76.9082" x="894.04" y="400.2469">implements</text></g><!--link FastestFlightStrategy to IFlightSearchStrategy--><g class="link" data-entity-1="FastestFlightStrategy" data-entity-2="IFlightSearchStrategy" data-source-line="46" data-uid="lnk11" id="link_FastestFlightStrategy_IFlightSearchStrategy"><path codeLine="46" d="M997.56,324.85 C1045,362.12 1105.5233,409.663 1153.0733,447.003" fill="none" id="FastestFlightStrategy-to-IFlightSearchStrategy" style="stroke:#454645;stroke-width:1;stroke-dasharray:7.0,7.0;"/><polygon fill="none" points="1167.23,458.12,1156.7789,442.2841,1149.3676,451.7219,1167.23,458.12" style="stroke:#454645;stroke-width:1;"/><text fill="#000000" font-family="sans-serif" font-size="13" lengthAdjust="spacing" textLength="76.9082" x="1100.04" y="400.2469">implements</text></g><!--link FlightAdapterFactory to IFlightAdapter--><g class="link" data-entity-1="FlightAdapterFactory" data-entity-2="IFlightAdapter" data-source-line="55" data-uid="lnk13" id="link_FlightAdapterFactory_IFlightAdapter"><path codeLine="55" d="M1445.1292,549.0528 C1432.3292,551.7028 1431.41,551.9 1419.04,554.46 C1296.54,579.85 1165.3255,607.0141 1055.2955,629.7841" fill="none" id="FlightAdapterFactory-IFlightAdapter" style="stroke:#454645;stroke-width:1;"/><polygon fill="none" points="1456.88,546.62,1450.1937,543.9195,1445.1292,549.0528,1451.8155,551.7533,1456.88,546.62" style="stroke:#454645;stroke-width:1;"/><polygon fill="#454645" points="1049.42,631,1059.0439,633.0932,1054.3163,629.9868,1057.4227,625.2591,1049.42,631" style="stroke:#454645;stroke-width:1;"/><text fill="#000000" font-family="sans-serif" font-size="13" lengthAdjust="spacing" textLength="55.8784" x="1261.04" y="597.5269">provides</text><text fill="#000000" font-family="sans-serif" font-size="13" lengthAdjust="spacing" textLength="6.5" x="1073.7688" y="620.4674">*</text></g><!--link FlightFacade to FlightAdapterFactory--><g class="link" data-entity-1="FlightFacade" data-entity-2="FlightAdapterFactory" data-source-line="66" data-uid="lnk15" id="link_FlightFacade_FlightAdapterFactory"><path codeLine="66" d="M1718.71,357.62 C1716.05,382.24 1713.7172,403.895 1711.1272,427.765" fill="none" id="FlightFacade-to-FlightAdapterFactory" style="stroke:#454645;stroke-width:1;"/><polygon fill="#454645" points="1710.48,433.73,1715.4275,425.214,1711.0194,428.7592,1707.4742,424.351,1710.48,433.73" style="stroke:#454645;stroke-width:1;"/><polygon fill="#000000" points="1719.5026,400.7174,1723.3966,392.0406,1717.5528,391.4089,1719.5026,400.7174" style="stroke:#000000;stroke-width:1;"/><text fill="#000000" font-family="sans-serif" font-size="13" lengthAdjust="spacing" textLength="29.7832" x="1729.04" y="400.2469">uses</text></g><!--link FlightFacade to IFlightSearchStrategy--><g class="link" data-entity-1="FlightFacade" data-entity-2="IFlightSearchStrategy" data-source-line="67" data-uid="lnk16" id="link_FlightFacade_IFlightSearchStrategy"><path codeLine="67" d="M1554.89,357.62 C1469.76,391.32 1376.0089,428.4219 1306.2489,456.0319" fill="none" id="FlightFacade-to-IFlightSearchStrategy" style="stroke:#454645;stroke-width:1;"/><polygon fill="#454645" points="1300.67,458.24,1310.5104,458.6472,1305.3191,456.3999,1307.5664,451.2086,1300.67,458.24" style="stroke:#454645;stroke-width:1;"/><polygon fill="#000000" points="1469.3909,397.5865,1478.8828,396.9904,1476.7196,391.5251,1469.3909,397.5865" style="stroke:#000000;stroke-width:1;"/><text fill="#000000" font-family="sans-serif" font-size="13" lengthAdjust="spacing" textLength="29.7832" x="1483.04" y="400.2469">uses</text></g><!--link FlightController to FlightFacade--><g class="link" data-entity-1="FlightController" data-entity-2="FlightFacade" data-source-line="76" data-uid="lnk18" id="link_FlightController_FlightFacade"><path codeLine="76" d="M1377.75,135.94 C1437.85,162.15 1503.2206,190.6707 1565.2906,217.7507" fill="none" id="FlightController-to-FlightFacade" style="stroke:#454645;stroke-width:1;"/><polygon fill="#454645" points="1570.79,220.15,1564.1404,212.8848,1566.2072,218.1506,1560.9414,220.2173,1570.79,220.15" style="stroke:#454645;stroke-width:1;"/><polygon fill="#000000" points="1507.6229,184.1556,1500.5074,177.8452,1498.1572,183.2328,1507.6229,184.1556" style="stroke:#000000;stroke-width:1;"/><text fill="#000000" font-family="sans-serif" font-size="13" lengthAdjust="spacing" textLength="29.7832" x="1512.04" y="186.6569">uses</text></g><!--link FlightController to IFlightSearchStrategy--><g class="link" data-entity-1="FlightController" data-entity-2="IFlightSearchStrategy" data-source-line="77" data-uid="lnk19" id="link_FlightController_IFlightSearchStrategy"><path codeLine="77" d="M1236.38,135.61 C1234.37,161.67 1232.03,192.65 1230.04,220.59 C1223.96,306.02 1217.8887,400.582 1214.6087,452.452" fill="none" id="FlightController-to-IFlightSearchStrategy" style="stroke:#454645;stroke-width:1;"/><polygon fill="#454645" points="1214.23,458.44,1218.79,449.7104,1214.5455,453.45,1210.806,449.2055,1214.23,458.44" style="stroke:#454645;stroke-width:1;"/><text fill="#000000" font-family="sans-serif" font-size="13" lengthAdjust="spacing" textLength="162.1953" x="1231.04" y="293.4469">uses &gt; ' (to set strategy)</text></g><!--SRC=[nLTBZzis4BxhLqpJmyeRsqMENHW67AyNsAPrWhKlEGLSQMoneKY1f3Tnq_xt3aLAfXwR56ZGsWUButb-y-3e1rjWYV347pMJDacku1OFN29agYoL16DHexBd2arYFd9PCSrAo0Gp1huaG9zTot6df5qheJJykFhPVKV-t_4_45wzIlvofcQp6TnB-l_0CZJkcF3c2FTtWXyBkyfPHIHOB9gdLcAvh5ru2RzoOnUUVGb7jFxHf3khkJo2qlp8vHJ2CKTZkMIMgvX6WTcJnbjcSGha1R3y9AoPr0OUbHB8972pUc9Si4U1wSJ5C71tXqnd1MabFSSpUTq-3jts4a1mvw_99tzCEy6mnbm8QN81Rgrafj4Y15myVZupkuzdap4fKG_W2zPdJUIxD-ztwzLsktdui7ft_s6plNttzdwxZraS_Stc_Vy9DG053IMhBf4zeAcKDBXNZG-_62MtAaVIaPydDnrV2RSXAFFvdyj-dTq0Boj1FI6jIGAShvMYqZ-kLVczuPpFvr2YBLHkA3gR5OwXvn7naFT37xxjVRzIGYroZ6jbNI2hslABAhSlTlwtXVkCfJYENlkC9UEEqKpwBzmTD_IFlVNOtx7CKbDq4E-ap3Eu0C9JMr6rWztyagD2DFqUnTRLbNvBSd9fvJuNjNJRTmrxwlaNUy3F5YMLQbzgNylvKxfsGIxsPD4JwdCDw5ZSQZPRmelh5yDAhhHwuZH1aWXBbeyWwUaUGNfe0Hornph7ccyyczb9QyfabnfXxesbeqOE_dVwZEeS3umcNdFsy3ufdeF17cywhi5qHCSB_BkCv2Ph0MENhD68R-1aA3NB8VjplHBucnabE84Dcy_CjT0WnTJSLYiXwj7hUNjf3XOFqU5hoGsZAChhSwm7FmOw5T3SFHjfkJstKyJKab4AQ7HV88nYkC0OtEx1rsFzEeHqDQPMkTA9oYB0UgjAnYMyVVmTC-ixfuCheTbXQMTcg8pGWpgcCQu5ROWrALSd6XJ4nZDFSBMJdtHTNxznUIBeeX9DUsgdFPtJZiBfc3Q_2xnq0yVDff-C__MNPDBEYWSKjPGfUENZlWhpmwFMz7-NEbpMF4DTuiqyWi4YIduQooJjiCG-tClQMs4e6VD7j_D5OjIZq2nD8AxKYRfL5czeVQzeHAFCd1vQuDt8rf89jtOOI2zBaCU-Ga2RpIV0D4B1P2umX-jFtD8cSWtqSa0l0i4_rjmxLq1yjO1KbWnKWcVS2ffAXVeaWPdmVf37hXJq5Z3_6m00]--></g></svg>