<svg xmlns="http://www.w3.org/2000/svg" xmlns:xlink="http://www.w3.org/1999/xlink" contentStyleType="text/css" data-diagram-type="SEQUENCE" height="539px" preserveAspectRatio="none" style="width:917px;height:539px;background:#FFFFFF;" version="1.1" viewBox="0 0 917 539" width="917px" zoomAndPan="magnify"><defs/><g><rect fill="none" height="133.6641" style="stroke:#000000;stroke-width:1.5;" width="476.9121" x="158.9263" y="185.6953"/><g><title>Client</title><rect fill="#000000" fill-opacity="0.00000" height="377.5938" width="8" x="24.2651" y="81.2969"/><line style="stroke:#181818;stroke-width:0.5;stroke-dasharray:5.0,5.0;" x1="28" x2="28" y1="81.2969" y2="458.8906"/></g><g><title>Facade</title><rect fill="#000000" fill-opacity="0.00000" height="377.5938" width="8" x="197.1304" y="81.2969"/><line style="stroke:#181818;stroke-width:0.5;stroke-dasharray:5.0,5.0;" x1="200.9263" x2="200.9263" y1="81.2969" y2="458.8906"/></g><g><title>Factory</title><rect fill="#000000" fill-opacity="0.00000" height="377.5938" width="8" x="386.5439" y="81.2969"/><line style="stroke:#181818;stroke-width:0.5;stroke-dasharray:5.0,5.0;" x1="390.3315" x2="390.3315" y1="81.2969" y2="458.8906"/></g><g><title>Adapter1</title><rect fill="#000000" fill-opacity="0.00000" height="377.5938" width="8" x="469.104" y="81.2969"/><line style="stroke:#181818;stroke-width:0.5;stroke-dasharray:5.0,5.0;" x1="472.7563" x2="472.7563" y1="81.2969" y2="458.8906"/></g><g><title>ExternalAPI1</title><rect fill="#000000" fill-opacity="0.00000" height="377.5938" width="8" x="570.145" y="81.2969"/><line style="stroke:#181818;stroke-width:0.5;stroke-dasharray:5.0,5.0;" x1="573.4517" x2="573.4517" y1="81.2969" y2="458.8906"/></g><g><title>Adapter2</title><rect fill="#000000" fill-opacity="0.00000" height="377.5938" width="8" x="671.186" y="81.2969"/><line style="stroke:#181818;stroke-width:0.5;stroke-dasharray:5.0,5.0;" x1="674.8384" x2="674.8384" y1="81.2969" y2="458.8906"/></g><g><title>ExternalAPI2</title><rect fill="#000000" fill-opacity="0.00000" height="377.5938" width="8" x="772.2271" y="81.2969"/><line style="stroke:#181818;stroke-width:0.5;stroke-dasharray:5.0,5.0;" x1="775.5337" x2="775.5337" y1="81.2969" y2="458.8906"/></g><g><title>Strategy</title><rect fill="#000000" fill-opacity="0.00000" height="377.5938" width="8" x="870.9131" y="81.2969"/><line style="stroke:#181818;stroke-width:0.5;stroke-dasharray:5.0,5.0;" x1="873.9204" x2="873.9204" y1="81.2969" y2="458.8906"/></g><g class="participant participant-head" data-participant="Client"><text fill="#000000" font-family="sans-serif" font-size="14" lengthAdjust="spacing" textLength="40.5303" x="5" y="77.9951">Client</text><ellipse cx="28.2651" cy="13.5" fill="#E2E2F0" rx="8" ry="8" style="stroke:#181818;stroke-width:0.5;"/><path d="M28.2651,21.5 L28.2651,48.5 M15.2651,29.5 L41.2651,29.5 M28.2651,48.5 L15.2651,63.5 M28.2651,48.5 L41.2651,63.5" fill="none" style="stroke:#181818;stroke-width:0.5;"/></g><g class="participant participant-tail" data-participant="Client"><text fill="#000000" font-family="sans-serif" font-size="14" lengthAdjust="spacing" textLength="40.5303" x="5" y="470.8857">Client</text><ellipse cx="28.2651" cy="482.6875" fill="#E2E2F0" rx="8" ry="8" style="stroke:#181818;stroke-width:0.5;"/><path d="M28.2651,490.6875 L28.2651,517.6875 M15.2651,498.6875 L41.2651,498.6875 M28.2651,517.6875 L15.2651,532.6875 M28.2651,517.6875 L41.2651,532.6875" fill="none" style="stroke:#181818;stroke-width:0.5;"/></g><g class="participant participant-head" data-participant="Facade"><rect fill="#E2E2F0" height="30.2969" rx="2.5" ry="2.5" style="stroke:#181818;stroke-width:0.5;" width="64.4082" x="168.9263" y="50"/><text fill="#000000" font-family="sans-serif" font-size="14" lengthAdjust="spacing" textLength="50.4082" x="175.9263" y="69.9951">Facade</text></g><g class="participant participant-tail" data-participant="Facade"><rect fill="#E2E2F0" height="30.2969" rx="2.5" ry="2.5" style="stroke:#181818;stroke-width:0.5;" width="64.4082" x="168.9263" y="457.8906"/><text fill="#000000" font-family="sans-serif" font-size="14" lengthAdjust="spacing" textLength="50.4082" x="175.9263" y="477.8857">Facade</text></g><g class="participant participant-head" data-participant="Factory"><rect fill="#E2E2F0" height="30.2969" rx="2.5" ry="2.5" style="stroke:#181818;stroke-width:0.5;" width="66.4248" x="357.3315" y="50"/><text fill="#000000" font-family="sans-serif" font-size="14" lengthAdjust="spacing" textLength="52.4248" x="364.3315" y="69.9951">Factory</text></g><g class="participant participant-tail" data-participant="Factory"><rect fill="#E2E2F0" height="30.2969" rx="2.5" ry="2.5" style="stroke:#181818;stroke-width:0.5;" width="66.4248" x="357.3315" y="457.8906"/><text fill="#000000" font-family="sans-serif" font-size="14" lengthAdjust="spacing" textLength="52.4248" x="364.3315" y="477.8857">Factory</text></g><g class="participant participant-head" data-participant="Adapter1"><rect fill="#E2E2F0" height="30.2969" rx="2.5" ry="2.5" style="stroke:#181818;stroke-width:0.5;" width="78.6953" x="433.7563" y="50"/><text fill="#000000" font-family="sans-serif" font-size="14" lengthAdjust="spacing" textLength="64.6953" x="440.7563" y="69.9951">Adapter1</text></g><g class="participant participant-tail" data-participant="Adapter1"><rect fill="#E2E2F0" height="30.2969" rx="2.5" ry="2.5" style="stroke:#181818;stroke-width:0.5;" width="78.6953" x="433.7563" y="457.8906"/><text fill="#000000" font-family="sans-serif" font-size="14" lengthAdjust="spacing" textLength="64.6953" x="440.7563" y="477.8857">Adapter1</text></g><g class="participant participant-head" data-participant="ExternalAPI1"><rect fill="#E2E2F0" height="30.2969" rx="2.5" ry="2.5" style="stroke:#181818;stroke-width:0.5;" width="103.3867" x="522.4517" y="50"/><text fill="#000000" font-family="sans-serif" font-size="14" lengthAdjust="spacing" textLength="89.3867" x="529.4517" y="69.9951">ExternalAPI1</text></g><g class="participant participant-tail" data-participant="ExternalAPI1"><rect fill="#E2E2F0" height="30.2969" rx="2.5" ry="2.5" style="stroke:#181818;stroke-width:0.5;" width="103.3867" x="522.4517" y="457.8906"/><text fill="#000000" font-family="sans-serif" font-size="14" lengthAdjust="spacing" textLength="89.3867" x="529.4517" y="477.8857">ExternalAPI1</text></g><g class="participant participant-head" data-participant="Adapter2"><rect fill="#E2E2F0" height="30.2969" rx="2.5" ry="2.5" style="stroke:#181818;stroke-width:0.5;" width="78.6953" x="635.8384" y="50"/><text fill="#000000" font-family="sans-serif" font-size="14" lengthAdjust="spacing" textLength="64.6953" x="642.8384" y="69.9951">Adapter2</text></g><g class="participant participant-tail" data-participant="Adapter2"><rect fill="#E2E2F0" height="30.2969" rx="2.5" ry="2.5" style="stroke:#181818;stroke-width:0.5;" width="78.6953" x="635.8384" y="457.8906"/><text fill="#000000" font-family="sans-serif" font-size="14" lengthAdjust="spacing" textLength="64.6953" x="642.8384" y="477.8857">Adapter2</text></g><g class="participant participant-head" data-participant="ExternalAPI2"><rect fill="#E2E2F0" height="30.2969" rx="2.5" ry="2.5" style="stroke:#181818;stroke-width:0.5;" width="103.3867" x="724.5337" y="50"/><text fill="#000000" font-family="sans-serif" font-size="14" lengthAdjust="spacing" textLength="89.3867" x="731.5337" y="69.9951">ExternalAPI2</text></g><g class="participant participant-tail" data-participant="ExternalAPI2"><rect fill="#E2E2F0" height="30.2969" rx="2.5" ry="2.5" style="stroke:#181818;stroke-width:0.5;" width="103.3867" x="724.5337" y="457.8906"/><text fill="#000000" font-family="sans-serif" font-size="14" lengthAdjust="spacing" textLength="89.3867" x="731.5337" y="477.8857">ExternalAPI2</text></g><g class="participant participant-head" data-participant="Strategy"><rect fill="#E2E2F0" height="30.2969" rx="2.5" ry="2.5" style="stroke:#181818;stroke-width:0.5;" width="73.9854" x="837.9204" y="50"/><text fill="#000000" font-family="sans-serif" font-size="14" lengthAdjust="spacing" textLength="59.9854" x="844.9204" y="69.9951">Strategy</text></g><g class="participant participant-tail" data-participant="Strategy"><rect fill="#E2E2F0" height="30.2969" rx="2.5" ry="2.5" style="stroke:#181818;stroke-width:0.5;" width="73.9854" x="837.9204" y="457.8906"/><text fill="#000000" font-family="sans-serif" font-size="14" lengthAdjust="spacing" textLength="59.9854" x="844.9204" y="477.8857">Strategy</text></g><g class="message" data-participant-1="Client" data-participant-2="Facade"><line style="stroke:#181818;stroke-width:1;" x1="199.1304" x2="189.1304" y1="112.4297" y2="108.4297"/><line style="stroke:#181818;stroke-width:1;" x1="199.1304" x2="189.1304" y1="112.4297" y2="116.4297"/><line style="stroke:#181818;stroke-width:1;" x1="28.2651" x2="200.1304" y1="112.4297" y2="112.4297"/><text fill="#000000" font-family="sans-serif" font-size="13" lengthAdjust="spacing" textLength="148.8652" x="35.2651" y="107.3638">findBestFlight(params)</text></g><g class="message" data-participant-1="Facade" data-participant-2="Factory"><line style="stroke:#181818;stroke-width:1;" x1="388.5439" x2="378.5439" y1="141.5625" y2="137.5625"/><line style="stroke:#181818;stroke-width:1;" x1="388.5439" x2="378.5439" y1="141.5625" y2="145.5625"/><line style="stroke:#181818;stroke-width:1;" x1="201.1304" x2="389.5439" y1="141.5625" y2="141.5625"/><text fill="#000000" font-family="sans-serif" font-size="13" lengthAdjust="spacing" textLength="149.6714" x="208.1304" y="136.4966">getAvailableAdapters()</text></g><g class="message" data-participant-1="Factory" data-participant-2="Facade"><line style="stroke:#181818;stroke-width:1;" x1="202.1304" x2="212.1304" y1="170.6953" y2="166.6953"/><line style="stroke:#181818;stroke-width:1;" x1="202.1304" x2="212.1304" y1="170.6953" y2="174.6953"/><line style="stroke:#181818;stroke-width:1;stroke-dasharray:2.0,2.0;" x1="201.1304" x2="389.5439" y1="170.6953" y2="170.6953"/><text fill="#000000" font-family="sans-serif" font-size="13" lengthAdjust="spacing" textLength="165.4136" x="218.1304" y="165.6294">List [Adapter1, Adapter2]</text></g><path d="M158.9263,185.6953 L235.5503,185.6953 L235.5503,192.8281 L225.5503,202.8281 L158.9263,202.8281 L158.9263,185.6953" fill="#EEEEEE" style="stroke:#000000;stroke-width:1.5;"/><rect fill="none" height="133.6641" style="stroke:#000000;stroke-width:1.5;" width="476.9121" x="158.9263" y="185.6953"/><text fill="#000000" font-family="sans-serif" font-size="13" font-weight="bold" lengthAdjust="spacing" textLength="31.624" x="173.9263" y="198.7622">loop</text><text fill="#000000" font-family="sans-serif" font-size="11" font-weight="bold" lengthAdjust="spacing" textLength="117.3262" x="250.5503" y="197.9058">[For Each Adapter]</text><g class="message" data-participant-1="Facade" data-participant-2="Adapter1"><line style="stroke:#181818;stroke-width:1;" x1="471.104" x2="461.104" y1="223.9609" y2="219.9609"/><line style="stroke:#181818;stroke-width:1;" x1="471.104" x2="461.104" y1="223.9609" y2="227.9609"/><line style="stroke:#181818;stroke-width:1;" x1="201.1304" x2="472.104" y1="223.9609" y2="223.9609"/><text fill="#000000" font-family="sans-serif" font-size="13" lengthAdjust="spacing" textLength="123.519" x="208.1304" y="218.895">getFlights(params)</text></g><g class="message" data-participant-1="Adapter1" data-participant-2="ExternalAPI1"><line style="stroke:#181818;stroke-width:1;" x1="572.145" x2="562.145" y1="253.0938" y2="249.0938"/><line style="stroke:#181818;stroke-width:1;" x1="572.145" x2="562.145" y1="253.0938" y2="257.0938"/><line style="stroke:#181818;stroke-width:1;" x1="473.104" x2="573.145" y1="253.0938" y2="253.0938"/><text fill="#000000" font-family="sans-serif" font-size="13" lengthAdjust="spacing" textLength="48.9658" x="480.104" y="248.0278">API Call</text></g><g class="message" data-participant-1="ExternalAPI1" data-participant-2="Adapter1"><line style="stroke:#181818;stroke-width:1;" x1="474.104" x2="484.104" y1="282.2266" y2="278.2266"/><line style="stroke:#181818;stroke-width:1;" x1="474.104" x2="484.104" y1="282.2266" y2="286.2266"/><line style="stroke:#181818;stroke-width:1;stroke-dasharray:2.0,2.0;" x1="473.104" x2="573.145" y1="282.2266" y2="282.2266"/><text fill="#000000" font-family="sans-serif" font-size="13" lengthAdjust="spacing" textLength="55.7959" x="490.104" y="277.1606">Results1</text></g><g class="message" data-participant-1="Adapter1" data-participant-2="Facade"><line style="stroke:#181818;stroke-width:1;" x1="202.1304" x2="212.1304" y1="311.3594" y2="307.3594"/><line style="stroke:#181818;stroke-width:1;" x1="202.1304" x2="212.1304" y1="311.3594" y2="315.3594"/><line style="stroke:#181818;stroke-width:1;stroke-dasharray:2.0,2.0;" x1="201.1304" x2="472.104" y1="311.3594" y2="311.3594"/><text fill="#000000" font-family="sans-serif" font-size="13" lengthAdjust="spacing" textLength="133.3643" x="218.1304" y="306.2935">List&lt;Flight&gt; flights1</text></g><path d="M40,331.3594 L40,356.3594 L360,356.3594 L360,341.3594 L350,331.3594 L40,331.3594" fill="#FEFFDD" style="stroke:#181818;stroke-width:0.5;"/><path d="M350,331.3594 L350,341.3594 L360,341.3594 L350,331.3594" fill="#FEFFDD" style="stroke:#181818;stroke-width:0.5;"/><text fill="#000000" font-family="sans-serif" font-size="13" lengthAdjust="spacing" textLength="299.9648" x="46" y="348.4263">Aggregates flights1 and flights2 into allFlights</text><g class="message" data-participant-1="Facade" data-participant-2="Strategy"><line style="stroke:#181818;stroke-width:1;" x1="872.9131" x2="862.9131" y1="382.625" y2="378.625"/><line style="stroke:#181818;stroke-width:1;" x1="872.9131" x2="862.9131" y1="382.625" y2="386.625"/><line style="stroke:#181818;stroke-width:1;" x1="201.1304" x2="873.9131" y1="382.625" y2="382.625"/><text fill="#000000" font-family="sans-serif" font-size="13" lengthAdjust="spacing" textLength="158.1519" x="208.1304" y="377.5591">findBestFlight(allFlights)</text></g><g class="message" data-participant-1="Strategy" data-participant-2="Facade"><line style="stroke:#181818;stroke-width:1;" x1="202.1304" x2="212.1304" y1="411.7578" y2="407.7578"/><line style="stroke:#181818;stroke-width:1;" x1="202.1304" x2="212.1304" y1="411.7578" y2="415.7578"/><line style="stroke:#181818;stroke-width:1;stroke-dasharray:2.0,2.0;" x1="201.1304" x2="873.9131" y1="411.7578" y2="411.7578"/><text fill="#000000" font-family="sans-serif" font-size="13" lengthAdjust="spacing" textLength="64.4097" x="218.1304" y="406.6919">bestFlight</text></g><g class="message" data-participant-1="Facade" data-participant-2="Client"><line style="stroke:#181818;stroke-width:1;" x1="29.2651" x2="39.2651" y1="440.8906" y2="436.8906"/><line style="stroke:#181818;stroke-width:1;" x1="29.2651" x2="39.2651" y1="440.8906" y2="444.8906"/><line style="stroke:#181818;stroke-width:1;stroke-dasharray:2.0,2.0;" x1="28.2651" x2="200.1304" y1="440.8906" y2="440.8906"/><text fill="#000000" font-family="sans-serif" font-size="13" lengthAdjust="spacing" textLength="64.4097" x="45.2651" y="435.8247">bestFlight</text></g><!--SRC=[TP71QiCm38RlVWeTMrWFoJ6CG5OQ6EmmjkFOGKtKrE3QmTRA-lPpuiHriYq7G_H_adv9sB2ni5UID8iUBSj6zgWPQcom9LZ7F7rRnAeMUoQRBSd3juzfLDNhS_ONdl-BvmlXdIqoTJSG8dY4NLbEtWeuITq-aUDQoUxC6v-85xSLa_M971mNq15NLvGAZuec3supeeCEkxJiYtGC7_DW3z7pfn3Ac1vglx43DkTP4E2_fEcSENODtbmqDx1nPmEThge0_y8UbHgvL0eMxwNVo7qfTjcgu7gEnz2_X5Fm4NX1kXL26oOmLx8ne-ewIvtVk8iye6xddnoaPWFUtZILI7Szt-hNNUxyLiI3BfmU8nmB3d8uUIh_0000]--></g></svg>